<?xml version="1.0" encoding="UTF-8"?>
<svg id="Laag_1" data-name="Laag 1" xmlns="http://www.w3.org/2000/svg" width="2222.1" height="857.43" viewBox="0 0 2222.1 857.43">
  <defs>
    <style>
      .cls-1 {
        fill: #3dbaec;
        stroke-width: .57px;
      }

      .cls-1, .cls-2, .cls-3 {
        stroke: #fff;
        stroke-miterlimit: 10;
      }

      .cls-4 {
        fill: #f9ba17;
      }

      .cls-5 {
        fill: #fff;
      }

      .cls-6 {
        fill: #9dd2f3;
      }

      .cls-7 {
        fill: #31647e;
      }

      .cls-8, .cls-3 {
        fill: #8cc4de;
      }

      .cls-9 {
        fill: #a5d6cc;
      }

      .cls-10 {
        fill: #dbeeea;
      }

      .cls-11 {
        fill: #dbf0fd;
      }

      .cls-12 {
        fill: #d8eefd;
      }

      .cls-13 {
        fill: #a1c745;
      }

      .cls-14 {
        fill: #27726f;
      }

      .cls-15 {
        fill: #2a827f;
      }

      .cls-16 {
        fill: #2a586f;
      }

      .cls-17, .cls-2 {
        fill: #4793ba;
      }

      .cls-2 {
        stroke-width: .45px;
      }

      .cls-3 {
        stroke-width: .85px;
      }
    </style>
  </defs>
  <g>
    <path class="cls-8" d="m347.22,723.94c.16-.07.4-.06.49-.21,12.37-22.31,38.38-11.88,42.52,2.87-9.77-47.23,59.03-13.14,57.49-15.59-12.2-147.71,158.51-100.61,166.59-47.34-5.16-43.9,47.42-46.24,70.92-16.56-16.3-47.25,96.36-75.79,92.66-.83,14.48-16.56,64.84,10.95,50.94,39.92,59.1-71.7,98.5-40.4,115.64-3.64,9.42,14.17,15.91,30.45,15.61,46.62,1.74-1.81,3.64-3.5,5.73-5.04,1.73-5.55,4.02-11.03,7.23-16.13,4.13-6.68,9.98-12.52,18.24-15.99,8.09-3.48,17.55-4.03,26.5-2.5,15.83,2.64,33.55,11.54,38.02,24.89.34,1.53.69,3.06,1.03,4.59.26.76,1.2,1.08,2.06.99-.51-3.39-.8-6.78-.87-10.14-.08-3.52.12-7.1.64-10.67.59-10.11,3.7-20.15,9.18-29.28,7.57-12.52,19.96-23.5,36.3-28.51,18.24-5.7,39.06-2.92,55.57,5.15,17.72,8.62,30.11,23.23,33.55,39.64,2.08,9.71.4,18.9-2.86,27.87,3.55,8.13,5.89,16.61,6.45,25.12,2-.35,4.01-.54,6.03-.54,1.71-5.36,3.95-10.64,7.05-15.56,4.13-6.68,9.98-12.52,18.24-15.99,8.09-3.48,18.47-5.74,27.41-4.21,15.83,2.64,34.9,9.44,41.06,26.74-3.1-15.02-.17-30.87,8.09-44.64,7.57-12.52,19.96-23.5,36.3-28.51,13.69-4.28,28.82-3.78,42.51.14-3.04-8.42-4.66-17.18-4.83-25.71-.34-15.58,4.65-32.4,19.79-42.97,16-11.26,38.94-11.64,58.32-6.26,61.4,17.05,68.09,68.63,66.9,77.52,33.91-53.45,89.51-12.39,94.31-4.93,3.3-58.3,28.4-80.13,64.82-79.77-12.24-26.69-45.04-57.38-85.52-22.57-34-94.8-141.6-133-270.4-114.4,13.4-23.1,47.1-186.9-112.1-164.5,22.4-108.5-199.9-152.8-240.1-51.3-7.1-35.1-67.5-44.5-69,5.6-9.05-178.99-219.78-104.52-219.16-30.22-17.3-64.37-239.78-117.6-274.14,29.02-18.31-64.89-113.82-42.63-132.31-9.31,26.01-100.2-64.56-121.46-104.29-97.19,9.6-23.1-8.3-107.3-122.8-106.6-20,.1-37.4,5.1-52.6,12.4v711c.8-.5,1.7-1,2.7-1.5,6.2-2.7,13.48-2.1,19.9-.6,21.83,5.1,33.1,25.5,32.7,23.7-.3-1.7-5.92-8.9-4.89-33.62s24.31-41.96,48.02-42.41c23.71-.45,50.18,24.82,52.23,36.92.3-14.25,5.03-31.99,11.13-43.69,6.7-12.8,17.7-25.7,33-29.7,15.6-4.1,31.3,3.5,41.7,14.2,11.8,12.1,18.6,28.2,22.4,44,3.7,15.2,5.1,31.7,1.9,47.1-.4,1.8,2.4,2.6,3,.8,3.5-11.7,8.6-23.4,16.3-33.2,6.5-8.2,15.6-15.4,26.8-16.4,12.3-1.2,25,4.4,33.2,12.8,2.75,2.8,4.95,5.88,6.69,9.15Z"/>
    <path class="cls-8" d="m2156.53,617.69c-18.5-150.3-231.3-155.9-242-42.9-5.38-40.01-121.45-91.51-210.9,2.66,4.77,1.33,9.37,3.06,13.67,5.16,17.72,8.62,30.11,23.23,33.55,39.64,3.45,16.08-3.43,30.75-10.7,45.29,6.41-4.8,13.8-8.7,22.09-11.24,20.7-6.47,44.32-3.31,63.06,5.84,20.11,9.79,34.17,26.36,38.07,44.98,5.08,23.67-17.57,68.81-16.21,68.02,12.69-7.42,56.43,26.99,57.6,25.09,4.69-7.89,12.1-14.99,22.65-17.99,8.83-2.55,18.16-2.03,26.7.49-1.43-7.19-3.27-14.35-4.09-21.63-1-9.4.3-18.8,2.6-28,4-15.9,11.4-32.6,25.9-44.2,13.5-10.7,33.8-14.9,51.4-8.9,16.2,5.5,27.1,18.3,33.2,31.3,6.3,13.5,12.21,34.46,7,48.6,41.21-33.01,85.12-8.5,91.8,21.9,24.05-41.74,57.2-11.8,58.2-11.1v-178c-16.2-7.6-40.2.2-63.6,25Z"/>
  </g>
  <polygon class="cls-8" points="731.23 773.95 588.03 773.84 588.03 805.49 588.03 814.99 588.03 836.69 731.23 836.69 731.23 773.95"/>
  <g>
    <path class="cls-16" d="m586.43,700.19c21.7-17.9,49.7-27.7,78.9-27.7s57.2,9.8,78.9,27.7c20.5,16.9,32.4,38.9,32.6,60.4h-223c.2-21.4,12.1-43.4,32.6-60.4m156.5,51.4h11.4v-28.6l-.1-.2c-3-4-6.4-7.7-10.2-11.1l-1-1v40.9h-.1Zm-18.5,0h11.4v-46.6l-.3-.2c-3.2-2.3-6.7-4.5-10.2-6.5l-.9-.5v53.8Zm-18.5,0h11.4v-57.4l-.4-.2c-3.3-1.5-6.7-2.9-10.2-4.1l-.8-.3v62Zm-18.5,0h11.4v-64.1l-.5-.1c-3.3-.9-6.7-1.7-10.2-2.3l-.7-.1v66.6Zm-18.5,0h11.4v-67.7l-.6-.1c-3.4-.4-6.8-.6-10.2-.7h-.6v68.5h0Zm-18.6,0h11.4v-68.5h-.6c-3.4.1-6.8.4-10.2.7l-.6.1v67.7h0Zm-18.5,0h11.4v-66.7l-.7.1c-3.4.6-6.9,1.4-10.2,2.3l-.5.1v64.2Zm-18.5,0h11.4v-62l-.8.3c-3.5,1.2-6.9,2.6-10.2,4.1l-.4.2v57.4Zm-18.5,0h11.4v-53.9l-.9.5c-3.5,2-7,4.2-10.2,6.5l-.3.2v46.7Zm-18.5-28.8v28.8h11.4v-41l-1,1c-3.8,3.4-7.2,7.2-10.2,11.1l-.2.1Z"/>
    <polygon class="cls-10" points="547.03 799.39 579.43 799.39 579.43 750.69 563.53 735.49 547.03 752.19 547.03 799.39"/>
    <rect class="cls-4" x="558.23" y="757.89" width="10" height="9.8"/>
    <rect class="cls-4" x="558.23" y="774.29" width="10" height="9.8"/>
    <polygon class="cls-9" points="492.33 799.39 547.03 799.39 547.03 746.59 508.83 735.39 492.33 752.19 492.33 799.39"/>
    <rect class="cls-4" x="504.43" y="757.89" width="10" height="9.9"/>
    <rect class="cls-4" x="504.43" y="774.49" width="10" height="9.9"/>
    <rect class="cls-4" x="524.83" y="757.89" width="10" height="9.9"/>
    <rect class="cls-4" x="524.83" y="774.49" width="10" height="9.9"/>
    <polygon class="cls-17" points="492.33 752.19 547.03 752.19 563.53 735.49 508.83 735.49 492.33 752.19"/>
    <g>
      <path class="cls-13" d="m1962.93,773.09h-121.59c-1.9,0-3.72-.73-5.1-2.03-8.52-8.01-19.73-12.87-32.01-12.87h-411.45c-4.11,0-7.45,3.34-7.45,7.45h0c0,4.11-3.34,7.45-7.45,7.45h-667.8c-4.11,0-7.45,3.34-7.45,7.45v48.7c0,4.11,3.34,7.45,7.45,7.45h1252.85c7.5,0,13.5-6.1,13.5-13.5v-36.6c0-7.5-6.1-13.5-13.5-13.5Z"/>
      <path class="cls-13" d="m528.73,767.29c0-3.2-2.6-5.8-5.8-5.8h-152.4c-9.39,0-17.98,3.77-24.56,10-1.08,1.02-2.5,1.6-3.99,1.6h-82.85c-7.5,0-13.5,6.1-13.5,13.5v36.6c0,7.4,6,13.5,13.5,13.5h360.5c3.2,0,5.8-2.6,5.8-5.8v-52c0-3.2-2.6-5.8-5.8-5.8h-85.1c-3.2,0-5.8-2.6-5.8-5.8h0Z"/>
    </g>
    <polygon class="cls-12" points="504.63 812.49 539.63 812.49 539.63 776.79 522.53 760.19 504.63 776.79 504.63 812.49"/>
    <polygon class="cls-7" points="504.63 776.79 469.23 776.79 486.73 760.19 522.53 760.19 504.63 776.79"/>
    <rect class="cls-6" x="469.23" y="776.79" width="35.4" height="35.7"/>
    <rect class="cls-4" x="516.43" y="784.49" width="13.9" height="14.4"/>
    <rect class="cls-4" x="488.13" y="785.99" width="9.8" height="13.1"/>
    <rect class="cls-4" x="473.23" y="785.99" width="9.8" height="13.1"/>
    <polygon class="cls-10" points="564.13 817.59 597.43 817.59 597.43 786.19 581.13 771.49 564.13 786.19 564.13 817.59"/>
    <polygon class="cls-7" points="564.13 786.19 530.53 786.19 547.13 771.49 581.13 771.49 564.13 786.19"/>
    <rect class="cls-9" x="530.53" y="786.19" width="33.6" height="31.4"/>
    <rect class="cls-9" x="574.83" y="793.69" width="13.2" height="12.7"/>
    <rect class="cls-7" x="548.53" y="794.29" width="9.3" height="11.5"/>
    <rect class="cls-7" x="534.33" y="794.29" width="9.3" height="11.5"/>
    <path class="cls-12" d="m1319.03,731.79v-8.8c25.8-1.9,58-3.1,92.9-3.1s67.1,1.1,92.9,3.1v83.5c-25.8,1.9-58,3.1-92.9,3.1s-67.1-1.1-92.9-3.1v-74.7Z"/>
    <path class="cls-6" d="m1319.23,731.59v-8.8c25.8-1.9,99.6-3.1,84.2-3.1s-15,85.3,0,89.7c-15.4,0-58.4-1.1-84.2-3.1v-74.7Z"/>
    <path class="cls-7" d="m1430.23,738.69h0c2.9,0,5.3.7,5.3,1.5v11.6h-10.6v-11.6c-.1-.8,2.3-1.5,5.3-1.5"/>
    <path class="cls-7" d="m1346.03,738.69h0c2.9,0,5.3.7,5.3,1.5v11.6h-10.6v-11.6c0-.8,2.3-1.5,5.3-1.5"/>
    <path class="cls-7" d="m1402.13,738.69h0c2.9,0,5.3.7,5.3,1.5v11.6h-10.6v-11.6c0-.8,2.4-1.5,5.3-1.5"/>
    <path class="cls-7" d="m1374.03,738.69h0c2.9,0,5.3.7,5.3,1.5v11.6h-10.6v-11.6c0-.8,2.4-1.5,5.3-1.5"/>
    <path class="cls-7" d="m1458.23,738.69h0c2.9,0,5.3.7,5.3,1.5v11.6h-10.6v-11.6c0-.8,2.4-1.5,5.3-1.5"/>
    <path class="cls-7" d="m1485.53,738.69h0c2.9,0,5.3.7,5.3,1.5v11.6h-10.6v-11.6c0-.8,2.4-1.5,5.3-1.5"/>
    <path class="cls-7" d="m1418.53,772.29h0c2.9,0,5.3.7,5.3,1.5v11.6h-10.6v-11.6c0-.8,2.4-1.5,5.3-1.5"/>
    <path class="cls-7" d="m1388.13,772.29h0c2.9,0,5.3.7,5.3,1.5v11.6h-10.6v-11.6c0-.8,2.4-1.5,5.3-1.5"/>
    <path class="cls-7" d="m1360.43,772.29h0c2.9,0,5.3.7,5.3,1.5v11.6h-10.6v-11.6c0-.8,2.3-1.5,5.3-1.5"/>
    <path class="cls-7" d="m1332.73,772.29h0c2.9,0,5.3.7,5.3,1.5v11.6h-10.6v-11.6c-.1-.8,2.3-1.5,5.3-1.5"/>
    <path class="cls-7" d="m1474.93,772.29h0c2.9,0,5.3.7,5.3,1.5v11.6h-10.6v-11.6c0-.8,2.3-1.5,5.3-1.5"/>
    <path class="cls-7" d="m1444.73,772.29h0c6.2,0,11.2,1.9,11.2,4.1v33l-22.4.6v-33.6c0-2.3,5-4.1,11.2-4.1"/>
    <polygon class="cls-10" points="1233.83 779.39 1270.73 779.39 1270.73 737.09 1252.63 717.29 1233.83 737.09 1233.83 779.39"/>
    <polygon class="cls-7" points="1233.83 737.09 1196.63 737.09 1215.03 717.29 1252.63 717.29 1233.83 737.09"/>
    <rect class="cls-9" x="1196.63" y="737.09" width="37.2" height="42.3"/>
    <rect class="cls-9" x="1245.73" y="747.19" width="14.6" height="17.1"/>
    <rect class="cls-7" x="1216.53" y="747.99" width="10.3" height="15.6"/>
    <rect class="cls-7" x="1221.53" y="754.19" width="14.3" height="19.1"/>
    <polygon class="cls-12" points="940.13 504.09 957.03 625.89 923.03 625.89 940.13 504.09"/>
    <polygon class="cls-7" points="940.03 502.39 939.83 624.19 922.83 624.19 940.03 502.39"/>
    <rect class="cls-7" x="907.43" y="685.19" width="32.6" height="110"/>
    <path class="cls-17" d="m940.03,675.39h-22.8c-5.4,0-9.8,4.4-9.8,9.8h32.6v-9.8Z"/>
    <rect class="cls-7" x="914.63" y="632.09" width="25.4" height="43.3"/>
    <path class="cls-17" d="m940.03,622.29h-13.9c-6.3,0-11.5,4.4-11.5,9.8h25.4v-9.8Z"/>
    <rect class="cls-12" x="940.03" y="685.19" width="32.6" height="110"/>
    <rect class="cls-12" x="929.93" y="747.99" width="42.7" height="47.2"/>
    <rect class="cls-7" x="856.43" y="747.99" width="73.5" height="47.2"/>
    <path class="cls-6" d="m940.03,675.39h22.8c5.4,0,9.8,4.4,9.8,9.8h-32.6v-9.8Z"/>
    <rect class="cls-12" x="940.03" y="632.09" width="26.7" height="43.3"/>
    <path class="cls-6" d="m940.03,622.29h14.6c6.7,0,12.1,4.4,12.1,9.8h-26.7v-9.8h0Z"/>
    <path class="cls-6" d="m956.23,695.19h0c3.4,0,6.2,2.8,6.2,6.2v18.6h-12.4v-18.6c0-3.4,2.8-6.2,6.2-6.2"/>
    <path class="cls-17" d="m923.73,695.19h0c3.4,0,6.2,2.8,6.2,6.2v18.6h-12.4v-18.6c0-3.4,2.8-6.2,6.2-6.2"/>
    <path class="cls-17" d="m927.33,645.79h0c3.4,0,6.2,1.8,6.2,4v11.9h-12.4v-11.9c0-2.2,2.8-4,6.2-4"/>
    <path class="cls-6" d="m951.23,645.79h0c3.4,0,6.2,1.8,6.2,4v11.9h-12.4v-11.9c0-2.2,2.8-4,6.2-4"/>
    <path class="cls-17" d="m893.13,753.19h0c3.4,0,6.2,1.8,6.2,4v11.9h-12.4v-11.9c0-2.2,2.8-4,6.2-4"/>
    <path class="cls-17" d="m871.63,753.19h0c3.4,0,6.2,1.8,6.2,4v11.9h-12.4v-11.9c0-2.2,2.8-4,6.2-4"/>
    <polygon class="cls-12" points="1166.43 781.79 1204.33 781.79 1204.33 706.39 1185.73 686.19 1166.43 702.79 1166.43 781.79"/>
    <rect class="cls-4" x="1179.53" y="712.89" width="11.7" height="11.7"/>
    <rect class="cls-6" x="1179.53" y="732.59" width="11.7" height="11.7"/>
    <rect class="cls-6" x="1179.53" y="752.29" width="11.7" height="11.7"/>
    <polygon class="cls-6" points="1102.53 781.79 1166.43 781.79 1166.43 702.79 1121.83 686.09 1102.53 706.09 1102.53 781.79"/>
    <rect class="cls-4" x="1116.73" y="712.89" width="11.7" height="11.7"/>
    <rect class="cls-14" x="1116.73" y="732.59" width="11.7" height="11.7"/>
    <rect class="cls-14" x="1116.73" y="752.29" width="11.7" height="11.7"/>
    <rect class="cls-17" x="1140.53" y="712.89" width="11.7" height="11.7"/>
    <rect class="cls-4" x="1140.53" y="732.59" width="11.7" height="11.7"/>
    <rect class="cls-17" x="1140.53" y="752.29" width="11.7" height="11.7"/>
    <polygon class="cls-14" points="1102.53 706.09 1166.43 706.09 1185.73 686.19 1121.83 686.19 1102.53 706.09"/>
    <polygon class="cls-12" points="828.83 803.69 869.23 803.69 869.23 730.19 849.43 710.49 828.83 726.79 828.83 803.69"/>
    <rect class="cls-4" x="842.73" y="736.49" width="12.5" height="11.4"/>
    <rect class="cls-6" x="842.73" y="755.79" width="12.5" height="11.4"/>
    <rect class="cls-6" x="842.73" y="774.99" width="12.5" height="11.4"/>
    <polygon class="cls-17" points="760.83 803.69 828.83 803.69 828.83 726.79 781.33 710.49 760.83 729.89 760.83 803.69"/>
    <rect class="cls-16" x="775.93" y="736.49" width="12.5" height="11.4"/>
    <rect class="cls-16" x="775.93" y="755.79" width="12.5" height="11.4"/>
    <rect class="cls-16" x="775.93" y="774.99" width="12.5" height="11.4"/>
    <rect class="cls-16" x="801.23" y="736.49" width="12.5" height="11.4"/>
    <rect class="cls-16" x="801.23" y="755.79" width="12.5" height="11.4"/>
    <rect class="cls-16" x="801.23" y="774.99" width="12.5" height="11.4"/>
    <polygon class="cls-16" points="760.83 729.89 828.83 729.89 849.43 710.49 781.33 710.49 760.83 729.89"/>
    <rect class="cls-14" x="1016.83" y="710.19" width="50.2" height="32.8"/>
    <polygon class="cls-10" points="1041.43 793.59 1091.63 793.59 1091.63 736.89 1067.03 710.09 1041.43 736.89 1041.43 793.59"/>
    <polygon class="cls-9" points="991.33 793.59 1041.43 793.59 1041.43 736.89 1016.83 710.09 991.33 736.89 991.33 793.59"/>
    <rect class="cls-4" x="1058.83" y="740.19" width="15.5" height="15.5"/>
    <rect class="cls-9" x="1058.83" y="766.29" width="15.5" height="15.5"/>
    <rect class="cls-14" x="1008.63" y="740.19" width="15.5" height="15.5"/>
    <rect class="cls-14" x="1008.63" y="766.29" width="15.5" height="15.5"/>
    <polygon class="cls-12" points="760.93 814.99 799.03 814.99 799.03 769.19 780.43 747.79 760.93 769.19 760.93 814.99"/>
    <polygon class="cls-7" points="760.93 769.19 722.53 769.19 741.53 747.79 780.43 747.79 760.93 769.19"/>
    <rect class="cls-6" x="722.53" y="769.19" width="38.4" height="45.8"/>
    <rect class="cls-6" x="773.83" y="778.99" width="15.1" height="18.6"/>
    <rect class="cls-7" x="743.13" y="780.99" width="10.7" height="16.9"/>
    <rect class="cls-7" x="726.93" y="780.99" width="10.7" height="16.9"/>
    <rect class="cls-14" x="957.83" y="720.29" width="45.6" height="29.8"/>
    <polygon class="cls-12" points="980.23 795.99 1025.73 795.99 1025.73 744.49 1003.43 720.19 980.23 744.49 980.23 795.99"/>
    <polygon class="cls-17" points="934.63 795.99 980.23 795.99 980.23 744.49 957.83 720.19 934.63 744.49 934.63 795.99"/>
    <rect class="cls-4" x="995.93" y="747.49" width="14.1" height="14.1"/>
    <rect class="cls-6" x="995.93" y="771.19" width="14.1" height="14.1"/>
    <rect class="cls-11" x="950.33" y="747.49" width="14.1" height="14.1"/>
    <rect class="cls-11" x="950.33" y="771.19" width="14.1" height="14.1"/>
    <polygon class="cls-12" points="907.33 813.39 944.03 813.39 944.03 757.49 926.03 739.99 907.33 759.29 907.33 813.39"/>
    <rect class="cls-6" x="920.03" y="765.79" width="11.4" height="11.2"/>
    <rect class="cls-4" x="920.03" y="784.59" width="11.4" height="11.2"/>
    <polygon class="cls-6" points="845.43 813.39 907.33 813.39 907.33 752.79 864.13 739.99 845.43 759.29 845.43 813.39"/>
    <rect class="cls-4" x="859.23" y="765.79" width="11.4" height="11.4"/>
    <rect class="cls-4" x="859.23" y="784.89" width="11.4" height="11.4"/>
    <rect class="cls-17" x="882.23" y="765.79" width="11.4" height="11.4"/>
    <rect class="cls-17" x="882.23" y="784.89" width="11.4" height="11.4"/>
    <polygon class="cls-17" points="845.43 759.29 907.33 759.29 926.03 739.99 864.13 739.99 845.43 759.29"/>
    <polygon class="cls-10" points="1106.03 801.69 1154.13 801.69 1154.13 752.79 1130.53 729.89 1106.03 752.79 1106.03 801.69"/>
    <polygon class="cls-7" points="1106.03 752.79 1057.53 752.79 1081.43 729.89 1130.53 729.89 1106.03 752.79"/>
    <rect class="cls-9" x="1057.53" y="752.79" width="48.6" height="48.9"/>
    <rect class="cls-9" x="1121.53" y="764.49" width="19" height="19.8"/>
    <rect class="cls-7" x="1083.43" y="765.39" width="13.5" height="18"/>
    <rect class="cls-7" x="1063.03" y="765.39" width="13.5" height="18"/>
    <polygon class="cls-12" points="1054.73 812.29 1089.73 812.29 1089.73 776.59 1072.63 759.89 1054.73 776.59 1054.73 812.29"/>
    <polygon class="cls-7" points="1054.73 776.59 1019.33 776.59 1036.83 759.89 1072.63 759.89 1054.73 776.59"/>
    <rect class="cls-6" x="1019.33" y="776.59" width="35.4" height="35.7"/>
    <rect class="cls-4" x="1066.53" y="784.19" width="13.9" height="14.4"/>
    <rect class="cls-4" x="1038.33" y="785.79" width="9.8" height="13.1"/>
    <rect class="cls-4" x="1023.43" y="785.79" width="9.8" height="13.1"/>
    <polygon class="cls-12" points="1189.53 808.09 1247.73 808.09 1247.73 748.89 1219.23 721.19 1189.53 748.89 1189.53 808.09"/>
    <polygon class="cls-7" points="1189.53 748.89 1130.73 748.89 1159.73 721.19 1219.23 721.19 1189.53 748.89"/>
    <rect class="cls-6" x="1130.73" y="748.89" width="58.8" height="59.3"/>
    <rect class="cls-4" x="1209.13" y="761.49" width="23" height="24"/>
    <rect class="cls-4" x="1162.13" y="764.09" width="16.3" height="21.8"/>
    <rect class="cls-4" x="1137.43" y="764.09" width="16.3" height="21.8"/>
    <rect class="cls-7" x="1004.53" y="789.59" width="1.2" height="24.9"/>
    <rect class="cls-16" x="1003.43" y="789.59" width="1.2" height="24.9"/>
    <path class="cls-15" d="m1018.43,778.99c0,7.8-6,14.1-13.3,14.1-4.9-9.7-5.1-19.1,0-28.3,7.4.1,13.3,6.4,13.3,14.2"/>
    <path class="cls-14" d="m1005.13,764.89c-5,8.8-5.2,18.2,0,28.3-7.4,0-13.3-6.3-13.3-14.1s6-14.2,13.3-14.2"/>
    <rect class="cls-7" x="979.93" y="793.09" width="1.4" height="30.3"/>
    <rect class="cls-16" x="978.53" y="793.09" width="1.4" height="30.3"/>
    <path class="cls-15" d="m996.83,780.09c0,9.5-7.3,17.2-16.2,17.2-6.7-11-6.6-22.5,0-34.4,9,0,16.2,7.7,16.2,17.2"/>
    <path class="cls-14" d="m980.63,762.89c-6,12.5-6.1,24,0,34.4-9,0-16.2-7.7-16.2-17.2s7.2-17.2,16.2-17.2"/>
    <rect class="cls-7" x="955.23" y="795.19" width=".9" height="19.4"/>
    <rect class="cls-16" x="954.33" y="795.19" width=".9" height="19.4"/>
    <path class="cls-15" d="m966.03,786.89c0,6.1-4.6,11-10.4,11-5.9-7.3-5.9-14.7,0-22,5.7,0,10.4,5,10.4,11"/>
    <path class="cls-14" d="m955.63,775.89c-3.1,7.3-3.1,14.7,0,22-5.7,0-10.4-4.9-10.4-11s4.7-11,10.4-11"/>
    <rect class="cls-7" x="1876.63" y="760.29" width=".8" height="16.9"/>
    <rect class="cls-16" x="1875.83" y="760.29" width=".8" height="16.9"/>
    <path class="cls-15" d="m1886.03,753.09c0,5.3-4,9.6-9,9.6-5.1-6.4-5.1-12.8,0-19.1,5,0,9,4.2,9,9.5"/>
    <path class="cls-14" d="m1877.03,743.59c-2.7,6.4-2.7,12.8,0,19.1-5,0-9-4.3-9-9.6-.1-5.3,4-9.5,9-9.5"/>
    <rect class="cls-7" x="430.03" y="738.79" width="1.2" height="26.4"/>
    <rect class="cls-16" x="428.83" y="738.79" width="1.2" height="26.4"/>
    <path class="cls-15" d="m444.73,727.49c0,8.3-6.3,15-14.1,15-5.8-9.6-5.7-19.6,0-30,7.8,0,14.1,6.7,14.1,15"/>
    <path class="cls-14" d="m430.63,712.49c-5.2,10.9-5.3,20.9,0,30-7.8,0-14.1-6.7-14.1-15s6.3-15,14.1-15"/>
    <rect class="cls-7" x="1896.23" y="760.39" width="1.2" height="26.4"/>
    <rect class="cls-16" x="1895.03" y="760.39" width="1.2" height="26.4"/>
    <path class="cls-15" d="m1911.03,749.09c0,8.3-6.3,15-14.1,15-5.8-9.6-5.7-19.6,0-30,7.7,0,14.1,6.8,14.1,15"/>
    <path class="cls-14" d="m1896.83,734.09c-5.2,10.9-5.3,20.9,0,30-7.8,0-14.1-6.7-14.1-15s6.3-15,14.1-15"/>
    <rect class="cls-7" x="402.63" y="746.09" width=".8" height="16.9"/>
    <rect class="cls-16" x="401.83" y="746.09" width=".8" height="16.9"/>
    <path class="cls-15" d="m412.03,738.89c0,5.3-4,9.6-9,9.6-5.1-6.4-5.1-12.8,0-19.1,5-.1,9,4.2,9,9.5"/>
    <path class="cls-14" d="m403.03,729.29c-2.7,6.4-2.7,12.8,0,19.1-5,0-9-4.3-9-9.6s4-9.5,9-9.5"/>
    <rect class="cls-7" x="1854.63" y="747.89" width="1.5" height="32.4"/>
    <rect class="cls-16" x="1853.13" y="747.89" width="1.5" height="32.4"/>
    <path class="cls-15" d="m1872.73,734.09c0,10.1-7.8,18.4-17.3,18.4-7.1-11.7-7-24,0-36.7,9.5-.1,17.3,8.1,17.3,18.3"/>
    <path class="cls-14" d="m1855.43,715.69c-6.4,13.3-6.5,25.6,0,36.7-9.6,0-17.3-8.2-17.3-18.4s7.7-18.3,17.3-18.3"/>
    <rect class="cls-7" x="326.63" y="760.89" width="1" height="21.7"/>
    <rect class="cls-16" x="325.63" y="760.89" width="1" height="21.7"/>
    <path class="cls-15" d="m338.73,751.69c0,6.8-5.2,12.3-11.6,12.3-4.2-8.4-4.4-16.6,0-24.6,6.4,0,11.6,5.5,11.6,12.3"/>
    <path class="cls-14" d="m327.13,739.39c-4.3,7.7-4.5,15.9,0,24.6-6.4,0-11.6-5.5-11.6-12.3s5.2-12.3,11.6-12.3"/>
    <rect class="cls-7" x="305.23" y="763.89" width="1.2" height="26.4"/>
    <rect class="cls-16" x="303.93" y="763.89" width="1.2" height="26.4"/>
    <path class="cls-15" d="m319.93,752.69c0,8.3-6.3,15-14.1,15-5.8-9.6-5.7-19.6,0-30,7.8,0,14.1,6.7,14.1,15"/>
    <path class="cls-14" d="m305.83,737.69c-5.2,10.9-5.3,20.9,0,30-7.8,0-14.1-6.7-14.1-15-.1-8.3,6.3-15,14.1-15"/>
    <rect class="cls-7" x="283.63" y="765.79" width=".8" height="16.9"/>
    <rect class="cls-16" x="282.83" y="765.79" width=".8" height="16.9"/>
    <path class="cls-15" d="m293.03,758.59c0,5.3-4,9.6-9,9.6-5.1-6.4-5.1-12.8,0-19.1,5-.1,9,4.2,9,9.5"/>
    <path class="cls-14" d="m284.03,748.99c-2.7,6.4-2.7,12.8,0,19.1-5,0-9-4.3-9-9.6s4-9.5,9-9.5"/>
    <rect class="cls-7" x="1558.23" y="738.19" width="1" height="22.1"/>
    <rect class="cls-16" x="1557.13" y="738.19" width="1" height="22.1"/>
    <path class="cls-15" d="m1570.53,728.79c0,6.9-5.3,12.6-11.8,12.6-4.3-8.6-4.5-17,0-25.1,6.5-.1,11.8,5.6,11.8,12.5"/>
    <path class="cls-14" d="m1558.73,716.19c-4.4,7.9-4.6,16.2,0,25.1-6.5,0-11.8-5.6-11.8-12.6-.1-6.8,5.2-12.5,11.8-12.5"/>
    <rect class="cls-7" x="1536.23" y="741.29" width="1.3" height="27"/>
    <rect class="cls-16" x="1535.03" y="741.29" width="1.3" height="27"/>
    <path class="cls-15" d="m1551.33,729.79c0,8.5-6.5,15.3-14.4,15.3-5.9-9.8-5.9-20,0-30.6,7.9,0,14.4,6.8,14.4,15.3"/>
    <path class="cls-14" d="m1536.93,714.49c-5.4,11.1-5.4,21.3,0,30.6-8,0-14.4-6.9-14.4-15.3-.1-8.5,6.4-15.3,14.4-15.3"/>
    <rect class="cls-7" x="1312.93" y="794.59" width="1" height="22.1"/>
    <rect class="cls-16" x="1311.93" y="794.59" width="1" height="22.1"/>
    <path class="cls-15" d="m1325.33,785.19c0,6.9-5.3,12.6-11.8,12.6-4.3-8.6-4.5-17,0-25.1,6.5-.1,11.8,5.5,11.8,12.5"/>
    <path class="cls-14" d="m1313.53,772.59c-4.4,7.9-4.6,16.2,0,25.1-6.5,0-11.8-5.6-11.8-12.6-.1-6.9,5.2-12.5,11.8-12.5"/>
    <rect class="cls-7" x="1333.03" y="797.29" width="1.4" height="29.8"/>
    <rect class="cls-16" x="1331.63" y="797.29" width="1.4" height="29.8"/>
    <path class="cls-15" d="m1349.63,784.59c0,9.3-7.1,16.9-15.9,16.9-6.6-10.8-6.5-22.1,0-33.8,8.8,0,15.9,7.6,15.9,16.9"/>
    <path class="cls-14" d="m1333.73,767.69c-5.9,12.3-6,23.6,0,33.8-8.8,0-15.9-7.6-15.9-16.9s7.1-16.9,15.9-16.9"/>
    <polygon class="cls-12" points="1247.93 815.99 1285.13 815.99 1285.13 778.19 1266.83 760.49 1247.93 778.19 1247.93 815.99"/>
    <polygon class="cls-7" points="1247.93 778.19 1210.33 778.19 1228.93 760.49 1266.83 760.49 1247.93 778.19"/>
    <rect class="cls-6" x="1210.33" y="778.19" width="37.5" height="37.8"/>
    <rect class="cls-6" x="1260.43" y="786.19" width="14.7" height="15.3"/>
    <rect class="cls-4" x="1230.43" y="787.89" width="10.4" height="13.9"/>
    <rect class="cls-17" x="1214.63" y="787.89" width="10.4" height="13.9"/>
  </g>
  <g>
    <polygon class="cls-5" points="1797.43 765.53 1738.3 765.52 1739.8 735.48 1798.92 735.48 1797.43 765.53"/>
    <g>
      <polygon class="cls-2" points="1751.37 750.14 1740.82 750.15 1741.56 737.11 1752.1 737.1 1751.37 750.14"/>
      <polygon class="cls-2" points="1762.64 750.13 1752.09 750.14 1752.82 737.1 1763.37 737.09 1762.64 750.13"/>
      <polygon class="cls-2" points="1773.91 750.12 1763.36 750.13 1764.09 737.09 1774.64 737.09 1773.91 750.12"/>
      <polygon class="cls-2" points="1785.17 750.11 1774.63 750.12 1775.36 737.09 1785.9 737.08 1785.17 750.11"/>
      <polygon class="cls-2" points="1796.44 750.08 1785.9 750.09 1786.63 737.05 1797.17 737.05 1796.44 750.08"/>
      <polygon class="cls-2" points="1750.6 763.95 1740.05 763.96 1740.78 750.92 1751.33 750.92 1750.6 763.95"/>
      <polygon class="cls-2" points="1761.86 763.95 1751.32 763.95 1752.05 750.92 1762.6 750.91 1761.86 763.95"/>
      <polygon class="cls-2" points="1773.13 763.94 1762.58 763.94 1763.32 750.91 1773.86 750.9 1773.13 763.94"/>
      <polygon class="cls-2" points="1784.52 763.83 1773.98 764.04 1774.46 750.99 1785 750.78 1784.52 763.83"/>
      <polygon class="cls-2" points="1795.67 763.9 1785.12 763.9 1785.85 750.87 1796.4 750.86 1795.67 763.9"/>
    </g>
  </g>
  <g>
    <polygon class="cls-5" points="1724.5 765.53 1665.37 765.52 1666.87 735.48 1725.99 735.48 1724.5 765.53"/>
    <g>
      <polygon class="cls-2" points="1678.44 750.14 1667.89 750.15 1668.62 737.11 1679.17 737.1 1678.44 750.14"/>
      <polygon class="cls-2" points="1689.71 750.13 1679.16 750.14 1679.89 737.1 1690.44 737.09 1689.71 750.13"/>
      <polygon class="cls-2" points="1700.98 750.12 1690.43 750.13 1691.16 737.09 1701.71 737.09 1700.98 750.12"/>
      <polygon class="cls-2" points="1712.24 750.11 1701.7 750.12 1702.43 737.09 1712.97 737.08 1712.24 750.11"/>
      <polygon class="cls-2" points="1723.51 750.08 1712.96 750.09 1713.7 737.05 1724.24 737.05 1723.51 750.08"/>
      <polygon class="cls-2" points="1677.67 763.95 1667.12 763.96 1667.85 750.92 1678.4 750.92 1677.67 763.95"/>
      <polygon class="cls-2" points="1688.93 763.95 1678.39 763.95 1679.12 750.92 1689.66 750.91 1688.93 763.95"/>
      <polygon class="cls-2" points="1700.2 763.94 1689.65 763.94 1690.39 750.91 1700.93 750.9 1700.2 763.94"/>
      <polygon class="cls-2" points="1711.59 763.83 1701.05 764.04 1701.53 750.99 1712.07 750.78 1711.59 763.83"/>
      <polygon class="cls-2" points="1722.74 763.9 1712.19 763.9 1712.92 750.87 1723.47 750.86 1722.74 763.9"/>
    </g>
  </g>
  <g>
    <polygon class="cls-5" points="1767.72 788.76 1698.57 788.76 1700.31 753.62 1769.47 753.62 1767.72 788.76"/>
    <g>
      <polygon class="cls-1" points="1713.85 770.77 1701.51 770.78 1702.37 755.53 1714.71 755.52 1713.85 770.77"/>
      <polygon class="cls-1" points="1727.03 770.76 1714.69 770.77 1715.55 755.52 1727.89 755.51 1727.03 770.76"/>
      <polygon class="cls-1" points="1740.21 770.75 1727.87 770.76 1728.73 755.51 1741.07 755.5 1740.21 770.75"/>
      <polygon class="cls-1" points="1753.39 770.74 1741.05 770.75 1741.91 755.49 1754.25 755.49 1753.39 770.74"/>
      <polygon class="cls-1" points="1766.57 770.7 1754.24 770.71 1755.09 755.46 1767.43 755.45 1766.57 770.7"/>
      <polygon class="cls-1" points="1712.94 786.92 1700.61 786.93 1701.46 771.68 1713.8 771.67 1712.94 786.92"/>
      <polygon class="cls-1" points="1726.12 786.91 1713.79 786.92 1714.64 771.67 1726.98 771.66 1726.12 786.91"/>
      <polygon class="cls-1" points="1739.3 786.9 1726.97 786.91 1727.82 771.66 1740.16 771.65 1739.3 786.9"/>
      <polygon class="cls-1" points="1752.49 786.89 1740.15 786.9 1741 771.65 1753.34 771.64 1752.49 786.89"/>
      <polygon class="cls-1" points="1765.67 786.86 1753.33 786.87 1754.18 771.62 1766.52 771.61 1765.67 786.86"/>
    </g>
  </g>
  <g>
    <polygon class="cls-5" points="1679 788.76 1609.84 788.76 1611.58 753.62 1680.74 753.62 1679 788.76"/>
    <g>
      <polygon class="cls-1" points="1625.12 770.77 1612.79 770.78 1613.64 755.53 1625.98 755.52 1625.12 770.77"/>
      <polygon class="cls-1" points="1638.3 770.76 1625.97 770.77 1626.82 755.52 1639.16 755.51 1638.3 770.76"/>
      <polygon class="cls-1" points="1651.48 770.75 1639.15 770.76 1640 755.51 1652.34 755.5 1651.48 770.75"/>
      <polygon class="cls-1" points="1664.66 770.74 1652.33 770.75 1653.18 755.49 1665.52 755.49 1664.66 770.74"/>
      <polygon class="cls-1" points="1677.85 770.7 1665.51 770.71 1666.36 755.46 1678.7 755.45 1677.85 770.7"/>
      <polygon class="cls-1" points="1624.22 786.92 1611.88 786.93 1612.74 771.68 1625.07 771.67 1624.22 786.92"/>
      <polygon class="cls-1" points="1637.4 786.91 1625.06 786.92 1625.92 771.67 1638.25 771.66 1637.4 786.91"/>
      <polygon class="cls-1" points="1650.58 786.9 1638.24 786.91 1639.1 771.66 1651.43 771.65 1650.58 786.9"/>
      <polygon class="cls-1" points="1663.76 786.89 1651.42 786.9 1652.28 771.65 1664.61 771.64 1663.76 786.89"/>
      <polygon class="cls-1" points="1676.94 786.86 1664.6 786.87 1665.46 771.62 1677.79 771.61 1676.94 786.86"/>
    </g>
  </g>
  <g>
    <polygon class="cls-5" points="1622.33 820.7 1533.61 820.7 1535.85 775.61 1624.57 775.61 1622.33 820.7"/>
    <g>
      <polygon class="cls-3" points="1553.22 797.61 1537.39 797.62 1538.49 778.06 1554.32 778.05 1553.22 797.61"/>
      <polygon class="cls-3" points="1570.13 797.6 1554.3 797.61 1555.4 778.04 1571.22 778.03 1570.13 797.6"/>
      <polygon class="cls-3" points="1587.04 797.58 1571.21 797.6 1572.31 778.03 1588.13 778.02 1587.04 797.58"/>
      <polygon class="cls-3" points="1603.94 797.57 1588.12 797.58 1589.21 778.02 1605.04 778.01 1603.94 797.57"/>
      <polygon class="cls-3" points="1620.85 797.52 1605.03 797.54 1606.12 777.97 1621.95 777.96 1620.85 797.52"/>
      <polygon class="cls-3" points="1552.06 818.34 1536.23 818.35 1537.33 798.79 1553.15 798.77 1552.06 818.34"/>
      <polygon class="cls-3" points="1568.96 818.33 1553.14 818.34 1554.23 798.77 1570.06 798.76 1568.96 818.33"/>
      <polygon class="cls-3" points="1585.87 818.31 1570.05 818.32 1571.14 798.76 1586.97 798.75 1585.87 818.31"/>
      <polygon class="cls-3" points="1602.78 818.3 1586.95 818.31 1588.05 798.75 1603.88 798.73 1602.78 818.3"/>
      <polygon class="cls-3" points="1619.69 818.25 1603.86 818.26 1604.96 798.7 1620.79 798.69 1619.69 818.25"/>
    </g>
  </g>
  <g>
    <polygon class="cls-5" points="1743.85 820.7 1655.13 820.7 1657.37 775.61 1746.09 775.61 1743.85 820.7"/>
    <g>
      <polygon class="cls-3" points="1674.74 797.61 1658.91 797.62 1660.01 778.06 1675.83 778.05 1674.74 797.61"/>
      <polygon class="cls-3" points="1691.64 797.6 1675.82 797.61 1676.91 778.04 1692.74 778.03 1691.64 797.6"/>
      <polygon class="cls-3" points="1708.55 797.58 1692.73 797.6 1693.82 778.03 1709.65 778.02 1708.55 797.58"/>
      <polygon class="cls-3" points="1725.46 797.57 1709.63 797.58 1710.73 778.02 1726.56 778.01 1725.46 797.57"/>
      <polygon class="cls-3" points="1742.37 797.52 1726.54 797.54 1727.64 777.97 1743.47 777.96 1742.37 797.52"/>
      <polygon class="cls-3" points="1673.57 818.34 1657.75 818.35 1658.84 798.79 1674.67 798.77 1673.57 818.34"/>
      <polygon class="cls-3" points="1690.48 818.33 1674.65 818.34 1675.75 798.77 1691.58 798.76 1690.48 818.33"/>
      <polygon class="cls-3" points="1707.39 818.31 1691.56 818.32 1692.66 798.76 1708.49 798.75 1707.39 818.31"/>
      <polygon class="cls-3" points="1724.3 818.3 1708.47 818.31 1709.57 798.75 1725.4 798.73 1724.3 818.3"/>
      <polygon class="cls-3" points="1741.21 818.25 1725.38 818.26 1726.48 798.7 1742.31 798.69 1741.21 818.25"/>
    </g>
  </g>
</svg>