<?xml version="1.0" encoding="UTF-8"?>
<svg id="Laag_1" data-name="Laag 1" xmlns="http://www.w3.org/2000/svg" width="2221.8" height="823.7" viewBox="0 0 2221.8 823.7">
  <defs>
    <style>
      .cls-1 {
        fill: #3dbaec;
        stroke-width: .57px;
      }

      .cls-1, .cls-2, .cls-3 {
        stroke: #fff;
        stroke-miterlimit: 10;
      }

      .cls-4 {
        fill: #f9ba17;
      }

      .cls-5 {
        fill: #f9ba15;
      }

      .cls-6 {
        fill: #fff;
      }

      .cls-7 {
        fill: #9dd2f3;
      }

      .cls-8 {
        fill: #31647e;
      }

      .cls-9, .cls-3 {
        fill: #8cc4de;
      }

      .cls-10 {
        fill: #a5d6cc;
      }

      .cls-11 {
        fill: #dbeeea;
      }

      .cls-12 {
        fill: #dbf0fd;
      }

      .cls-13 {
        fill: #d8eefd;
      }

      .cls-14 {
        fill: #a1c745;
      }

      .cls-15 {
        fill: #27726f;
      }

      .cls-16 {
        fill: #2a827f;
      }

      .cls-17 {
        fill: #2a586f;
      }

      .cls-18, .cls-2 {
        fill: #4793ba;
      }

      .cls-2 {
        stroke-width: .45px;
      }

      .cls-3 {
        stroke-width: .85px;
      }
    </style>
  </defs>
  <g>
    <path class="cls-9" d="m347.22,710.95c.16-.07.4-.06.49-.21,12.37-22.31,38.38-11.88,42.52,2.87-9.77-47.23,59.03-13.14,57.49-15.59-12.2-147.71,158.51-100.61,166.59-47.34-5.16-43.9,47.42-46.24,70.92-16.56-16.3-47.25,96.36-75.79,92.66-.83,14.48-16.56,64.84,10.95,50.94,39.92,59.1-71.7,98.5-40.4,115.64-3.64,9.42,14.17,15.91,30.45,15.61,46.62,1.74-1.81,3.64-3.5,5.73-5.04,1.73-5.55,4.02-11.03,7.23-16.13,4.13-6.68,9.98-12.52,18.24-15.99,8.09-3.48,17.55-4.03,26.5-2.5,15.83,2.64,33.55,11.54,38.02,24.89.34,1.53.69,3.06,1.03,4.59.26.76,1.2,1.08,2.06.99-.51-3.39-.8-6.78-.87-10.14-.08-3.52.12-7.1.64-10.67.59-10.11,3.7-20.15,9.18-29.28,7.57-12.52,19.96-23.5,36.3-28.51,18.24-5.7,39.06-2.92,55.57,5.15,17.72,8.62,30.11,23.23,33.55,39.64,2.08,9.71.4,18.9-2.86,27.87,3.55,8.13,5.89,16.61,6.45,25.12,2-.35,4.01-.54,6.03-.54,1.71-5.36,3.95-10.64,7.05-15.56,4.13-6.68,9.98-12.52,18.24-15.99,8.09-3.48,18.47-5.74,27.41-4.21,15.83,2.64,34.9,9.44,41.06,26.74-3.1-15.02-.17-30.87,8.09-44.64,7.57-12.52,19.96-23.5,36.3-28.51,13.69-4.28,28.82-3.78,42.51.14-3.04-8.42-4.66-17.18-4.83-25.71-.34-15.58,4.65-32.4,19.79-42.97,16-11.26,38.94-11.64,58.32-6.26,61.4,17.05,68.09,68.63,66.9,77.52,33.91-53.45,89.51-12.39,94.31-4.93,3.3-58.3,28.4-80.13,64.82-79.77-12.24-26.69-45.04-57.38-85.52-22.57-34-94.8-141.6-133-270.4-114.4,13.4-23.1,47.1-186.9-112.1-164.5,22.4-108.5-199.9-152.8-240.1-51.3-7.1-35.1-67.5-44.5-69,5.6-9.05-178.99-219.78-104.52-219.16-30.22-17.3-64.37-239.78-117.6-274.14,29.02-18.31-64.89-113.82-42.63-132.31-9.31,26.01-100.2-64.56-121.46-104.29-97.19C185.43,83.5,167.53-.7,53.03,0,33.03.1,15.63,5.1.43,12.4v711c.8-.5,1.7-1,2.7-1.5,6.2-2.7,13.48-2.1,19.9-.6,21.83,5.1,33.1,25.5,32.7,23.7-.3-1.7-5.92-8.9-4.89-33.62s24.31-41.96,48.02-42.41,50.18,24.82,52.23,36.92c.3-14.25,5.03-31.99,11.13-43.69,6.7-12.8,17.7-25.7,33-29.7,15.6-4.1,31.3,3.5,41.7,14.2,11.8,12.1,18.6,28.2,22.4,44,3.7,15.2,5.1,31.7,1.9,47.1-.4,1.8,2.4,2.6,3,.8,3.5-11.7,8.6-23.4,16.3-33.2,6.5-8.2,15.6-15.4,26.8-16.4,12.3-1.2,25,4.4,33.2,12.8,2.75,2.8,4.95,5.88,6.69,9.15Z"/>
    <path class="cls-9" d="m2156.53,604.7c-18.5-150.3-231.3-155.9-242-42.9-5.38-40.01-121.45-91.51-210.9,2.66,4.77,1.33,9.37,3.06,13.67,5.16,17.72,8.62,30.11,23.23,33.55,39.64,3.45,16.08-3.43,30.75-10.7,45.29,6.41-4.8,13.8-8.7,22.09-11.24,20.7-6.47,44.32-3.31,63.06,5.84,20.11,9.79,34.17,26.36,38.07,44.98,5.08,23.67-17.57,68.81-16.21,68.02,12.69-7.42,56.43,26.99,57.6,25.09,4.69-7.89,12.1-14.99,22.65-17.99,8.83-2.55,18.16-2.03,26.7.49-1.43-7.19-3.27-14.35-4.09-21.63-1-9.4.3-18.8,2.6-28,4-15.9,11.4-32.6,25.9-44.2,13.5-10.7,33.8-14.9,51.4-8.9,16.2,5.5,27.1,18.3,33.2,31.3,6.3,13.5,12.21,34.46,7,48.6,41.21-33.01,85.12-8.5,91.8,21.9,24.05-41.74,57.2-11.8,58.2-11.1v-178c-16.2-7.6-40.2.2-63.6,25Z"/>
  </g>
  <g>
    <g>
      <g>
        <path class="cls-9" d="m1955.53,353.1h-6.4l8.8,45.5c.1.9.9,1.6,1.8,1.6h3.5c1.3,0,1.9-.4,1.6-1.9l-9.3-45.2Z"/>
        <g>
          <path class="cls-9" d="m1877.13,312.6l11.3,33.5h6.6l-16.5-49.1c-.3-.7-.7-1-1.5-1h-1.6c-.6,0-1.2.4-1.3,1l-20.9,101.4c-.3,1.5.3,1.9,1.6,1.9h3.5c.9,0,1.6-.7,1.8-1.6l16.6-86.1h.4Z"/>
          <path class="cls-9" d="m1943.93,297c-.1-.6-.7-1-1.3-1h-1.6c-.7,0-1.2.3-1.5,1l-30.4,90.2h-.3l-11.4-34.1h-6.6l16,47.4c.3,1,1.2,1.2,1.9,1.2h.6c.9,0,1.8-.3,2.1-1.2l29.7-88h.3l6.5,33.5h6.3l-10.3-49Z"/>
        </g>
      </g>
      <g>
        <path class="cls-6" d="m457.23,346.1h6v-46.7c0-1-.7-1.9-1.9-1.9h-3.1c-1,0-1.9.9-1.9,1.9v46.8h.9v-.1Z"/>
        <path class="cls-6" d="m457.23,353.1h-.9v45.2c0,1,.9,1.9,1.9,1.9h3.1c1.2,0,1.9-.9,1.9-1.9v-45.2h-6Z"/>
      </g>
      <g>
        <path class="cls-6" d="m671.93,346.1h4.1v-46.8c0-1-.9-1.9-1.8-1.9h-3.2c-1,0-1.9.9-1.9,1.9v46.8h2.8Z"/>
        <path class="cls-6" d="m722.93,394.1h-46.9v-41h-6.9v45.2c0,1,.9,1.9,1.9,1.9h51.9c1,0,1.9-.6,1.9-1.6v-2.6c0-1-.1-1.9-1.9-1.9Z"/>
      </g>
      <g>
        <path class="cls-6" d="m968.73,346.1h6.1v-46.8c0-1-.9-1.9-1.9-1.9h-3.3c-1,0-1.9.9-1.9,1.9v46.8h1Z"/>
        <path class="cls-6" d="m973.73,353.1h-5.9v45.2c0,1,.9,1.9,1.9,1.9h3.1c1,0,2.1-.7,2.1-1.9v-45.2h-1.2Z"/>
      </g>
      <g>
        <path class="cls-6" d="m1074.43,353.1h-5.1v45.2c0,1.2.7,1.9,1.9,1.9h2.9c1.2,0,2.2-.4,2.2-1.9v-45.2h-1.9Z"/>
        <path class="cls-6" d="m1069.33,346.1h15.1l49.7-46.2c.9-.9.7-2.5-.9-2.5h-4.1c-1.3,0-1.8,0-2.9,1l-50,46.6v-45.4c0-1.3-.9-2.2-2.2-2.2h-2.6c-1.3,0-2.2.9-2.2,2.2l.1,46.5h0Z"/>
        <path class="cls-6" d="m1135.83,397.8l-46.7-44.6h-9.5l47,45.7c1.2,1.2,1.9,1.5,3.2,1.5h4.7c1.9-.1,2.2-1.9,1.3-2.6Z"/>
      </g>
      <g>
        <path class="cls-6" d="m1302.43,394.1h-53.8v-41h-7.1v45.2c0,1,.9,1.9,1.9,1.9h58.9c1,0,1.9-.9,1.9-1.9v-2.3c.1-1-.7-1.9-1.8-1.9Z"/>
        <path class="cls-6" d="m1302.43,297.4h-58.9c-1,0-1.9.9-1.9,1.9v46.8h7.1v-42.3h53.8c1,0,1.9-.9,1.9-1.9v-2.5c-.1-1.1-.9-2-2-2Z"/>
      </g>
      <g>
        <path class="cls-9" d="m1490.83,297.4h-63.2c-1,0-1.9.7-1.9,1.9v2.2c0,1.3.4,2.2,1.9,2.2h28.1v42.3h6.9v-42.3h28.2c1.2,0,1.9-.9,1.9-1.9v-2.5c0-1-.7-1.9-1.9-1.9Z"/>
        <path class="cls-9" d="m1460.53,353.1h-4.9v45.2c0,1,.9,1.9,1.9,1.9h2.6c1.5,0,2.4-.9,2.4-1.9v-45.2h-2Z"/>
      </g>
      <g>
        <path class="cls-6" d="m275.13,346.1h19c-1.4-.5-2.8-1-4.2-1.5-14.8-4.8-24.4-10.3-24.4-22.8,0-8.4,6.8-19.5,24.8-19.5,11.3,0,21.2,6.6,21.6,6.9,1.5.9,2.4.4,3.2-.7.3-.6.7-1.3,1.2-1.9,1-1.6,0-2.6-.6-3.1,0,0-10.7-7.5-25.3-7.5-22.9,0-31.7,15-31.7,26-.1,12.5,6.2,19.1,16.4,24.1Z"/>
        <path class="cls-6" d="m309.03,352.9c0,.1-.1.2-.1.2h-15.7c14,5.3,22.3,11.3,22.3,22.7,0,10.7-11.3,19.7-24.7,19.7-14.8,0-25.7-10-27.2-11.3-1.2-1-2.2-.6-3.2.6l-1.3,1.8c-1.2,1.6-.4,2.4.4,3.1,1.9,1.8,13.7,12,31.2,12s32-11.5,32-26.2c0-10.6-5-17.3-13.7-22.6Z"/>
      </g>
      <path class="cls-6" d="m340.63,349c0,29.5,23.8,52.8,53.2,52.8,13.1,0,25.9-4.6,35.9-14.3.7-.7.7-1.9,0-2.5l-2.5-2.5c-.6-.4-1.5-.4-2.4.3-8.8,7.3-18.4,12.3-31,12.3-25.7,0-45.8-20.9-45.8-46.1s20.1-46.4,45.8-46.4c12,0,22.6,4.6,31,12,.9.9,1.6,1,2.5.1l2.4-2.5c.7-.7.6-1.9-.1-2.6-9.6-8.7-20.7-13.7-35.7-13.7-29.5.1-53.3,23.7-53.3,53.1"/>
      <path class="cls-6" d="m529.33,350.6v47.8c0,1,.9,1.9,1.9,1.9h3.1c1.2,0,1.9-.9,1.9-1.9v-99c0-1-.7-1.9-1.9-1.9h-3.1c-1,0-1.9.9-1.9,1.9v45.1"/>
      <g>
        <path class="cls-6" d="m581.33,353.1h-5.7l-20,45.4c-.4,1.2,0,1.8,1,1.8h4.1c1,0,1.8-.7,2.1-1.3l19.9-45.8h-1.4v-.1Z"/>
        <path class="cls-6" d="m649.73,398.5l-44.8-102.3c-.4-.9-1.2-1-1.9-1h-.4c-.7,0-1.5.4-1.8,1l-22.1,49.8h7l17-39.1h.3l39.5,92c.3.6,1,1.3,2.1,1.3h3.8c1.6.1,1.6-.8,1.3-1.7Z"/>
      </g>
      <path class="cls-6" d="m743.93,398.4c0,1.2.7,1.9,1.9,1.9h2.9c1.2,0,2.2-.4,2.2-1.9v-48.4l50.3,48.8c1.2,1.2,1.9,1.5,3.2,1.5h4.7c1.9,0,2.2-1.8,1.3-2.5l-52.8-50.4,51.1-47.5c.9-.9.7-2.5-.9-2.5h-4.1c-1.3,0-1.8,0-2.9,1l-50,46.6v-45.4c0-1.3-.9-2.2-2.2-2.2h-2.6c-1.3,0-2.2.9-2.2,2.2v98.8h.1Z"/>
      <g>
        <path class="cls-6" d="m942.33,297.4h-3.5c-.9,0-1.6.7-1.8,1.6l-24.5,86.1h-.3l-9.5-32h-6.3l14.1,47.6c.3.7.7,1,1.5,1h1.6c.6,0,1.2-.4,1.3-1l29.1-101.4c.2-1.4-.4-1.9-1.7-1.9Z"/>
        <g>
          <path class="cls-6" d="m837.13,346.1h7l-13.5-47.1c-.1-.9-.9-1.6-1.8-1.6h-3.5c-1.3,0-1.9.4-1.6,1.9l13.4,46.8Z"/>
          <path class="cls-6" d="m886.23,297.3c-.3-.9-1.3-1.3-2.2-1.3h-.3c-.9,0-1.9.4-2.2,1.3l-25.9,87.9h-.3l-9.2-32h-7l13.7,47.6c.1.6.7,1,1.3,1h1.6c.7,0,1.2-.3,1.5-1l26.4-89.5h.3l10.3,34.9h6.3l-14.3-48.9Z"/>
        </g>
      </g>
      <path class="cls-6" d="m989.63,390.7c2.5,3.1,9.6,11,22.5,11,17.5,0,28.5-11.9,28.5-32.5v-69.9c0-1-.9-1.9-1.9-1.9h-2.9c-1.2,0-2.1.7-2.1,1.9v70.1c0,17.5-9,26.2-21.5,26.2-9.7,0-14.8-5.9-18.1-9.1-1-1-1.8-.7-2.5,0l-1.9,1.8c-.7.7-.7,1.6-.1,2.4"/>
      <path class="cls-6" d="m1153.13,389.7c1.9,1.8,13.7,12,31.2,12s32-11.5,32-26.2c0-17-12.8-24.1-32.9-31-14.8-4.8-24.4-10.3-24.4-22.8,0-8.4,6.8-19.5,24.8-19.5,11.3,0,21.2,6.6,21.6,6.9,1.5.9,2.4.4,3.2-.7.3-.6.7-1.3,1.2-1.9,1-1.6,0-2.6-.6-3.1,0,0-10.7-7.5-25.3-7.5-22.9,0-31.7,15-31.7,26,0,16.9,11.3,22.9,28.4,28.9,17.8,6,28.5,11.9,28.5,25,0,10.7-11.3,19.7-24.7,19.7-14.8,0-25.7-10-27.2-11.3-1.2-1-2.2-.6-3.2.6l-1.3,1.8c-1.2,1.6-.4,2.4.4,3.1"/>
      <path class="cls-9" d="m1351.63,389.7c1.9,1.8,13.7,12,31.2,12s32-11.5,32-26.2c0-17-12.8-24.1-32.9-31-14.8-4.8-24.4-10.3-24.4-22.8,0-8.4,6.8-19.5,24.8-19.5,11.3,0,21.2,6.6,21.6,6.9,1.5.9,2.4.4,3.2-.7.3-.6.7-1.3,1.2-1.9,1-1.6,0-2.6-.6-3.1,0,0-10.7-7.5-25.3-7.5-22.9,0-31.7,15-31.7,26,0,16.9,11.3,22.9,28.4,28.9,17.8,6,28.5,11.9,28.5,25,0,10.7-11.3,19.7-24.7,19.7-14.8,0-25.7-10-27.2-11.3-1.2-1-2.2-.6-3.2.6l-1.3,1.8c-1.2,1.6-.5,2.4.4,3.1"/>
      <g>
        <path class="cls-9" d="m1576.43,328.9c0,4.2-1,7.8-2.7,11-3.2,3.7-5.9,5.4-8.6,6.2h11.6c3.8-3.9,6.8-11.6,6.8-17.2,0-17.9-14.8-31.4-32.8-31.4h-36.4c-1.2,0-1.9.9-1.9,1.9v99c0,1,.9,1.9,1.9,1.9h2.6c1.5,0,2.4-.9,2.4-1.9l.1-51.1v-43.2h30.9c14.2.1,26.1,10.8,26.1,24.8Z"/>
        <path class="cls-9" d="m1590.43,397.6l-24.9-44.5h-8.3l25.5,45.8c.4.9,1,1.3,2.1,1.3h4.6c1.5.1,1.8-1.4,1-2.6Z"/>
      </g>
      <path class="cls-9" d="m1706.43,353.1h-3.2c-2.1,23.7-22.1,42.1-46.4,42.1-25.7,0-46.4-20.6-46.4-46.3s20.7-46.6,46.4-46.6,45,19.3,46.5,43.7h6.6c-1.5-28-24.4-50.1-53-50.1s-52.9,23.7-52.9,53,23.5,52.8,52.9,52.8,50.8-21.1,52.9-48.6h-3.4Z"/>
    </g>
    <path class="cls-5" d="m1821.53,384c7.4-8.3,12.1-19,13-30.9h387.27v-7.1h-387.07v.1c-.6-11.9-5.1-22.7-12.3-31.3l39-39.1c.8-.8.8-2,0-2.8l-2.2-2.2c-.77-.77-2.03-.77-2.8,0l-38.9,38.9c-8.4-7.7-19.4-12.7-31.6-13.6v-85.5c0-1.1-.9-2-2-2h-3.1c-1.1,0-2,.9-2,2v85.4c-12.4.7-23.5,5.5-32.2,13.2l-39.3-39.3c-.77-.77-2.03-.77-2.8,0l-2.2,2.2c-.77.77-.77,2.03,0,2.8l39.3,39.3c-7.4,8.6-12.2,19.7-12.8,31.8H0v7h1728.93c.9,12.2,5.9,23.1,13.6,31.5l-39.1,39.1c-.77.77-.77,2.03,0,2.8l2.2,2.2c.77.77,2.03.77,2.8,0l39.2-39.2c8.5,7.1,19.3,11.5,31.2,12.1v335.4c0,1.1.9,2,2,2h3.1c1.1,0,2-.9,2-2v-335.2c11.7-.9,22.3-5.4,30.6-12.6l39.9,39.9c.77.77,2.03.77,2.8,0l2.2-2.2c.77-.77.77-2.03,0-2.8l-39.9-39.9Zm-38.9,11.3c-26.9.5-48.6-21.5-47.3-48.6,1.1-23.6,20.1-42.9,43.8-44.2,27.1-1.5,49.5,20.2,49.2,47.1-.3,24.9-20.8,45.2-45.7,45.7Z"/>
  </g>
  <polygon class="cls-9" points="731.23 760.97 588.03 760.85 588.03 792.5 588.03 802 588.03 823.7 731.23 823.7 731.23 760.97"/>
  <g>
    <path class="cls-17" d="m586.43,687.2c21.7-17.9,49.7-27.7,78.9-27.7s57.2,9.8,78.9,27.7c20.5,16.9,32.4,38.9,32.6,60.4h-223c.2-21.4,12.1-43.4,32.6-60.4m156.5,51.4h11.4v-28.6l-.1-.2c-3-4-6.4-7.7-10.2-11.1l-1-1v40.9h-.1Zm-18.5,0h11.4v-46.6l-.3-.2c-3.2-2.3-6.7-4.5-10.2-6.5l-.9-.5v53.8Zm-18.5,0h11.4v-57.4l-.4-.2c-3.3-1.5-6.7-2.9-10.2-4.1l-.8-.3v62Zm-18.5,0h11.4v-64.1l-.5-.1c-3.3-.9-6.7-1.7-10.2-2.3l-.7-.1v66.6Zm-18.5,0h11.4v-67.7l-.6-.1c-3.4-.4-6.8-.6-10.2-.7h-.6v68.5h0Zm-18.6,0h11.4v-68.5h-.6c-3.4.1-6.8.4-10.2.7l-.6.1v67.7h0Zm-18.5,0h11.4v-66.7l-.7.1c-3.4.6-6.9,1.4-10.2,2.3l-.5.1v64.2Zm-18.5,0h11.4v-62l-.8.3c-3.5,1.2-6.9,2.6-10.2,4.1l-.4.2v57.4Zm-18.5,0h11.4v-53.9l-.9.5c-3.5,2-7,4.2-10.2,6.5l-.3.2v46.7Zm-18.5-28.8v28.8h11.4v-41l-1,1c-3.8,3.4-7.2,7.2-10.2,11.1l-.2.1Z"/>
    <polygon class="cls-11" points="547.03 786.4 579.43 786.4 579.43 737.7 563.53 722.5 547.03 739.2 547.03 786.4"/>
    <rect class="cls-4" x="558.23" y="744.9" width="10" height="9.8"/>
    <rect class="cls-4" x="558.23" y="761.3" width="10" height="9.8"/>
    <polygon class="cls-10" points="492.33 786.4 547.03 786.4 547.03 733.6 508.83 722.4 492.33 739.2 492.33 786.4"/>
    <rect class="cls-4" x="504.43" y="744.9" width="10" height="9.9"/>
    <rect class="cls-4" x="504.43" y="761.5" width="10" height="9.9"/>
    <rect class="cls-4" x="524.83" y="744.9" width="10" height="9.9"/>
    <rect class="cls-4" x="524.83" y="761.5" width="10" height="9.9"/>
    <polygon class="cls-18" points="492.33 739.2 547.03 739.2 563.53 722.5 508.83 722.5 492.33 739.2"/>
    <g>
      <path class="cls-14" d="m1962.93,760.1h-121.59c-1.9,0-3.72-.73-5.1-2.03-8.52-8.01-19.73-12.87-32.01-12.87h-411.45c-4.11,0-7.45,3.34-7.45,7.45h0c0,4.11-3.34,7.45-7.45,7.45h-667.8c-4.11,0-7.45,3.34-7.45,7.45v48.7c0,4.11,3.34,7.45,7.45,7.45h1252.85c7.5,0,13.5-6.1,13.5-13.5v-36.6c0-7.5-6.1-13.5-13.5-13.5Z"/>
      <path class="cls-14" d="m528.73,754.3c0-3.2-2.6-5.8-5.8-5.8h-152.4c-9.39,0-17.98,3.77-24.56,10-1.08,1.02-2.5,1.6-3.99,1.6h-82.85c-7.5,0-13.5,6.1-13.5,13.5v36.6c0,7.4,6,13.5,13.5,13.5h360.5c3.2,0,5.8-2.6,5.8-5.8v-52c0-3.2-2.6-5.8-5.8-5.8h-85.1c-3.2,0-5.8-2.6-5.8-5.8h0Z"/>
    </g>
    <polygon class="cls-13" points="504.63 799.5 539.63 799.5 539.63 763.8 522.53 747.2 504.63 763.8 504.63 799.5"/>
    <polygon class="cls-8" points="504.63 763.8 469.23 763.8 486.73 747.2 522.53 747.2 504.63 763.8"/>
    <rect class="cls-7" x="469.23" y="763.8" width="35.4" height="35.7"/>
    <rect class="cls-4" x="516.43" y="771.5" width="13.9" height="14.4"/>
    <rect class="cls-4" x="488.13" y="773" width="9.8" height="13.1"/>
    <rect class="cls-4" x="473.23" y="773" width="9.8" height="13.1"/>
    <polygon class="cls-11" points="564.13 804.6 597.43 804.6 597.43 773.2 581.13 758.5 564.13 773.2 564.13 804.6"/>
    <polygon class="cls-8" points="564.13 773.2 530.53 773.2 547.13 758.5 581.13 758.5 564.13 773.2"/>
    <rect class="cls-10" x="530.53" y="773.2" width="33.6" height="31.4"/>
    <rect class="cls-10" x="574.83" y="780.7" width="13.2" height="12.7"/>
    <rect class="cls-8" x="548.53" y="781.3" width="9.3" height="11.5"/>
    <rect class="cls-8" x="534.33" y="781.3" width="9.3" height="11.5"/>
    <path class="cls-13" d="m1319.03,718.8v-8.8c25.8-1.9,58-3.1,92.9-3.1s67.1,1.1,92.9,3.1v83.5c-25.8,1.9-58,3.1-92.9,3.1s-67.1-1.1-92.9-3.1v-74.7Z"/>
    <path class="cls-7" d="m1319.23,718.6v-8.8c25.8-1.9,99.6-3.1,84.2-3.1s-15,85.3,0,89.7c-15.4,0-58.4-1.1-84.2-3.1v-74.7Z"/>
    <path class="cls-8" d="m1430.23,725.7h0c2.9,0,5.3.7,5.3,1.5v11.6h-10.6v-11.6c-.1-.8,2.3-1.5,5.3-1.5"/>
    <path class="cls-8" d="m1346.03,725.7h0c2.9,0,5.3.7,5.3,1.5v11.6h-10.6v-11.6c0-.8,2.3-1.5,5.3-1.5"/>
    <path class="cls-8" d="m1402.13,725.7h0c2.9,0,5.3.7,5.3,1.5v11.6h-10.6v-11.6c0-.8,2.4-1.5,5.3-1.5"/>
    <path class="cls-8" d="m1374.03,725.7h0c2.9,0,5.3.7,5.3,1.5v11.6h-10.6v-11.6c0-.8,2.4-1.5,5.3-1.5"/>
    <path class="cls-8" d="m1458.23,725.7h0c2.9,0,5.3.7,5.3,1.5v11.6h-10.6v-11.6c0-.8,2.4-1.5,5.3-1.5"/>
    <path class="cls-8" d="m1485.53,725.7h0c2.9,0,5.3.7,5.3,1.5v11.6h-10.6v-11.6c0-.8,2.4-1.5,5.3-1.5"/>
    <path class="cls-8" d="m1418.53,759.3h0c2.9,0,5.3.7,5.3,1.5v11.6h-10.6v-11.6c0-.8,2.4-1.5,5.3-1.5"/>
    <path class="cls-8" d="m1388.13,759.3h0c2.9,0,5.3.7,5.3,1.5v11.6h-10.6v-11.6c0-.8,2.4-1.5,5.3-1.5"/>
    <path class="cls-8" d="m1360.43,759.3h0c2.9,0,5.3.7,5.3,1.5v11.6h-10.6v-11.6c0-.8,2.3-1.5,5.3-1.5"/>
    <path class="cls-8" d="m1332.73,759.3h0c2.9,0,5.3.7,5.3,1.5v11.6h-10.6v-11.6c-.1-.8,2.3-1.5,5.3-1.5"/>
    <path class="cls-8" d="m1474.93,759.3h0c2.9,0,5.3.7,5.3,1.5v11.6h-10.6v-11.6c0-.8,2.3-1.5,5.3-1.5"/>
    <path class="cls-8" d="m1444.73,759.3h0c6.2,0,11.2,1.9,11.2,4.1v33l-22.4.6v-33.6c0-2.3,5-4.1,11.2-4.1"/>
    <polygon class="cls-11" points="1233.83 766.4 1270.73 766.4 1270.73 724.1 1252.63 704.3 1233.83 724.1 1233.83 766.4"/>
    <polygon class="cls-8" points="1233.83 724.1 1196.63 724.1 1215.03 704.3 1252.63 704.3 1233.83 724.1"/>
    <rect class="cls-10" x="1196.63" y="724.1" width="37.2" height="42.3"/>
    <rect class="cls-10" x="1245.73" y="734.2" width="14.6" height="17.1"/>
    <rect class="cls-8" x="1216.53" y="735" width="10.3" height="15.6"/>
    <rect class="cls-8" x="1221.53" y="741.2" width="14.3" height="19.1"/>
    <polygon class="cls-13" points="940.13 491.1 957.03 612.9 923.03 612.9 940.13 491.1"/>
    <polygon class="cls-8" points="940.03 489.4 939.83 611.2 922.83 611.2 940.03 489.4"/>
    <rect class="cls-8" x="907.43" y="672.2" width="32.6" height="110"/>
    <path class="cls-18" d="m940.03,662.4h-22.8c-5.4,0-9.8,4.4-9.8,9.8h32.6v-9.8Z"/>
    <rect class="cls-8" x="914.63" y="619.1" width="25.4" height="43.3"/>
    <path class="cls-18" d="m940.03,609.3h-13.9c-6.3,0-11.5,4.4-11.5,9.8h25.4v-9.8Z"/>
    <rect class="cls-13" x="940.03" y="672.2" width="32.6" height="110"/>
    <rect class="cls-13" x="929.93" y="735" width="42.7" height="47.2"/>
    <rect class="cls-8" x="856.43" y="735" width="73.5" height="47.2"/>
    <path class="cls-7" d="m940.03,662.4h22.8c5.4,0,9.8,4.4,9.8,9.8h-32.6v-9.8Z"/>
    <rect class="cls-13" x="940.03" y="619.1" width="26.7" height="43.3"/>
    <path class="cls-7" d="m940.03,609.3h14.6c6.7,0,12.1,4.4,12.1,9.8h-26.7v-9.8h0Z"/>
    <path class="cls-7" d="m956.23,682.2h0c3.4,0,6.2,2.8,6.2,6.2v18.6h-12.4v-18.6c0-3.4,2.8-6.2,6.2-6.2"/>
    <path class="cls-18" d="m923.73,682.2h0c3.4,0,6.2,2.8,6.2,6.2v18.6h-12.4v-18.6c0-3.4,2.8-6.2,6.2-6.2"/>
    <path class="cls-18" d="m927.33,632.8h0c3.4,0,6.2,1.8,6.2,4v11.9h-12.4v-11.9c0-2.2,2.8-4,6.2-4"/>
    <path class="cls-7" d="m951.23,632.8h0c3.4,0,6.2,1.8,6.2,4v11.9h-12.4v-11.9c0-2.2,2.8-4,6.2-4"/>
    <path class="cls-18" d="m893.13,740.2h0c3.4,0,6.2,1.8,6.2,4v11.9h-12.4v-11.9c0-2.2,2.8-4,6.2-4"/>
    <path class="cls-18" d="m871.63,740.2h0c3.4,0,6.2,1.8,6.2,4v11.9h-12.4v-11.9c0-2.2,2.8-4,6.2-4"/>
    <polygon class="cls-13" points="1166.43 768.8 1204.33 768.8 1204.33 693.4 1185.73 673.2 1166.43 689.8 1166.43 768.8"/>
    <rect class="cls-4" x="1179.53" y="699.9" width="11.7" height="11.7"/>
    <rect class="cls-7" x="1179.53" y="719.6" width="11.7" height="11.7"/>
    <rect class="cls-7" x="1179.53" y="739.3" width="11.7" height="11.7"/>
    <polygon class="cls-7" points="1102.53 768.8 1166.43 768.8 1166.43 689.8 1121.83 673.1 1102.53 693.1 1102.53 768.8"/>
    <rect class="cls-4" x="1116.73" y="699.9" width="11.7" height="11.7"/>
    <rect class="cls-15" x="1116.73" y="719.6" width="11.7" height="11.7"/>
    <rect class="cls-15" x="1116.73" y="739.3" width="11.7" height="11.7"/>
    <rect class="cls-18" x="1140.53" y="699.9" width="11.7" height="11.7"/>
    <rect class="cls-4" x="1140.53" y="719.6" width="11.7" height="11.7"/>
    <rect class="cls-18" x="1140.53" y="739.3" width="11.7" height="11.7"/>
    <polygon class="cls-15" points="1102.53 693.1 1166.43 693.1 1185.73 673.2 1121.83 673.2 1102.53 693.1"/>
    <polygon class="cls-13" points="828.83 790.7 869.23 790.7 869.23 717.2 849.43 697.5 828.83 713.8 828.83 790.7"/>
    <rect class="cls-4" x="842.73" y="723.5" width="12.5" height="11.4"/>
    <rect class="cls-7" x="842.73" y="742.8" width="12.5" height="11.4"/>
    <rect class="cls-7" x="842.73" y="762" width="12.5" height="11.4"/>
    <polygon class="cls-18" points="760.83 790.7 828.83 790.7 828.83 713.8 781.33 697.5 760.83 716.9 760.83 790.7"/>
    <rect class="cls-17" x="775.93" y="723.5" width="12.5" height="11.4"/>
    <rect class="cls-17" x="775.93" y="742.8" width="12.5" height="11.4"/>
    <rect class="cls-17" x="775.93" y="762" width="12.5" height="11.4"/>
    <rect class="cls-17" x="801.23" y="723.5" width="12.5" height="11.4"/>
    <rect class="cls-17" x="801.23" y="742.8" width="12.5" height="11.4"/>
    <rect class="cls-17" x="801.23" y="762" width="12.5" height="11.4"/>
    <polygon class="cls-17" points="760.83 716.9 828.83 716.9 849.43 697.5 781.33 697.5 760.83 716.9"/>
    <rect class="cls-15" x="1016.83" y="697.2" width="50.2" height="32.8"/>
    <polygon class="cls-11" points="1041.43 780.6 1091.63 780.6 1091.63 723.9 1067.03 697.1 1041.43 723.9 1041.43 780.6"/>
    <polygon class="cls-10" points="991.33 780.6 1041.43 780.6 1041.43 723.9 1016.83 697.1 991.33 723.9 991.33 780.6"/>
    <rect class="cls-4" x="1058.83" y="727.2" width="15.5" height="15.5"/>
    <rect class="cls-10" x="1058.83" y="753.3" width="15.5" height="15.5"/>
    <rect class="cls-15" x="1008.63" y="727.2" width="15.5" height="15.5"/>
    <rect class="cls-15" x="1008.63" y="753.3" width="15.5" height="15.5"/>
    <polygon class="cls-13" points="760.93 802 799.03 802 799.03 756.2 780.43 734.8 760.93 756.2 760.93 802"/>
    <polygon class="cls-8" points="760.93 756.2 722.53 756.2 741.53 734.8 780.43 734.8 760.93 756.2"/>
    <rect class="cls-7" x="722.53" y="756.2" width="38.4" height="45.8"/>
    <rect class="cls-7" x="773.83" y="766" width="15.1" height="18.6"/>
    <rect class="cls-8" x="743.13" y="768" width="10.7" height="16.9"/>
    <rect class="cls-8" x="726.93" y="768" width="10.7" height="16.9"/>
    <rect class="cls-15" x="957.83" y="707.3" width="45.6" height="29.8"/>
    <polygon class="cls-13" points="980.23 783 1025.73 783 1025.73 731.5 1003.43 707.2 980.23 731.5 980.23 783"/>
    <polygon class="cls-18" points="934.63 783 980.23 783 980.23 731.5 957.83 707.2 934.63 731.5 934.63 783"/>
    <rect class="cls-4" x="995.93" y="734.5" width="14.1" height="14.1"/>
    <rect class="cls-7" x="995.93" y="758.2" width="14.1" height="14.1"/>
    <rect class="cls-12" x="950.33" y="734.5" width="14.1" height="14.1"/>
    <rect class="cls-12" x="950.33" y="758.2" width="14.1" height="14.1"/>
    <polygon class="cls-13" points="907.33 800.4 944.03 800.4 944.03 744.5 926.03 727 907.33 746.3 907.33 800.4"/>
    <rect class="cls-7" x="920.03" y="752.8" width="11.4" height="11.2"/>
    <rect class="cls-4" x="920.03" y="771.6" width="11.4" height="11.2"/>
    <polygon class="cls-7" points="845.43 800.4 907.33 800.4 907.33 739.8 864.13 727 845.43 746.3 845.43 800.4"/>
    <rect class="cls-4" x="859.23" y="752.8" width="11.4" height="11.4"/>
    <rect class="cls-4" x="859.23" y="771.9" width="11.4" height="11.4"/>
    <rect class="cls-18" x="882.23" y="752.8" width="11.4" height="11.4"/>
    <rect class="cls-18" x="882.23" y="771.9" width="11.4" height="11.4"/>
    <polygon class="cls-18" points="845.43 746.3 907.33 746.3 926.03 727 864.13 727 845.43 746.3"/>
    <polygon class="cls-11" points="1106.03 788.7 1154.13 788.7 1154.13 739.8 1130.53 716.9 1106.03 739.8 1106.03 788.7"/>
    <polygon class="cls-8" points="1106.03 739.8 1057.53 739.8 1081.43 716.9 1130.53 716.9 1106.03 739.8"/>
    <rect class="cls-10" x="1057.53" y="739.8" width="48.6" height="48.9"/>
    <rect class="cls-10" x="1121.53" y="751.5" width="19" height="19.8"/>
    <rect class="cls-8" x="1083.43" y="752.4" width="13.5" height="18"/>
    <rect class="cls-8" x="1063.03" y="752.4" width="13.5" height="18"/>
    <polygon class="cls-13" points="1054.73 799.3 1089.73 799.3 1089.73 763.6 1072.63 746.9 1054.73 763.6 1054.73 799.3"/>
    <polygon class="cls-8" points="1054.73 763.6 1019.33 763.6 1036.83 746.9 1072.63 746.9 1054.73 763.6"/>
    <rect class="cls-7" x="1019.33" y="763.6" width="35.4" height="35.7"/>
    <rect class="cls-4" x="1066.53" y="771.2" width="13.9" height="14.4"/>
    <rect class="cls-4" x="1038.33" y="772.8" width="9.8" height="13.1"/>
    <rect class="cls-4" x="1023.43" y="772.8" width="9.8" height="13.1"/>
    <polygon class="cls-13" points="1189.53 795.1 1247.73 795.1 1247.73 735.9 1219.23 708.2 1189.53 735.9 1189.53 795.1"/>
    <polygon class="cls-8" points="1189.53 735.9 1130.73 735.9 1159.73 708.2 1219.23 708.2 1189.53 735.9"/>
    <rect class="cls-7" x="1130.73" y="735.9" width="58.8" height="59.3"/>
    <rect class="cls-4" x="1209.13" y="748.5" width="23" height="24"/>
    <rect class="cls-4" x="1162.13" y="751.1" width="16.3" height="21.8"/>
    <rect class="cls-4" x="1137.43" y="751.1" width="16.3" height="21.8"/>
    <rect class="cls-8" x="1004.53" y="776.6" width="1.2" height="24.9"/>
    <rect class="cls-17" x="1003.43" y="776.6" width="1.2" height="24.9"/>
    <path class="cls-16" d="m1018.43,766c0,7.8-6,14.1-13.3,14.1-4.9-9.7-5.1-19.1,0-28.3,7.4.1,13.3,6.4,13.3,14.2"/>
    <path class="cls-15" d="m1005.13,751.9c-5,8.8-5.2,18.2,0,28.3-7.4,0-13.3-6.3-13.3-14.1s6-14.2,13.3-14.2"/>
    <rect class="cls-8" x="979.93" y="780.1" width="1.4" height="30.3"/>
    <rect class="cls-17" x="978.53" y="780.1" width="1.4" height="30.3"/>
    <path class="cls-16" d="m996.83,767.1c0,9.5-7.3,17.2-16.2,17.2-6.7-11-6.6-22.5,0-34.4,9,0,16.2,7.7,16.2,17.2"/>
    <path class="cls-15" d="m980.63,749.9c-6,12.5-6.1,24,0,34.4-9,0-16.2-7.7-16.2-17.2s7.2-17.2,16.2-17.2"/>
    <rect class="cls-8" x="955.23" y="782.2" width=".9" height="19.4"/>
    <rect class="cls-17" x="954.33" y="782.2" width=".9" height="19.4"/>
    <path class="cls-16" d="m966.03,773.9c0,6.1-4.6,11-10.4,11-5.9-7.3-5.9-14.7,0-22,5.7,0,10.4,5,10.4,11"/>
    <path class="cls-15" d="m955.63,762.9c-3.1,7.3-3.1,14.7,0,22-5.7,0-10.4-4.9-10.4-11s4.7-11,10.4-11"/>
    <rect class="cls-8" x="1876.63" y="747.3" width=".8" height="16.9"/>
    <rect class="cls-17" x="1875.83" y="747.3" width=".8" height="16.9"/>
    <path class="cls-16" d="m1886.03,740.1c0,5.3-4,9.6-9,9.6-5.1-6.4-5.1-12.8,0-19.1,5,0,9,4.2,9,9.5"/>
    <path class="cls-15" d="m1877.03,730.6c-2.7,6.4-2.7,12.8,0,19.1-5,0-9-4.3-9-9.6-.1-5.3,4-9.5,9-9.5"/>
    <rect class="cls-8" x="430.03" y="725.8" width="1.2" height="26.4"/>
    <rect class="cls-17" x="428.83" y="725.8" width="1.2" height="26.4"/>
    <path class="cls-16" d="m444.73,714.5c0,8.3-6.3,15-14.1,15-5.8-9.6-5.7-19.6,0-30,7.8,0,14.1,6.7,14.1,15"/>
    <path class="cls-15" d="m430.63,699.5c-5.2,10.9-5.3,20.9,0,30-7.8,0-14.1-6.7-14.1-15s6.3-15,14.1-15"/>
    <rect class="cls-8" x="1896.23" y="747.4" width="1.2" height="26.4"/>
    <rect class="cls-17" x="1895.03" y="747.4" width="1.2" height="26.4"/>
    <path class="cls-16" d="m1911.03,736.1c0,8.3-6.3,15-14.1,15-5.8-9.6-5.7-19.6,0-30,7.7,0,14.1,6.8,14.1,15"/>
    <path class="cls-15" d="m1896.83,721.1c-5.2,10.9-5.3,20.9,0,30-7.8,0-14.1-6.7-14.1-15s6.3-15,14.1-15"/>
    <rect class="cls-8" x="402.63" y="733.1" width=".8" height="16.9"/>
    <rect class="cls-17" x="401.83" y="733.1" width=".8" height="16.9"/>
    <path class="cls-16" d="m412.03,725.9c0,5.3-4,9.6-9,9.6-5.1-6.4-5.1-12.8,0-19.1,5-.1,9,4.2,9,9.5"/>
    <path class="cls-15" d="m403.03,716.3c-2.7,6.4-2.7,12.8,0,19.1-5,0-9-4.3-9-9.6s4-9.5,9-9.5"/>
    <rect class="cls-8" x="1854.63" y="734.9" width="1.5" height="32.4"/>
    <rect class="cls-17" x="1853.13" y="734.9" width="1.5" height="32.4"/>
    <path class="cls-16" d="m1872.73,721.1c0,10.1-7.8,18.4-17.3,18.4-7.1-11.7-7-24,0-36.7,9.5-.1,17.3,8.1,17.3,18.3"/>
    <path class="cls-15" d="m1855.43,702.7c-6.4,13.3-6.5,25.6,0,36.7-9.6,0-17.3-8.2-17.3-18.4s7.7-18.3,17.3-18.3"/>
    <rect class="cls-8" x="326.63" y="747.9" width="1" height="21.7"/>
    <rect class="cls-17" x="325.63" y="747.9" width="1" height="21.7"/>
    <path class="cls-16" d="m338.73,738.7c0,6.8-5.2,12.3-11.6,12.3-4.2-8.4-4.4-16.6,0-24.6,6.4,0,11.6,5.5,11.6,12.3"/>
    <path class="cls-15" d="m327.13,726.4c-4.3,7.7-4.5,15.9,0,24.6-6.4,0-11.6-5.5-11.6-12.3s5.2-12.3,11.6-12.3"/>
    <rect class="cls-8" x="305.23" y="750.9" width="1.2" height="26.4"/>
    <rect class="cls-17" x="303.93" y="750.9" width="1.2" height="26.4"/>
    <path class="cls-16" d="m319.93,739.7c0,8.3-6.3,15-14.1,15-5.8-9.6-5.7-19.6,0-30,7.8,0,14.1,6.7,14.1,15"/>
    <path class="cls-15" d="m305.83,724.7c-5.2,10.9-5.3,20.9,0,30-7.8,0-14.1-6.7-14.1-15-.1-8.3,6.3-15,14.1-15"/>
    <rect class="cls-8" x="283.63" y="752.8" width=".8" height="16.9"/>
    <rect class="cls-17" x="282.83" y="752.8" width=".8" height="16.9"/>
    <path class="cls-16" d="m293.03,745.6c0,5.3-4,9.6-9,9.6-5.1-6.4-5.1-12.8,0-19.1,5-.1,9,4.2,9,9.5"/>
    <path class="cls-15" d="m284.03,736c-2.7,6.4-2.7,12.8,0,19.1-5,0-9-4.3-9-9.6s4-9.5,9-9.5"/>
    <rect class="cls-8" x="1558.23" y="725.2" width="1" height="22.1"/>
    <rect class="cls-17" x="1557.13" y="725.2" width="1" height="22.1"/>
    <path class="cls-16" d="m1570.53,715.8c0,6.9-5.3,12.6-11.8,12.6-4.3-8.6-4.5-17,0-25.1,6.5-.1,11.8,5.6,11.8,12.5"/>
    <path class="cls-15" d="m1558.73,703.2c-4.4,7.9-4.6,16.2,0,25.1-6.5,0-11.8-5.6-11.8-12.6-.1-6.8,5.2-12.5,11.8-12.5"/>
    <rect class="cls-8" x="1536.23" y="728.3" width="1.3" height="27"/>
    <rect class="cls-17" x="1535.03" y="728.3" width="1.3" height="27"/>
    <path class="cls-16" d="m1551.33,716.8c0,8.5-6.5,15.3-14.4,15.3-5.9-9.8-5.9-20,0-30.6,7.9,0,14.4,6.8,14.4,15.3"/>
    <path class="cls-15" d="m1536.93,701.5c-5.4,11.1-5.4,21.3,0,30.6-8,0-14.4-6.9-14.4-15.3-.1-8.5,6.4-15.3,14.4-15.3"/>
    <rect class="cls-8" x="1312.93" y="781.6" width="1" height="22.1"/>
    <rect class="cls-17" x="1311.93" y="781.6" width="1" height="22.1"/>
    <path class="cls-16" d="m1325.33,772.2c0,6.9-5.3,12.6-11.8,12.6-4.3-8.6-4.5-17,0-25.1,6.5-.1,11.8,5.5,11.8,12.5"/>
    <path class="cls-15" d="m1313.53,759.6c-4.4,7.9-4.6,16.2,0,25.1-6.5,0-11.8-5.6-11.8-12.6-.1-6.9,5.2-12.5,11.8-12.5"/>
    <rect class="cls-8" x="1333.03" y="784.3" width="1.4" height="29.8"/>
    <rect class="cls-17" x="1331.63" y="784.3" width="1.4" height="29.8"/>
    <path class="cls-16" d="m1349.63,771.6c0,9.3-7.1,16.9-15.9,16.9-6.6-10.8-6.5-22.1,0-33.8,8.8,0,15.9,7.6,15.9,16.9"/>
    <path class="cls-15" d="m1333.73,754.7c-5.9,12.3-6,23.6,0,33.8-8.8,0-15.9-7.6-15.9-16.9s7.1-16.9,15.9-16.9"/>
    <polygon class="cls-13" points="1247.93 803 1285.13 803 1285.13 765.2 1266.83 747.5 1247.93 765.2 1247.93 803"/>
    <polygon class="cls-8" points="1247.93 765.2 1210.33 765.2 1228.93 747.5 1266.83 747.5 1247.93 765.2"/>
    <rect class="cls-7" x="1210.33" y="765.2" width="37.5" height="37.8"/>
    <rect class="cls-7" x="1260.43" y="773.2" width="14.7" height="15.3"/>
    <rect class="cls-4" x="1230.43" y="774.9" width="10.4" height="13.9"/>
    <rect class="cls-18" x="1214.63" y="774.9" width="10.4" height="13.9"/>
  </g>
  <g>
    <polygon class="cls-6" points="1797.43 752.54 1738.3 752.54 1739.8 722.5 1798.92 722.5 1797.43 752.54"/>
    <g>
      <polygon class="cls-2" points="1751.37 737.15 1740.82 737.16 1741.56 724.12 1752.1 724.12 1751.37 737.15"/>
      <polygon class="cls-2" points="1762.64 737.15 1752.09 737.15 1752.82 724.12 1763.37 724.11 1762.64 737.15"/>
      <polygon class="cls-2" points="1773.91 737.14 1763.36 737.14 1764.09 724.11 1774.64 724.1 1773.91 737.14"/>
      <polygon class="cls-2" points="1785.17 737.13 1774.63 737.14 1775.36 724.1 1785.9 724.09 1785.17 737.13"/>
      <polygon class="cls-2" points="1796.44 737.1 1785.9 737.1 1786.63 724.07 1797.17 724.06 1796.44 737.1"/>
      <polygon class="cls-2" points="1750.6 750.97 1740.05 750.98 1740.78 737.94 1751.33 737.93 1750.6 750.97"/>
      <polygon class="cls-2" points="1761.86 750.96 1751.32 750.97 1752.05 737.93 1762.6 737.92 1761.86 750.96"/>
      <polygon class="cls-2" points="1773.13 750.95 1762.58 750.96 1763.32 737.92 1773.86 737.91 1773.13 750.95"/>
      <polygon class="cls-2" points="1784.52 750.85 1773.98 751.06 1774.46 738.01 1785 737.8 1784.52 750.85"/>
      <polygon class="cls-2" points="1795.67 750.91 1785.12 750.92 1785.85 737.88 1796.4 737.87 1795.67 750.91"/>
    </g>
  </g>
  <g>
    <polygon class="cls-6" points="1724.5 752.54 1665.37 752.54 1666.87 722.5 1725.99 722.5 1724.5 752.54"/>
    <g>
      <polygon class="cls-2" points="1678.44 737.15 1667.89 737.16 1668.62 724.12 1679.17 724.12 1678.44 737.15"/>
      <polygon class="cls-2" points="1689.71 737.15 1679.16 737.15 1679.89 724.12 1690.44 724.11 1689.71 737.15"/>
      <polygon class="cls-2" points="1700.98 737.14 1690.43 737.14 1691.16 724.11 1701.71 724.1 1700.98 737.14"/>
      <polygon class="cls-2" points="1712.24 737.13 1701.7 737.14 1702.43 724.1 1712.97 724.09 1712.24 737.13"/>
      <polygon class="cls-2" points="1723.51 737.1 1712.96 737.1 1713.7 724.07 1724.24 724.06 1723.51 737.1"/>
      <polygon class="cls-2" points="1677.67 750.97 1667.12 750.98 1667.85 737.94 1678.4 737.93 1677.67 750.97"/>
      <polygon class="cls-2" points="1688.93 750.96 1678.39 750.97 1679.12 737.93 1689.66 737.92 1688.93 750.96"/>
      <polygon class="cls-2" points="1700.2 750.95 1689.65 750.96 1690.39 737.92 1700.93 737.91 1700.2 750.95"/>
      <polygon class="cls-2" points="1711.59 750.85 1701.05 751.06 1701.53 738.01 1712.07 737.8 1711.59 750.85"/>
      <polygon class="cls-2" points="1722.74 750.91 1712.19 750.92 1712.92 737.88 1723.47 737.87 1722.74 750.91"/>
    </g>
  </g>
  <g>
    <polygon class="cls-6" points="1767.72 775.78 1698.57 775.77 1700.31 740.63 1769.47 740.63 1767.72 775.78"/>
    <g>
      <polygon class="cls-1" points="1713.85 757.78 1701.51 757.79 1702.37 742.54 1714.71 742.53 1713.85 757.78"/>
      <polygon class="cls-1" points="1727.03 757.77 1714.69 757.78 1715.55 742.53 1727.89 742.52 1727.03 757.77"/>
      <polygon class="cls-1" points="1740.21 757.76 1727.87 757.77 1728.73 742.52 1741.07 742.51 1740.21 757.76"/>
      <polygon class="cls-1" points="1753.39 757.75 1741.05 757.76 1741.91 742.51 1754.25 742.5 1753.39 757.75"/>
      <polygon class="cls-1" points="1766.57 757.71 1754.24 757.72 1755.09 742.47 1767.43 742.46 1766.57 757.71"/>
      <polygon class="cls-1" points="1712.94 773.94 1700.61 773.95 1701.46 758.7 1713.8 758.69 1712.94 773.94"/>
      <polygon class="cls-1" points="1726.12 773.93 1713.79 773.94 1714.64 758.69 1726.98 758.68 1726.12 773.93"/>
      <polygon class="cls-1" points="1739.3 773.92 1726.97 773.93 1727.82 758.68 1740.16 758.67 1739.3 773.92"/>
      <polygon class="cls-1" points="1752.49 773.91 1740.15 773.92 1741 758.67 1753.34 758.66 1752.49 773.91"/>
      <polygon class="cls-1" points="1765.67 773.87 1753.33 773.88 1754.18 758.63 1766.52 758.62 1765.67 773.87"/>
    </g>
  </g>
  <g>
    <polygon class="cls-6" points="1679 775.78 1609.84 775.77 1611.58 740.63 1680.74 740.63 1679 775.78"/>
    <g>
      <polygon class="cls-1" points="1625.12 757.78 1612.79 757.79 1613.64 742.54 1625.98 742.53 1625.12 757.78"/>
      <polygon class="cls-1" points="1638.3 757.77 1625.97 757.78 1626.82 742.53 1639.16 742.52 1638.3 757.77"/>
      <polygon class="cls-1" points="1651.48 757.76 1639.15 757.77 1640 742.52 1652.34 742.51 1651.48 757.76"/>
      <polygon class="cls-1" points="1664.66 757.75 1652.33 757.76 1653.18 742.51 1665.52 742.5 1664.66 757.75"/>
      <polygon class="cls-1" points="1677.85 757.71 1665.51 757.72 1666.36 742.47 1678.7 742.46 1677.85 757.71"/>
      <polygon class="cls-1" points="1624.22 773.94 1611.88 773.95 1612.74 758.7 1625.07 758.69 1624.22 773.94"/>
      <polygon class="cls-1" points="1637.4 773.93 1625.06 773.94 1625.92 758.69 1638.25 758.68 1637.4 773.93"/>
      <polygon class="cls-1" points="1650.58 773.92 1638.24 773.93 1639.1 758.68 1651.43 758.67 1650.58 773.92"/>
      <polygon class="cls-1" points="1663.76 773.91 1651.42 773.92 1652.28 758.67 1664.61 758.66 1663.76 773.91"/>
      <polygon class="cls-1" points="1676.94 773.87 1664.6 773.88 1665.46 758.63 1677.79 758.62 1676.94 773.87"/>
    </g>
  </g>
  <g>
    <polygon class="cls-6" points="1622.33 807.71 1533.61 807.71 1535.85 762.63 1624.57 762.63 1622.33 807.71"/>
    <g>
      <polygon class="cls-3" points="1553.22 784.62 1537.39 784.64 1538.49 765.07 1554.32 765.06 1553.22 784.62"/>
      <polygon class="cls-3" points="1570.13 784.61 1554.3 784.62 1555.4 765.06 1571.22 765.05 1570.13 784.61"/>
      <polygon class="cls-3" points="1587.04 784.6 1571.21 784.61 1572.31 765.04 1588.13 765.03 1587.04 784.6"/>
      <polygon class="cls-3" points="1603.94 784.58 1588.12 784.6 1589.21 765.03 1605.04 765.02 1603.94 784.58"/>
      <polygon class="cls-3" points="1620.85 784.54 1605.03 784.55 1606.12 764.98 1621.95 764.97 1620.85 784.54"/>
      <polygon class="cls-3" points="1552.06 805.35 1536.23 805.36 1537.33 785.8 1553.15 785.79 1552.06 805.35"/>
      <polygon class="cls-3" points="1568.96 805.34 1553.14 805.35 1554.23 785.79 1570.06 785.77 1568.96 805.34"/>
      <polygon class="cls-3" points="1585.87 805.33 1570.05 805.34 1571.14 785.77 1586.97 785.76 1585.87 805.33"/>
      <polygon class="cls-3" points="1602.78 805.31 1586.95 805.32 1588.05 785.76 1603.88 785.75 1602.78 805.31"/>
      <polygon class="cls-3" points="1619.69 805.26 1603.86 805.28 1604.96 785.71 1620.79 785.7 1619.69 805.26"/>
    </g>
  </g>
  <g>
    <polygon class="cls-6" points="1743.85 807.71 1655.13 807.71 1657.37 762.63 1746.09 762.63 1743.85 807.71"/>
    <g>
      <polygon class="cls-3" points="1674.74 784.62 1658.91 784.64 1660.01 765.07 1675.83 765.06 1674.74 784.62"/>
      <polygon class="cls-3" points="1691.64 784.61 1675.82 784.62 1676.91 765.06 1692.74 765.05 1691.64 784.61"/>
      <polygon class="cls-3" points="1708.55 784.6 1692.73 784.61 1693.82 765.04 1709.65 765.03 1708.55 784.6"/>
      <polygon class="cls-3" points="1725.46 784.58 1709.63 784.6 1710.73 765.03 1726.56 765.02 1725.46 784.58"/>
      <polygon class="cls-3" points="1742.37 784.54 1726.54 784.55 1727.64 764.98 1743.47 764.97 1742.37 784.54"/>
      <polygon class="cls-3" points="1673.57 805.35 1657.75 805.36 1658.84 785.8 1674.67 785.79 1673.57 805.35"/>
      <polygon class="cls-3" points="1690.48 805.34 1674.65 805.35 1675.75 785.79 1691.58 785.77 1690.48 805.34"/>
      <polygon class="cls-3" points="1707.39 805.33 1691.56 805.34 1692.66 785.77 1708.49 785.76 1707.39 805.33"/>
      <polygon class="cls-3" points="1724.3 805.31 1708.47 805.32 1709.57 785.76 1725.4 785.75 1724.3 805.31"/>
      <polygon class="cls-3" points="1741.21 805.26 1725.38 805.28 1726.48 785.71 1742.31 785.7 1741.21 805.26"/>
    </g>
  </g>
</svg>