<?xml version="1.0" encoding="UTF-8"?>
<svg id="Laag_1" data-name="Laag 1" xmlns="http://www.w3.org/2000/svg" width="2218" height="712.84" viewBox="0 0 2218 712.84">
  <defs>
    <style>
      .cls-1 {
        fill: #f8b915;
      }

      .cls-2 {
        fill: #fff;
      }

      .cls-3 {
        fill: #8ac3dd;
      }

      .cls-4 {
        fill: #9cd1f2;
      }

      .cls-5 {
        fill: #2f827f;
      }

      .cls-6 {
        fill: #d6eefd;
      }

      .cls-7 {
        fill: #a5d6cb;
      }

      .cls-8 {
        fill: #daede8;
      }

      .cls-9 {
        fill: #a1c743;
      }

      .cls-10 {
        fill: #2a746f;
      }

      .cls-11 {
        fill: #4992ba;
      }

      .cls-12 {
        fill: #34647f;
      }

      .cls-13 {
        fill: #2d576f;
      }
    </style>
  </defs>
  <g>
    <path class="cls-3" d="m2218,712.84v-389.17c-44.49-72.78-174.34-93.21-208.96-14.22-43.79-194.56-312.55-300.8-488.55-89.61-8.8-305.22-529.15-273.12-557.57-23.53-168.27-289.73-471.67-89.08-406.09,107.94-64.32-83.88-142.55-62.67-198.86-3.64C297.35,147.54,132.43,102.24,0,137.62v575.22h2218Z"/>
    <path class="cls-1" d="m1635.69,402.5c0,131.66,109.88,235.15,247.23,235.15s247.91-103.49,247.91-235.15-109.88-236.46-247.91-236.46-247.23,105.46-247.23,236.46"/>
    <path class="cls-2" d="m2218,664.29v-186.24c-4.12-1.2-8.52-1.34-12.84-.41-4.71,1-8.94,2.93-13.07,4.81-.84.38-2.05-.11-1.99-.84.53-8.35,3.7-16.44,4.71-24.75.84-6.75-.22-13.5-2.09-20.11-3.22-11.43-9.21-23.43-20.88-31.71-10.83-7.69-27.24-10.69-41.41-6.41-13.05,3.94-21.81,13.16-26.72,22.51-5.07,9.67-7.09,20.69-4.31,30.91.57,1.1.97,2.26,1.16,3.46,0,0,0,.02,0,.04h0c0,.08.04.17.05.26.15,1.11-2.2,1.27-2.6.26-.48-1.2-.86-2.41-1.2-3.64-1.13-2.1-2.94-4.05-4.87-5.77-2.8-2.51-6.03-4.79-9.36-6.91-7.26-4.63-16.63-8.14-26.35-8.58-8.71-.4-16.84,1.9-22.77,6.59-5.14,4.07-8.33,9.36-9.78,14.76-1.61,6.03-1.09,12.58,2.59,18.17.66,1.12-1.54,2.13-2.29.98-6.85-11.66-30.13-16.32-44.45-9.34-3.38,1.65-5.85,3.97-7.77,6.53-5.86-1.43-12.04-1.48-18.11-.18-7.25,1.54-13.78,4.52-20.14,7.41-1.29.58-3.16-.17-3.07-1.3.82-12.87,5.71-25.34,7.26-38.13,1.3-10.39-.34-20.8-3.23-30.98-4.96-17.61-14.19-36.11-32.18-48.87-16.69-11.84-41.98-16.47-63.81-9.87-20.11,6.07-33.61,20.28-41.17,34.69-7.81,14.9-10.92,31.88-6.64,47.63.88,1.7,1.5,3.48,1.79,5.33,0,.01,0,.04,0,.06h0c.01.13.06.26.08.4.22,1.72-3.39,1.96-4.01.4-.74-1.85-1.33-3.72-1.86-5.61-1.75-3.24-4.53-6.24-7.5-8.89-4.31-3.87-9.29-7.38-14.43-10.64-11.19-7.14-25.62-12.55-40.61-13.23-13.42-.61-25.96,2.93-35.09,10.15-7.92,6.27-12.83,14.42-15.07,22.75-1.99,7.43-1.86,15.39,1.17,22.68-3.66-1.86-7.73-3.27-12-4.05-15.54-9.48-40.37-11.71-57.2-3.51-6.38,3.12-10.66,7.75-13.85,12.78-2.96-2.17-6.29-3.97-9.64-5.19-7.02-2.56-14.68-3.02-22.18-1.41-7.25,1.54-13.78,4.52-20.14,7.41-1.29.58-3.17-.17-3.07-1.3.82-12.87,5.71-25.34,7.26-38.13,1.3-10.39-.34-20.8-3.23-30.98-4.96-17.61-14.19-36.11-32.18-48.87-16.69-11.84-41.98-16.47-63.81-9.87-10.32,3.12-18.9,8.38-25.83,14.71-3.42-5.81-7.99-11.22-14.15-15.6-10.83-7.69-27.24-10.69-41.41-6.41-13.05,3.94-21.81,13.16-26.72,22.51-5.07,9.67-7.09,20.69-4.31,30.91.31.59.56,1.21.76,1.83-.99-.11-1.99-.2-3-.27-.12-.39-.25-.79-.36-1.19-1.13-2.1-2.94-4.05-4.87-5.77-2.8-2.51-6.03-4.79-9.36-6.91-7.26-4.63-16.63-8.14-26.35-8.58-6.65-.3-12.97.97-18.23,3.68-3.04-5.25-7.41-10.17-13.26-14.28-10.27-7.22-24.38-10.77-39.47-10.15-16.86.68-33.1,6.09-45.68,13.22-5.78,3.26-11.38,6.77-16.23,10.64-3.35,2.65-6.48,5.65-8.44,8.89-.59,1.89-1.26,3.76-2.09,5.61-.7,1.56-4.77,1.32-4.52-.4.02-.15.08-.27.09-.4h-.01s.01-.04.01-.06c.33-1.86,1.03-3.64,2.02-5.33,4.82-15.75,1.32-32.74-7.47-47.63-8.5-14.42-23.69-28.62-46.31-34.69-24.57-6.6-53.01-1.97-71.79,9.87-8.69,5.48-15.56,12.02-21.02,19.1-3.85-11.23-10.37-22.51-21.77-30.6-12.06-8.55-30.31-11.9-46.08-7.13-14.52,4.39-24.27,14.64-29.73,25.05-3,5.72-5.03,11.88-5.81,18.09-3.92,2.19-7.31,4.9-10.19,7.89-2.37-1.86-4.91-3.61-7.51-5.27-8.08-5.15-18.5-9.06-29.33-9.55-9.69-.44-18.74,2.12-25.34,7.33-5.72,4.53-9.27,10.42-10.88,16.43-1.34,4.99-1.35,10.3.41,15.25-1.19.56-2.33,1.19-3.41,1.89-10.14-9.83-32.03-13.09-46.13-6.22-4.67,2.28-7.78,5.68-10.09,9.36-2.95,4.67-4.49,9.86-4.76,14.99-.19,3.48.23,6.94,1.18,10.32-2.21,1.75-3.92,3.83-5.3,6.03-1.12,1.78-2,3.64-2.68,5.55-.15,0-.3-.02-.45-.03-15.42-.7-29.82,3.37-40.31,11.66-9.1,7.21-14.74,16.57-17.31,26.13-2.48,9.27-2.11,19.25,2.31,28.19-1.64.45-3.24.95-4.78,1.52-3.77-4.44-8.97-8.16-15.02-11.05-.04-.14-.08-.29-.12-.43-1.92-6.32-6.11-12.51-12.87-17.27-7.8-5.48-18.5-8.17-29.96-7.71-12.8.51-25.13,4.62-34.68,10.04-4.38,2.47-8.64,5.14-12.32,8.08-2.54,2.01-4.92,4.29-6.41,6.75-.45,1.43-.96,2.85-1.58,4.26-.53,1.19-3.62,1-3.43-.3.01-.11.06-.21.07-.3h0s0-.03,0-.04c.25-1.41.78-2.76,1.53-4.05,3.66-11.96,1-24.85-5.67-36.16-6.45-10.94-17.99-21.72-35.16-26.33-18.65-5.01-40.24-1.5-54.49,7.49-15.36,9.69-23.24,23.73-27.48,37.1-2.46,7.73-3.86,15.63-2.76,23.52,1.33,9.71,5.51,19.18,6.2,28.94.08.86-1.52,1.43-2.62.99-5.43-2.19-11.01-4.45-17.2-5.63-6.4-1.22-12.95-.87-18.94,1.07-3.43,1.11-6.82,2.85-9.69,4.95-5.46-15.42-14.64-30.85-30.55-41.95-17.02-11.87-42.79-16.51-65.05-9.89-20.5,6.09-34.27,20.32-41.97,34.77-7.96,14.93-11.13,31.95-6.77,47.74.89,1.7,1.52,3.49,1.83,5.35,0,.01,0,.04,0,.06h0c.01.13.06.26.08.4.23,1.72-3.46,1.96-4.09.4-.75-1.86-1.36-3.73-1.89-5.62-1.78-3.25-4.62-6.26-7.65-8.91-4.4-3.88-9.47-7.4-14.71-10.66-11.4-7.15-26.12-12.57-41.4-13.25-13.68-.61-26.46,2.94-35.77,10.17-8.08,6.29-13.08,14.45-15.37,22.8-2.54,9.31-1.72,19.43,4.06,28.06,1.04,1.73-2.41,3.29-3.59,1.51-10.76-18.01-47.33-25.2-69.83-14.42-6.59,3.16-10.98,7.89-14.25,13-4.16,6.48-6.34,13.68-6.73,20.81-.7,12.94,4.7,25.76,14.52,36.56h311.65v63.7h1848.95Z"/>
    <g>
      <path class="cls-9" d="m627.1,599.97c-5.24,0-9.94-3.25-11.77-8.15-10.83-29.06-33.02-48.99-58.67-48.99l-101.67-.04c-29.63,0-55.59,20.82-70.65,51.29-2.14,4.32-6.5,7.1-11.33,7.1h-52.09c-6.96,0-12.59,5.64-12.59,12.59v86.47c0,6.96,5.64,12.59,12.59,12.59h1897.07v-111.88l-1590.9-.99Z"/>
      <path class="cls-9" d="m71.74,601.18H0v111.66h71.74c6.96,0,12.59-5.64,12.59-12.59v-86.47c0-6.96-5.64-12.59-12.59-12.59Z"/>
    </g>
  </g>
  <rect class="cls-12" x="1525.56" y="588.32" width="1.23" height="26.49"/>
  <rect class="cls-13" x="1526.79" y="588.32" width="1.23" height="26.49"/>
  <path class="cls-5" d="m1512,577.04c0,8.3,6.34,15.03,14.17,15.03,5.16-10.27,5.43-20.3,0-30.06-7.83,0-14.17,6.73-14.17,15.03"/>
  <path class="cls-10" d="m1526.17,562.01c5.29,9.4,5.52,19.39,0,30.06,7.83,0,14.17-6.73,14.17-15.03s-6.34-15.03-14.17-15.03"/>
  <rect class="cls-12" x="1551.49" y="591.96" width="1.5" height="32.26"/>
  <rect class="cls-13" x="1552.99" y="591.96" width="1.5" height="32.26"/>
  <path class="cls-5" d="m1534.98,578.22c0,10.11,7.73,18.3,17.26,18.3,7.11-11.7,7.01-23.91,0-36.61-9.53,0-17.26,8.2-17.26,18.3"/>
  <path class="cls-10" d="m1552.24,559.92c6.4,13.28,6.5,25.5,0,36.61,9.53,0,17.26-8.19,17.26-18.3s-7.73-18.3-17.26-18.3"/>
  <rect class="cls-12" x="1578.33" y="594.22" width=".96" height="20.59"/>
  <rect class="cls-13" x="1579.29" y="594.22" width=".96" height="20.59"/>
  <path class="cls-5" d="m1567.79,585.44c0,6.45,4.93,11.69,11.02,11.69,6.26-7.79,6.26-15.58,0-23.37-6.08,0-11.02,5.23-11.02,11.68"/>
  <rect class="cls-12" x="1603.44" y="593.55" width=".76" height="16.41"/>
  <rect class="cls-13" x="1604.2" y="593.55" width=".76" height="16.41"/>
  <path class="cls-5" d="m1595.04,586.56c0,5.14,3.93,9.31,8.78,9.31,3.2-6.36,3.37-12.58,0-18.63-4.85,0-8.78,4.17-8.78,9.31"/>
  <path class="cls-10" d="m1603.82,577.24c3.28,5.82,3.42,12.02,0,18.63,4.85,0,8.78-4.17,8.78-9.31s-3.93-9.31-8.78-9.31"/>
  <rect class="cls-12" x="1619.51" y="595.81" width=".93" height="19.99"/>
  <rect class="cls-13" x="1620.44" y="595.81" width=".93" height="19.99"/>
  <path class="cls-5" d="m1609.28,587.29c0,6.26,4.79,11.34,10.69,11.34,4.41-7.25,4.34-14.82,0-22.68-5.91,0-10.69,5.08-10.69,11.34"/>
  <path class="cls-10" d="m1619.97,575.95c3.97,8.23,4.03,15.8,0,22.69,5.91,0,10.69-5.08,10.69-11.34s-4.79-11.34-10.69-11.34"/>
  <path class="cls-10" d="m1578.81,573.76c3.26,7.79,3.26,15.58,0,23.37,6.08,0,11.02-5.23,11.02-11.68s-4.93-11.69-11.02-11.69"/>
  <rect class="cls-12" x="633.1" y="577.66" width="1.74" height="37.32"/>
  <rect class="cls-13" x="634.84" y="577.66" width="1.73" height="37.32"/>
  <path class="cls-5" d="m614,561.76c0,11.7,8.94,21.18,19.97,21.18,7.27-14.47,7.66-28.61,0-42.36-11.03,0-19.97,9.48-19.97,21.18"/>
  <path class="cls-10" d="m633.97,540.58c7.45,13.24,7.77,27.33,0,42.36,11.03,0,19.97-9.48,19.97-21.18s-8.94-21.18-19.97-21.18"/>
  <rect class="cls-12" x="669.65" y="582.79" width="2.11" height="45.45"/>
  <rect class="cls-13" x="671.76" y="582.79" width="2.11" height="45.45"/>
  <path class="cls-5" d="m646.38,563.43c0,14.24,10.89,25.79,24.32,25.79,10.02-16.49,9.87-33.69,0-51.58-13.43,0-24.32,11.55-24.32,25.79"/>
  <path class="cls-10" d="m670.7,537.63c9.02,18.72,9.16,35.93,0,51.58,13.43,0,24.32-11.55,24.32-25.79s-10.89-25.79-24.32-25.79"/>
  <rect class="cls-12" x="707.47" y="585.96" width="1.35" height="29.02"/>
  <rect class="cls-13" x="708.82" y="585.96" width="1.35" height="29.02"/>
  <path class="cls-5" d="m692.62,573.6c0,9.09,6.95,16.47,15.53,16.47,8.81-10.98,8.81-21.95,0-32.93-8.58,0-15.53,7.37-15.53,16.47"/>
  <rect class="cls-12" x="742.85" y="585.03" width="1.08" height="23.13"/>
  <rect class="cls-13" x="743.93" y="585.03" width="1.07" height="23.13"/>
  <path class="cls-5" d="m731.02,575.17c0,7.25,5.54,13.12,12.38,13.12,4.51-8.97,4.74-17.73,0-26.25-6.84,0-12.38,5.88-12.38,13.12"/>
  <path class="cls-10" d="m743.39,562.05c4.62,8.21,4.82,16.93,0,26.25,6.83,0,12.38-5.88,12.38-13.12s-5.54-13.12-12.38-13.12"/>
  <rect class="cls-12" x="765.5" y="588.2" width="1.31" height="28.17"/>
  <rect class="cls-13" x="766.81" y="588.2" width="1.31" height="28.17"/>
  <path class="cls-5" d="m751.08,576.2c0,8.83,6.75,15.98,15.07,15.98,6.21-10.22,6.12-20.88,0-31.97-8.32,0-15.07,7.16-15.07,15.98"/>
  <path class="cls-10" d="m766.15,560.22c5.59,11.6,5.67,22.27,0,31.97,8.32,0,15.07-7.16,15.07-15.98s-6.75-15.98-15.07-15.98"/>
  <path class="cls-10" d="m708.15,557.14c4.59,10.98,4.59,21.96,0,32.93,8.57,0,15.53-7.37,15.53-16.47s-6.95-16.47-15.53-16.47"/>
  <path class="cls-6" d="m1038.61,530.31v-15.52c-45.3-3.38-101.73-5.38-162.93-5.38s-117.62,2-162.93,5.38v146.57c45.3,3.38,101.73,5.38,162.93,5.38s117.62-2.01,162.93-5.38v-131.06Z"/>
  <path class="cls-4" d="m1038.26,530.02v-15.52c-45.3-3.38-174.67-5.38-147.72-5.38s26.35,149.91.04,157.63c26.95,0,102-1.41,148.03-5.41l-.35-131.32Z"/>
  <path class="cls-12" d="m843.77,542.38h0c-5.15,0-9.32,1.2-9.32,2.67v20.42h18.64v-20.42c0-1.47-4.17-2.67-9.32-2.67"/>
  <path class="cls-12" d="m991.39,542.38h0c-5.15,0-9.32,1.2-9.32,2.67v20.42h18.64v-20.42c0-1.47-4.17-2.67-9.32-2.67"/>
  <path class="cls-12" d="m892.98,542.38h0c-5.15,0-9.32,1.2-9.32,2.67v20.42h18.64v-20.42c0-1.47-4.17-2.67-9.32-2.67"/>
  <path class="cls-12" d="m942.18,542.38h0c-5.15,0-9.32,1.2-9.32,2.67v20.42h18.64v-20.42c0-1.47-4.17-2.67-9.32-2.67"/>
  <path class="cls-12" d="m794.56,542.38h0c-5.15,0-9.32,1.2-9.32,2.67v20.42h18.64v-20.42c0-1.47-4.17-2.67-9.32-2.67"/>
  <path class="cls-12" d="m746.7,542.38h0c-5.15,0-9.32,1.2-9.32,2.67v20.42h18.64v-20.42c0-1.47-4.17-2.67-9.32-2.67"/>
  <path class="cls-12" d="m864.22,601.29h0c-5.15,0-9.32,1.2-9.32,2.67v20.42h18.64v-20.42c0-1.47-4.17-2.67-9.32-2.67"/>
  <path class="cls-12" d="m917.49,601.29h0c-5.15,0-9.32,1.2-9.32,2.67v20.42h18.64v-20.42c0-1.47-4.17-2.67-9.32-2.67"/>
  <path class="cls-12" d="m966.12,601.29h0c-5.15,0-9.32,1.2-9.32,2.67v20.42h18.64v-20.42c0-1.47-4.17-2.67-9.32-2.67"/>
  <path class="cls-12" d="m1014.75,601.29h0c-5.15,0-9.32,1.2-9.32,2.67v20.42h18.64v-20.42c0-1.47-4.17-2.67-9.32-2.67"/>
  <path class="cls-12" d="m765.34,601.29h0c-5.15,0-9.32,1.2-9.32,2.67v20.42h18.64v-20.42c0-1.47-4.17-2.67-9.32-2.67"/>
  <path class="cls-12" d="m818.21,601.29h0c-10.85,0-19.65,3.26-19.65,7.27v57.9l39.29,1.04v-58.94c0-4.02-8.8-7.27-19.64-7.27"/>
  <polygon class="cls-12" points="1686.74 589.69 1728 589.69 1707.63 571.68 1665.91 571.68 1686.74 589.69"/>
  <polygon class="cls-8" points="1686.74 628.24 1645.88 628.24 1645.88 589.69 1665.91 571.68 1686.74 589.69 1686.74 628.24"/>
  <rect class="cls-7" x="1686.74" y="589.69" width="41.26" height="38.55"/>
  <rect class="cls-7" x="1657.44" y="598.9" width="16.17" height="15.61"/>
  <rect class="cls-12" x="1694.47" y="599.61" width="11.46" height="14.19"/>
  <rect class="cls-12" x="1711.84" y="599.61" width="11.46" height="14.19"/>
  <rect class="cls-12" x="1749.3" y="584.36" width="1.3" height="27.96"/>
  <rect class="cls-13" x="1750.6" y="584.36" width="1.3" height="27.96"/>
  <path class="cls-5" d="m1734.99,572.45c0,8.76,6.7,15.86,14.96,15.86,5.45-10.84,5.74-21.43,0-31.73-8.26,0-14.96,7.1-14.96,15.86"/>
  <path class="cls-10" d="m1749.95,556.58c5.58,9.92,5.82,20.47,0,31.73,8.26,0,14.96-7.1,14.96-15.86s-6.7-15.86-14.96-15.86"/>
  <rect class="cls-12" x="1776.67" y="588.2" width="1.58" height="34.05"/>
  <rect class="cls-13" x="1778.26" y="588.2" width="1.58" height="34.05"/>
  <path class="cls-5" d="m1759.25,573.7c0,10.67,8.16,19.32,18.22,19.32,7.51-12.35,7.4-25.24,0-38.64-10.06,0-18.22,8.65-18.22,19.32"/>
  <path class="cls-10" d="m1777.47,554.38c6.75,14.02,6.86,26.92,0,38.64,10.06,0,18.22-8.65,18.22-19.32s-8.16-19.32-18.22-19.32"/>
  <rect class="cls-12" x="1805.01" y="590.58" width="1.01" height="21.74"/>
  <rect class="cls-13" x="1806.02" y="590.58" width="1.01" height="21.74"/>
  <path class="cls-5" d="m1793.88,581.32c0,6.81,5.21,12.33,11.63,12.33,6.6-8.22,6.6-16.44,0-24.67-6.42,0-11.63,5.52-11.63,12.33"/>
  <rect class="cls-12" x="1831.51" y="589.87" width=".81" height="17.32"/>
  <rect class="cls-13" x="1832.31" y="589.87" width=".81" height="17.32"/>
  <path class="cls-5" d="m1822.64,582.49c0,5.43,4.15,9.83,9.27,9.83,3.38-6.72,3.55-13.28,0-19.66-5.12,0-9.27,4.4-9.27,9.83"/>
  <path class="cls-10" d="m1831.91,572.66c3.46,6.15,3.61,12.68,0,19.66,5.12,0,9.27-4.4,9.27-9.83s-4.15-9.83-9.27-9.83"/>
  <rect class="cls-12" x="1848.47" y="592.26" width=".98" height="21.1"/>
  <rect class="cls-13" x="1849.45" y="592.26" width=".98" height="21.1"/>
  <path class="cls-5" d="m1837.67,583.27c0,6.61,5.05,11.97,11.29,11.97,4.65-7.65,4.58-15.64,0-23.94-6.23,0-11.29,5.36-11.29,11.97"/>
  <path class="cls-10" d="m1848.96,571.3c4.19,8.69,4.25,16.68,0,23.94,6.23,0,11.29-5.36,11.29-11.97s-5.05-11.97-11.29-11.97"/>
  <path class="cls-10" d="m1805.51,568.98c3.44,8.22,3.44,16.45,0,24.67,6.42,0,11.63-5.52,11.63-12.33s-5.21-12.33-11.63-12.33"/>
  <polygon class="cls-12" points="1905.21 586.62 1971.05 586.62 1938.55 555.61 1871.97 555.61 1905.21 586.62"/>
  <polygon class="cls-6" points="1905.21 652.99 1840 652.99 1840 586.62 1871.97 555.61 1905.21 586.62 1905.21 652.99"/>
  <rect class="cls-4" x="1905.21" y="586.62" width="65.84" height="66.36"/>
  <rect class="cls-4" x="1857.46" y="600.78" width="25.8" height="26.88"/>
  <rect class="cls-1" x="1917.54" y="603.7" width="18.29" height="24.42"/>
  <rect class="cls-11" x="1945.26" y="603.7" width="18.29" height="24.42"/>
  <rect class="cls-12" x="1968.93" y="615.39" width="2.25" height="48.47"/>
  <rect class="cls-13" x="1971.19" y="615.39" width="2.25" height="48.47"/>
  <path class="cls-5" d="m1944.12,594.74c0,15.19,11.61,27.51,25.93,27.51,9.45-18.79,9.94-37.15,0-55.01-14.32,0-25.93,12.31-25.93,27.5"/>
  <path class="cls-10" d="m1970.06,567.24c9.68,17.2,10.1,35.49,0,55.01,14.32,0,25.93-12.32,25.93-27.51s-11.61-27.51-25.93-27.51"/>
  <rect class="cls-12" x="2016.39" y="622.05" width="2.75" height="59.03"/>
  <rect class="cls-13" x="2019.14" y="622.05" width="2.75" height="59.03"/>
  <path class="cls-5" d="m1986.18,596.9c0,18.5,14.14,33.5,31.58,33.5,13.02-21.41,12.82-43.76,0-66.99-17.44,0-31.58,15-31.58,33.5"/>
  <path class="cls-10" d="m2017.77,563.41c11.71,24.31,11.89,46.67,0,66.99,17.44,0,31.58-15,31.58-33.5s-14.14-33.5-31.58-33.5"/>
  <rect class="cls-12" x="2065.52" y="626.18" width="1.75" height="37.69"/>
  <rect class="cls-13" x="2067.27" y="626.18" width="1.75" height="37.69"/>
  <path class="cls-5" d="m2046.23,610.12c0,11.81,9.03,21.39,20.16,21.39,11.45-14.26,11.45-28.51,0-42.77-11.14,0-20.16,9.57-20.16,21.39"/>
  <rect class="cls-12" x="2111.47" y="624.96" width="1.4" height="30.04"/>
  <rect class="cls-13" x="2112.87" y="624.96" width="1.4" height="30.04"/>
  <path class="cls-5" d="m2096.1,612.16c0,9.41,7.2,17.05,16.07,17.05,5.85-11.65,6.16-23.02,0-34.09-8.88,0-16.07,7.63-16.07,17.04"/>
  <path class="cls-10" d="m2112.17,595.11c6,10.66,6.26,21.99,0,34.09,8.88,0,16.07-7.63,16.07-17.04s-7.2-17.05-16.07-17.05"/>
  <rect class="cls-12" x="2140.88" y="629.08" width="1.7" height="36.58"/>
  <rect class="cls-13" x="2142.58" y="629.08" width="1.7" height="36.58"/>
  <path class="cls-5" d="m2122.16,613.5c0,11.46,8.76,20.76,19.57,20.76,8.07-13.27,7.95-27.12,0-41.52-10.81,0-19.57,9.29-19.57,20.76"/>
  <path class="cls-10" d="m2141.73,592.74c7.26,15.06,7.37,28.92,0,41.52,10.81,0,19.57-9.29,19.57-20.76s-8.76-20.76-19.57-20.76"/>
  <path class="cls-10" d="m2066.39,588.73c5.97,14.26,5.97,28.51,0,42.77,11.14,0,20.16-9.57,20.16-21.39s-9.03-21.39-20.16-21.39"/>
  <rect class="cls-12" x="1314.42" y="585.03" width="2.31" height="49.79"/>
  <rect class="cls-13" x="1316.73" y="585.03" width="2.31" height="49.79"/>
  <path class="cls-5" d="m1288.94,563.82c0,15.6,11.93,28.25,26.64,28.25,9.7-19.3,10.21-38.16,0-56.5-14.71,0-26.64,12.65-26.64,28.25"/>
  <path class="cls-10" d="m1315.57,535.57c9.94,17.67,10.37,36.45,0,56.5,14.71,0,26.64-12.65,26.64-28.25s-11.93-28.25-26.64-28.25"/>
  <rect class="cls-12" x="1363.16" y="591.87" width="2.82" height="60.63"/>
  <rect class="cls-13" x="1365.98" y="591.87" width="2.82" height="60.63"/>
  <path class="cls-5" d="m1332.13,566.04c0,19,14.52,34.4,32.44,34.4,13.37-21.99,13.17-44.94,0-68.81-17.92,0-32.44,15.4-32.44,34.4"/>
  <path class="cls-10" d="m1364.57,531.64c12.03,24.96,12.21,47.93,0,68.81,17.92,0,32.44-15.4,32.44-34.4s-14.52-34.4-32.44-34.4"/>
  <rect class="cls-12" x="1413.62" y="596.11" width="1.8" height="38.71"/>
  <rect class="cls-13" x="1415.42" y="596.11" width="1.8" height="38.71"/>
  <path class="cls-5" d="m1393.81,579.62c0,12.13,9.27,21.97,20.71,21.97,11.76-14.64,11.76-29.29,0-43.93-11.44,0-20.71,9.83-20.71,21.96"/>
  <rect class="cls-12" x="1460.81" y="594.85" width="1.44" height="30.85"/>
  <rect class="cls-13" x="1462.25" y="594.85" width="1.43" height="30.85"/>
  <path class="cls-5" d="m1445.02,581.71c0,9.67,7.39,17.51,16.51,17.51,6.01-11.96,6.33-23.65,0-35.01-9.12,0-16.51,7.84-16.51,17.51"/>
  <path class="cls-10" d="m1461.53,564.2c6.16,10.95,6.43,22.59,0,35.01,9.12,0,16.51-7.84,16.51-17.51s-7.39-17.51-16.51-17.51"/>
  <rect class="cls-12" x="1491.02" y="599.09" width="1.75" height="37.57"/>
  <rect class="cls-13" x="1492.77" y="599.09" width="1.75" height="37.57"/>
  <path class="cls-5" d="m1471.79,583.09c0,11.78,9,21.32,20.1,21.32,8.29-13.63,8.16-27.85,0-42.64-11.1,0-20.1,9.54-20.1,21.32"/>
  <path class="cls-10" d="m1491.9,561.77c7.45,15.47,7.57,29.7,0,42.64,11.1,0,20.1-9.55,20.1-21.32s-9-21.32-20.1-21.32"/>
  <path class="cls-10" d="m1414.52,557.65c6.13,14.64,6.13,29.29,0,43.93,11.44,0,20.71-9.83,20.71-21.96s-9.27-21.97-20.71-21.97"/>
  <rect class="cls-12" x="1095.28" y="585.03" width="2.31" height="49.79"/>
  <rect class="cls-13" x="1097.59" y="585.03" width="2.31" height="49.79"/>
  <path class="cls-5" d="m1069.8,563.82c0,15.6,11.93,28.25,26.64,28.25,9.7-19.3,10.21-38.16,0-56.5-14.71,0-26.64,12.65-26.64,28.25"/>
  <path class="cls-10" d="m1096.43,535.57c9.94,17.67,10.37,36.45,0,56.5,14.71,0,26.64-12.65,26.64-28.25s-11.93-28.25-26.64-28.25"/>
  <rect class="cls-12" x="1144.02" y="591.87" width="2.82" height="60.63"/>
  <rect class="cls-13" x="1146.84" y="591.87" width="2.82" height="60.63"/>
  <path class="cls-5" d="m1112.99,566.04c0,19,14.52,34.4,32.44,34.4,13.37-21.99,13.17-44.94,0-68.81-17.92,0-32.44,15.4-32.44,34.4"/>
  <path class="cls-10" d="m1145.43,531.64c12.03,24.96,12.21,47.93,0,68.81,17.92,0,32.44-15.4,32.44-34.4s-14.52-34.4-32.44-34.4"/>
  <rect class="cls-12" x="1194.48" y="596.11" width="1.8" height="38.71"/>
  <rect class="cls-13" x="1196.28" y="596.11" width="1.8" height="38.71"/>
  <path class="cls-5" d="m1174.67,579.62c0,12.13,9.27,21.97,20.71,21.97,11.76-14.64,11.76-29.29,0-43.93-11.44,0-20.71,9.83-20.71,21.96"/>
  <rect class="cls-12" x="1241.67" y="594.85" width="1.44" height="30.85"/>
  <rect class="cls-13" x="1243.11" y="594.85" width="1.43" height="30.85"/>
  <g>
    <path class="cls-5" d="m1225.88,581.71c0,9.67,7.39,17.51,16.51,17.51,6.01-11.96,6.33-23.65,0-35.01-9.12,0-16.51,7.84-16.51,17.51"/>
    <path class="cls-10" d="m1242.39,564.2c6.16,10.95,6.43,22.59,0,35.01,9.12,0,16.51-7.84,16.51-17.51s-7.39-17.51-16.51-17.51"/>
  </g>
  <rect class="cls-12" x="1271.88" y="599.09" width="1.75" height="37.57"/>
  <rect class="cls-13" x="1273.63" y="599.09" width="1.75" height="37.57"/>
  <g>
    <path class="cls-5" d="m1252.65,583.09c0,11.78,9,21.32,20.1,21.32,8.29-13.63,8.16-27.85,0-42.64-11.1,0-20.1,9.54-20.1,21.32"/>
    <path class="cls-10" d="m1272.76,561.77c7.45,15.47,7.57,29.7,0,42.64,11.1,0,20.1-9.55,20.1-21.32s-9-21.32-20.1-21.32"/>
    <path class="cls-10" d="m1195.38,557.65c6.13,14.64,6.13,29.29,0,43.93,11.44,0,20.71-9.83,20.71-21.96s-9.27-21.97-20.71-21.97"/>
  </g>
  <rect class="cls-12" x="1273.19" y="594.06" width="2.9" height="59.24"/>
  <rect class="cls-13" x="1276.09" y="594.06" width="2.9" height="59.24"/>
  <g>
    <path class="cls-5" d="m1241.29,568.82c0,18.57,14.93,33.62,33.35,33.62,12.15-22.97,12.79-45.41,0-67.23-18.42,0-33.35,15.05-33.35,33.61"/>
    <path class="cls-10" d="m1274.64,535.2c12.44,21.02,12.98,43.37,0,67.23,18.42,0,33.35-15.05,33.35-33.62s-14.93-33.62-33.35-33.62"/>
  </g>
  <rect class="cls-12" x="1215.81" y="601.37" width="3.9" height="79.72"/>
  <rect class="cls-13" x="1219.71" y="601.37" width="3.9" height="79.72"/>
  <g>
    <path class="cls-5" d="m1172.89,567.41c0,24.98,20.09,45.23,44.88,45.23,18.5-28.91,18.22-59.09,0-90.47-24.78,0-44.88,20.25-44.88,45.23"/>
    <path class="cls-10" d="m1217.76,522.17c16.64,32.82,16.9,63.02,0,90.47,24.78,0,44.88-20.25,44.88-45.23s-20.09-45.23-44.88-45.23"/>
  </g>
  <rect class="cls-12" x="996.39" y="614.18" width="2.65" height="57.03"/>
  <rect class="cls-13" x="999.04" y="614.18" width="2.65" height="57.03"/>
  <g>
    <path class="cls-5" d="m967.2,589.89c0,17.87,13.66,32.36,30.51,32.36,11.11-22.11,11.7-43.71,0-64.72-16.85,0-30.51,14.49-30.51,32.36"/>
    <path class="cls-10" d="m997.71,557.53c11.38,20.24,11.88,41.75,0,64.72,16.85,0,30.51-14.49,30.51-32.36s-13.66-32.36-30.51-32.36"/>
  </g>
  <rect class="cls-12" x="1052.22" y="622.02" width="3.23" height="69.45"/>
  <rect class="cls-13" x="1055.45" y="622.02" width="3.23" height="69.45"/>
  <g>
    <path class="cls-5" d="m1016.68,592.43c0,21.76,16.64,39.41,37.16,39.41,15.32-25.19,15.08-51.48,0-78.82-20.52,0-37.16,17.64-37.16,39.41"/>
    <path class="cls-10" d="m1053.84,553.02c13.78,28.6,13.99,54.9,0,78.82,20.52,0,37.16-17.64,37.16-39.41s-16.64-39.41-37.16-39.41"/>
  </g>
  <rect class="cls-12" x="1110.02" y="626.87" width="2.06" height="44.34"/>
  <rect class="cls-13" x="1112.08" y="626.87" width="2.06" height="44.34"/>
  <g>
    <path class="cls-5" d="m1087.33,607.98c0,13.9,10.62,25.16,23.72,25.16,13.47-16.77,13.47-33.55,0-50.32-13.1,0-23.72,11.26-23.72,25.16"/>
    <path class="cls-10" d="m1111.05,582.82c7.02,16.77,7.02,33.55,0,50.32,13.1,0,23.72-11.26,23.72-25.16s-10.62-25.16-23.72-25.16"/>
  </g>
</svg>