<?xml version="1.0" encoding="UTF-8"?>
<svg id="Laag_1" data-name="Laag 1" xmlns="http://www.w3.org/2000/svg" width="2219.7" height="565.92" viewBox="0 0 2219.7 565.92">
  <defs>
    <style>
      .cls-1 {
        fill: #f9ba15;
      }

      .cls-2 {
        fill: #fff;
      }

      .cls-3 {
        fill: #8cc4de;
      }
    </style>
  </defs>
  <g>
    <g>
      <path class="cls-3" d="m1955.1,165h-6.4l8.8,45.5c.1.9.9,1.6,1.8,1.6h3.5c1.3,0,1.9-.4,1.6-1.9l-9.3-45.2Z"/>
      <g>
        <path class="cls-3" d="m1876.7,124.5l11.3,33.5h6.6l-16.5-49.1c-.3-.7-.7-1-1.5-1h-1.6c-.6,0-1.2.4-1.3,1l-20.9,101.4c-.3,1.5.3,1.9,1.6,1.9h3.5c.9,0,1.6-.7,1.8-1.6l16.6-86.1h.4Z"/>
        <path class="cls-3" d="m1943.5,108.9c-.1-.6-.7-1-1.3-1h-1.6c-.7,0-1.2.3-1.5,1l-30.4,90.2h-.3l-11.4-34.1h-6.6l16,47.4c.3,1,1.2,1.2,1.9,1.2h.6c.9,0,1.8-.3,2.1-1.2l29.7-88h.3l6.5,33.5h6.3l-10.3-49Z"/>
      </g>
    </g>
    <g>
      <path class="cls-2" d="m456.8,158h6v-46.7c0-1-.7-1.9-1.9-1.9h-3.1c-1,0-1.9.9-1.9,1.9v46.8h.9v-.1Z"/>
      <path class="cls-2" d="m456.8,165h-.9v45.2c0,1,.9,1.9,1.9,1.9h3.1c1.2,0,1.9-.9,1.9-1.9v-45.2h-6Z"/>
    </g>
    <g>
      <path class="cls-2" d="m671.5,158h4.1v-46.8c0-1-.9-1.9-1.8-1.9h-3.2c-1,0-1.9.9-1.9,1.9v46.8h2.8Z"/>
      <path class="cls-2" d="m722.5,206h-46.9v-41h-6.9v45.2c0,1,.9,1.9,1.9,1.9h51.9c1,0,1.9-.6,1.9-1.6v-2.6c0-1-.1-1.9-1.9-1.9Z"/>
    </g>
    <g>
      <path class="cls-2" d="m968.3,158h6.1v-46.8c0-1-.9-1.9-1.9-1.9h-3.3c-1,0-1.9.9-1.9,1.9v46.8h1Z"/>
      <path class="cls-2" d="m973.3,165h-5.9v45.2c0,1,.9,1.9,1.9,1.9h3.1c1,0,2.1-.7,2.1-1.9v-45.2h-1.2Z"/>
    </g>
    <g>
      <path class="cls-2" d="m1074,165h-5.1v45.2c0,1.2.7,1.9,1.9,1.9h2.9c1.2,0,2.2-.4,2.2-1.9v-45.2h-1.9Z"/>
      <path class="cls-2" d="m1068.9,158h15.1l49.7-46.2c.9-.9.7-2.5-.9-2.5h-4.1c-1.3,0-1.8,0-2.9,1l-50,46.6v-45.4c0-1.3-.9-2.2-2.2-2.2h-2.6c-1.3,0-2.2.9-2.2,2.2l.1,46.5h0Z"/>
      <path class="cls-2" d="m1135.4,209.7l-46.7-44.6h-9.5l47,45.7c1.2,1.2,1.9,1.5,3.2,1.5h4.7c1.9-.1,2.2-1.9,1.3-2.6Z"/>
    </g>
    <g>
      <path class="cls-2" d="m1302,206h-53.8v-41h-7.1v45.2c0,1,.9,1.9,1.9,1.9h58.9c1,0,1.9-.9,1.9-1.9v-2.3c.1-1-.7-1.9-1.8-1.9Z"/>
      <path class="cls-2" d="m1302,109.3h-58.9c-1,0-1.9.9-1.9,1.9v46.8h7.1v-42.3h53.8c1,0,1.9-.9,1.9-1.9v-2.5c-.1-1.1-.9-2-2-2Z"/>
    </g>
    <g>
      <path class="cls-3" d="m1490.4,109.3h-63.2c-1,0-1.9.7-1.9,1.9v2.2c0,1.3.4,2.2,1.9,2.2h28.1v42.3h6.9v-42.3h28.2c1.2,0,1.9-.9,1.9-1.9v-2.5c0-1-.7-1.9-1.9-1.9Z"/>
      <path class="cls-3" d="m1460.1,165h-4.9v45.2c0,1,.9,1.9,1.9,1.9h2.6c1.5,0,2.4-.9,2.4-1.9v-45.2h-2Z"/>
    </g>
    <g>
      <path class="cls-2" d="m274.7,158h19c-1.4-.5-2.8-1-4.2-1.5-14.8-4.8-24.4-10.3-24.4-22.8,0-8.4,6.8-19.5,24.8-19.5,11.3,0,21.2,6.6,21.6,6.9,1.5.9,2.4.4,3.2-.7.3-.6.7-1.3,1.2-1.9,1-1.6,0-2.6-.6-3.1,0,0-10.7-7.5-25.3-7.5-22.9,0-31.7,15-31.7,26-.1,12.5,6.2,19.1,16.4,24.1Z"/>
      <path class="cls-2" d="m308.6,164.8c0,.1-.1.2-.1.2h-15.7c14,5.3,22.3,11.3,22.3,22.7,0,10.7-11.3,19.7-24.7,19.7-14.8,0-25.7-10-27.2-11.3-1.2-1-2.2-.6-3.2.6l-1.3,1.8c-1.2,1.6-.4,2.4.4,3.1,1.9,1.8,13.7,12,31.2,12s32-11.5,32-26.2c0-10.6-5-17.3-13.7-22.6Z"/>
    </g>
    <path class="cls-2" d="m340.2,160.9c0,29.5,23.8,52.8,53.2,52.8,13.1,0,25.9-4.6,35.9-14.3.7-.7.7-1.9,0-2.5l-2.5-2.5c-.6-.4-1.5-.4-2.4.3-8.8,7.3-18.4,12.3-31,12.3-25.7,0-45.8-20.9-45.8-46.1s20.1-46.4,45.8-46.4c12,0,22.6,4.6,31,12,.9.9,1.6,1,2.5.1l2.4-2.5c.7-.7.6-1.9-.1-2.6-9.6-8.7-20.7-13.7-35.7-13.7-29.5.1-53.3,23.7-53.3,53.1"/>
    <path class="cls-2" d="m528.9,162.5v47.8c0,1,.9,1.9,1.9,1.9h3.1c1.2,0,1.9-.9,1.9-1.9v-99c0-1-.7-1.9-1.9-1.9h-3.1c-1,0-1.9.9-1.9,1.9v45.1"/>
    <g>
      <path class="cls-2" d="m580.9,165h-5.7l-20,45.4c-.4,1.2,0,1.8,1,1.8h4.1c1,0,1.8-.7,2.1-1.3l19.9-45.8h-1.4v-.1Z"/>
      <path class="cls-2" d="m649.3,210.4l-44.8-102.3c-.4-.9-1.2-1-1.9-1h-.4c-.7,0-1.5.4-1.8,1l-22.1,49.8h7l17-39.1h.3l39.5,92c.3.6,1,1.3,2.1,1.3h3.8c1.6.1,1.6-.8,1.3-1.7Z"/>
    </g>
    <path class="cls-2" d="m743.5,210.3c0,1.2.7,1.9,1.9,1.9h2.9c1.2,0,2.2-.4,2.2-1.9v-48.4l50.3,48.8c1.2,1.2,1.9,1.5,3.2,1.5h4.7c1.9,0,2.2-1.8,1.3-2.5l-52.8-50.4,51.1-47.5c.9-.9.7-2.5-.9-2.5h-4.1c-1.3,0-1.8,0-2.9,1l-50,46.6v-45.4c0-1.3-.9-2.2-2.2-2.2h-2.6c-1.3,0-2.2.9-2.2,2.2v98.8h.1Z"/>
    <g>
      <path class="cls-2" d="m941.9,109.3h-3.5c-.9,0-1.6.7-1.8,1.6l-24.5,86.1h-.3l-9.5-32h-6.3l14.1,47.6c.3.7.7,1,1.5,1h1.6c.6,0,1.2-.4,1.3-1l29.1-101.4c.2-1.4-.4-1.9-1.7-1.9Z"/>
      <g>
        <path class="cls-2" d="m836.7,158h7l-13.5-47.1c-.1-.9-.9-1.6-1.8-1.6h-3.5c-1.3,0-1.9.4-1.6,1.9l13.4,46.8Z"/>
        <path class="cls-2" d="m885.8,109.2c-.3-.9-1.3-1.3-2.2-1.3h-.3c-.9,0-1.9.4-2.2,1.3l-25.9,87.9h-.3l-9.2-32h-7l13.7,47.6c.1.6.7,1,1.3,1h1.6c.7,0,1.2-.3,1.5-1l26.4-89.5h.3l10.3,34.9h6.3l-14.3-48.9Z"/>
      </g>
    </g>
    <path class="cls-2" d="m989.2,202.6c2.5,3.1,9.6,11,22.5,11,17.5,0,28.5-11.9,28.5-32.5v-69.9c0-1-.9-1.9-1.9-1.9h-2.9c-1.2,0-2.1.7-2.1,1.9v70.1c0,17.5-9,26.2-21.5,26.2-9.7,0-14.8-5.9-18.1-9.1-1-1-1.8-.7-2.5,0l-1.9,1.8c-.7.7-.7,1.6-.1,2.4"/>
    <path class="cls-2" d="m1152.7,201.6c1.9,1.8,13.7,12,31.2,12s32-11.5,32-26.2c0-17-12.8-24.1-32.9-31-14.8-4.8-24.4-10.3-24.4-22.8,0-8.4,6.8-19.5,24.8-19.5,11.3,0,21.2,6.6,21.6,6.9,1.5.9,2.4.4,3.2-.7.3-.6.7-1.3,1.2-1.9,1-1.6,0-2.6-.6-3.1,0,0-10.7-7.5-25.3-7.5-22.9,0-31.7,15-31.7,26,0,16.9,11.3,22.9,28.4,28.9,17.8,6,28.5,11.9,28.5,25,0,10.7-11.3,19.7-24.7,19.7-14.8,0-25.7-10-27.2-11.3-1.2-1-2.2-.6-3.2.6l-1.3,1.8c-1.2,1.6-.4,2.4.4,3.1"/>
    <path class="cls-3" d="m1351.2,201.6c1.9,1.8,13.7,12,31.2,12s32-11.5,32-26.2c0-17-12.8-24.1-32.9-31-14.8-4.8-24.4-10.3-24.4-22.8,0-8.4,6.8-19.5,24.8-19.5,11.3,0,21.2,6.6,21.6,6.9,1.5.9,2.4.4,3.2-.7.3-.6.7-1.3,1.2-1.9,1-1.6,0-2.6-.6-3.1,0,0-10.7-7.5-25.3-7.5-22.9,0-31.7,15-31.7,26,0,16.9,11.3,22.9,28.4,28.9,17.8,6,28.5,11.9,28.5,25,0,10.7-11.3,19.7-24.7,19.7-14.8,0-25.7-10-27.2-11.3-1.2-1-2.2-.6-3.2.6l-1.3,1.8c-1.2,1.6-.5,2.4.4,3.1"/>
    <g>
      <path class="cls-3" d="m1576,140.8c0,4.2-1,7.8-2.7,11-3.2,3.7-5.9,5.4-8.6,6.2h11.6c3.8-3.9,6.8-11.6,6.8-17.2,0-17.9-14.8-31.4-32.8-31.4h-36.4c-1.2,0-1.9.9-1.9,1.9v99c0,1,.9,1.9,1.9,1.9h2.6c1.5,0,2.4-.9,2.4-1.9l.1-51.1v-43.2h30.9c14.2.1,26.1,10.8,26.1,24.8Z"/>
      <path class="cls-3" d="m1590,209.5l-24.9-44.5h-8.3l25.5,45.8c.4.9,1,1.3,2.1,1.3h4.6c1.5.1,1.8-1.4,1-2.6Z"/>
    </g>
    <path class="cls-3" d="m1706,165h-3.2c-2.1,23.7-22.1,42.1-46.4,42.1-25.7,0-46.4-20.6-46.4-46.3s20.7-46.6,46.4-46.6,45,19.3,46.5,43.7h6.6c-1.5-28-24.4-50.1-53-50.1s-52.9,23.7-52.9,53,23.5,52.8,52.9,52.8,50.8-21.1,52.9-48.6h-3.4Z"/>
  </g>
  <path class="cls-1" d="m1821.1,195.9c7.4-8.3,12.1-19,13-30.9h387.27v-7.1h-387.07v.1c-.6-11.9-5.1-22.7-12.3-31.3l39-39.1c.8-.8.8-2,0-2.8l-2.2-2.2c-.77-.77-2.03-.77-2.8,0l-38.9,38.9c-8.4-7.7-19.4-12.7-31.6-13.6V22.4c0-1.1-.9-2-2-2h-3.1c-1.1,0-2,.9-2,2v85.4c-12.4.7-23.5,5.5-32.2,13.2l-39.3-39.3c-.77-.77-2.03-.77-2.8,0l-2.2,2.2c-.77.77-.77,2.03,0,2.8l39.3,39.3c-7.4,8.6-12.2,19.7-12.8,31.8H-.43v7h1728.93c.9,12.2,5.9,23.1,13.6,31.5l-39.1,39.1c-.77.77-.77,2.03,0,2.8l2.2,2.2c.77.77,2.03.77,2.8,0l39.2-39.2c8.5,7.1,19.3,11.5,31.2,12.1v335.4c0,1.1.9,2,2,2h3.1c1.1,0,2-.9,2-2V213.5c11.7-.9,22.3-5.4,30.6-12.6l39.9,39.9c.77.77,2.03.77,2.8,0l2.2-2.2c.77-.77.77-2.03,0-2.8l-39.9-39.9Zm-38.9,11.3c-26.9.5-48.6-21.5-47.3-48.6,1.1-23.6,20.1-42.9,43.8-44.2,27.1-1.5,49.5,20.2,49.2,47.1-.3,24.9-20.8,45.2-45.7,45.7Z"/>
</svg>