<?xml version="1.0" encoding="UTF-8"?>
<svg id="Laag_1" data-name="Laag 1" xmlns="http://www.w3.org/2000/svg" width="2214.3" height="695.31" viewBox="0 0 2214.3 695.31">
  <defs>
    <style>
      .cls-1 {
        fill: #f8b915;
      }

      .cls-2 {
        fill: #f9ba17;
      }

      .cls-3 {
        fill: #fff;
      }

      .cls-4 {
        fill: #9dd2f3;
      }

      .cls-5 {
        fill: #31647e;
      }

      .cls-6 {
        fill: #8cc4de;
      }

      .cls-7 {
        fill: #a5d6cc;
      }

      .cls-8 {
        fill: #dbeeea;
      }

      .cls-9 {
        fill: #dbf0fd;
      }

      .cls-10 {
        fill: #d8eefd;
      }

      .cls-11 {
        fill: #a1c745;
      }

      .cls-12 {
        fill: #27726f;
      }

      .cls-13 {
        fill: #2a827f;
      }

      .cls-14 {
        fill: #2a586f;
      }

      .cls-15 {
        fill: #4793ba;
      }
    </style>
  </defs>
  <g>
    <path class="cls-6" d="m2213.8,695.31V70.18c-32.97,10.01-61.05,43.58-45.21,109.09-18.19-35.22-112.18-58.74-130.2,9.84-33.81-154.94-252.74-98.68-269.76-30.66.6-78.53-206.77-157.22-215.67,31.93-1.48-52.94-60.91-43.01-67.9-5.92-39.56-107.26-258.31-60.45-236.27,54.21-138.27-20.89-128.67,111.51-115.44,159.66-30.42-19.74-78.71-21.34-118.55,15.71-4.95,1.05-9.81,2.24-14.58,3.56,30.33-125.26-166.01-188.65-208.77-90.09-54.95-246.65-462.41-212.51-487.36-23.11C214.29,170.79,80.36,175.62,3.08,233.5v461.81h2210.72Z"/>
    <path class="cls-1" d="m510.35,391.16c0,109.47,91.36,195.52,205.56,195.52s206.14-86.05,206.14-195.52-91.36-196.61-206.14-196.61-205.56,87.69-205.56,196.61"/>
  </g>
  <path class="cls-3" d="m2213.8,695.31v-187.52c-7.4,4.88-13.47,10.56-18.96,16.41h-3.95c-.08-.19-.1-.41-.04-.63,2.43-8.51-8.33-17.84-19.36-21.45-6.82-2.24-14.27-2.64-21.56-1.24-7.05,1.35-13.4,3.95-19.58,6.47-1.25.51-3.08-.15-2.99-1.14.79-11.24,5.55-22.12,7.06-33.3,1.26-9.08-.34-18.17-3.14-27.06-4.82-15.38-13.79-31.53-31.28-42.68-16.23-10.34-40.81-14.39-62.04-8.62-19.55,5.31-32.67,17.71-40.02,30.3-7.59,13.01-10.62,27.84-6.45,41.6.85,1.48,1.45,3.04,1.74,4.66,0,.01,0,.03,0,.05h0c.01.11.06.22.08.35.22,1.5-3.3,1.71-3.9.35-.72-1.62-1.29-3.25-1.8-4.9-1.7-2.83-4.4-5.45-7.29-7.76-4.19-3.38-9.03-6.45-14.02-9.29-10.87-6.23-24.91-10.96-39.48-11.55-13.05-.54-25.23,2.56-34.11,8.87-7.7,5.48-12.47,12.6-14.65,19.87-.05.17-.09.33-.14.5-6.89,3.33-12.81,7.61-17.1,12.71-1.75-.66-3.57-1.24-5.44-1.75,5.02-10.29,5.45-21.77,2.63-32.43-2.93-11-9.35-21.77-19.71-30.07-11.94-9.54-28.34-14.23-45.89-13.42-.17,0-.34.02-.51.03-.77-2.19-1.78-4.33-3.05-6.38-1.57-2.53-3.51-4.92-6.03-6.93,1.09-3.89,1.56-7.87,1.35-11.87-.31-5.91-2.07-11.88-5.42-17.25-2.63-4.23-6.18-8.15-11.49-10.77-16.06-7.91-40.97-4.15-52.52,7.16-1.23-.8-2.53-1.53-3.88-2.17,2-5.7,1.98-11.81.46-17.55-1.84-6.92-5.88-13.69-12.39-18.9-7.51-6-17.81-8.94-28.85-8.43-12.32.56-24.19,5.06-33.39,10.99-2.97,1.9-5.86,3.92-8.55,6.06-3.28-3.44-7.14-6.55-11.6-9.07-.89-7.15-3.2-14.23-6.62-20.81-6.21-11.98-17.31-23.78-33.84-28.82-17.95-5.48-38.74-1.64-52.46,8.2-12.98,9.31-20.41,22.28-24.79,35.21-6.21-8.14-14.03-15.66-23.93-21.97-21.38-13.63-53.76-18.95-81.73-11.36-25.75,6.99-43.05,23.33-52.72,39.91-10,17.14-13.99,36.68-8.5,54.8,1.12,1.95,1.91,4,2.3,6.14,0,.01,0,.04.01.06h-.01c.02.15.08.29.1.46.29,1.97-4.34,2.25-5.14.46-.94-2.13-1.7-4.28-2.38-6.45-2.24-3.73-5.8-7.18-9.61-10.23-5.52-4.45-11.9-8.49-18.48-12.24-14.32-8.21-32.81-14.43-52.01-15.21-17.19-.71-33.24,3.37-44.94,11.68-6.65,4.73-11.63,10.39-15.09,16.43-5.98-3.12-13.17-4.58-20.75-4.23-11.07.51-21.74,4.54-30,9.87-3.79,2.43-7.47,5.05-10.66,7.94-2.2,1.98-4.25,4.21-5.54,6.64-.13.46-.27.91-.41,1.36-1.14.08-2.28.18-3.42.31.23-.72.52-1.42.87-2.11,3.16-11.76.87-24.44-4.9-35.56-5.58-10.76-15.56-21.37-30.41-25.9-16.13-4.93-34.81-1.47-47.14,7.37-7.01,5.03-12.21,11.26-16.11,17.94-7.89-7.28-17.66-13.34-29.41-16.93-24.86-7.59-53.64-2.27-72.65,11.36-20.48,14.69-30.98,35.97-36.63,56.23-3.28,11.71-5.15,23.69-3.67,35.64,1.77,14.72,7.34,29.06,8.27,43.87.1,1.31-2.03,2.17-3.5,1.5-7.24-3.33-14.68-6.75-22.93-8.53-8.54-1.85-17.26-1.32-25.25,1.63-3.82,1.41-7.6,3.48-10.97,5.98-3.63-5.78-8.5-11.12-15.77-14.7-19.16-9.44-47.44-6.87-65.12,4.04-4.87.89-9.5,2.52-13.66,4.65,3.45-8.39,3.59-17.54,1.33-26.09-2.55-9.58-8.14-18.95-17.16-26.17-10.4-8.31-24.67-12.39-39.95-11.68-17.06.78-33.5,7-46.23,15.21-5.84,3.75-11.51,7.79-16.42,12.24-3.39,3.05-6.55,6.5-8.54,10.23-.6,2.17-1.27,4.32-2.11,6.45-.71,1.8-4.82,1.52-4.57-.46.02-.17.08-.32.09-.46h-.01s.01-.05.01-.06c.34-2.13,1.04-4.18,2.04-6.14,4.88-18.12,1.34-37.66-7.56-54.8-8.6-16.59-23.98-32.92-46.87-39.91-24.86-7.6-53.64-2.27-72.65,11.36-20.48,14.69-30.98,35.97-36.63,56.23-3.28,11.71-5.15,23.69-3.67,35.64,1.77,14.72,7.34,29.06,8.27,43.87.1,1.31-2.03,2.17-3.5,1.5-7.24-3.33-14.68-6.75-22.93-8.53-6.91-1.5-13.95-1.44-20.62.21-2.19-2.95-4.99-5.62-8.84-7.52-16.31-8.04-42.81-2.68-50.61,10.74-.85,1.32-3.35.16-2.6-1.13,4.19-6.43,4.78-13.97,2.94-20.9-1.66-6.22-5.28-12.3-11.14-16.99-6.75-5.39-16.01-8.04-25.92-7.58-11.07.51-21.74,4.54-30,9.87-3.79,2.43-7.47,5.05-10.66,7.94-2.2,1.98-4.25,4.21-5.54,6.63-.39,1.41-.83,2.8-1.37,4.19-.46,1.17-3.13.98-2.97-.3.01-.11.05-.21.06-.3h0s0-.03,0-.04c.22-1.39.68-2.72,1.32-3.98,3.16-11.76.87-24.44-4.9-35.56-5.58-10.76-15.56-21.37-30.41-25.9-16.13-4.93-34.81-1.47-47.14,7.37-13.29,9.53-20.11,23.34-23.77,36.49-2.13,7.6-3.34,15.37-2.38,23.13,1.15,9.55,4.76,18.86,5.37,28.47.07.85-1.32,1.41-2.27.97-4.7-2.16-9.52-4.38-14.88-5.53-5.54-1.2-11.2-.86-16.39,1.06-8.38,3.09-16.56,11.06-14.71,18.34.31,1.22-1.83,1.98-2.76.86-4.32-5.2-9.09-10.26-14.97-14.56-5.09-3.76-11.33-7.11-18.59-7.98-7.77-.91-15.49,1.58-21.09,5.51-7.29,5.13-11.57,12.63-11.81,20.13H3.08v171.12h2210.72Z"/>
  <rect class="cls-6" x="773.26" y="595.81" width="190.29" height="99.5"/>
  <path class="cls-14" d="m703.94,420.6c46.14-38.06,105.68-58.9,167.77-58.9s121.63,20.84,167.77,58.9c43.59,35.94,68.89,82.72,69.32,128.43h-474.18c.43-45.5,25.73-92.28,69.32-128.43m332.78,109.3h24.24v-60.81l-.21-.43c-6.38-8.51-13.61-16.37-21.69-23.6l-2.13-2.13v86.97h-.21Zm-39.34,0h24.24v-99.09l-.64-.43c-6.8-4.89-14.25-9.57-21.69-13.82l-1.91-1.06v114.4Zm-39.34,0h24.24v-122.05l-.85-.43c-7.02-3.19-14.25-6.17-21.69-8.72l-1.7-.64v131.83Zm-39.34,0h24.24v-136.3l-1.06-.21c-7.02-1.91-14.25-3.61-21.69-4.89l-1.49-.21v141.62Zm-39.34,0h24.24v-143.96l-1.28-.21c-7.23-.85-14.46-1.28-21.69-1.49h-1.28v145.66h0Zm-39.55,0h24.24v-145.66h-1.28c-7.23.21-14.46.85-21.69,1.49l-1.28.21v143.96h0Zm-39.34,0h24.24v-141.83l-1.49.21c-7.23,1.28-14.67,2.98-21.69,4.89l-1.06.21v136.51Zm-39.34,0h24.24v-131.83l-1.7.64c-7.44,2.55-14.67,5.53-21.69,8.72l-.85.43v122.05Zm-39.34,0h24.24v-114.61l-1.91,1.06c-7.44,4.25-14.88,8.93-21.69,13.82l-.64.43v99.3Zm-39.34-61.24v61.24h24.24v-87.18l-2.13,2.13c-8.08,7.23-15.31,15.31-21.69,23.6l-.43.21Z"/>
  <polygon class="cls-8" points="620.16 631.53 689.06 631.53 689.06 527.98 655.25 495.66 620.16 531.17 620.16 631.53"/>
  <rect class="cls-2" x="643.98" y="543.29" width="21.26" height="20.84"/>
  <rect class="cls-2" x="643.98" y="578.16" width="21.26" height="20.84"/>
  <polygon class="cls-7" points="503.85 631.53 620.16 631.53 620.16 519.26 538.94 495.44 503.85 531.17 503.85 631.53"/>
  <rect class="cls-2" x="529.58" y="543.29" width="21.26" height="21.05"/>
  <rect class="cls-2" x="529.58" y="578.59" width="21.26" height="21.05"/>
  <rect class="cls-2" x="572.96" y="543.29" width="21.26" height="21.05"/>
  <rect class="cls-2" x="572.96" y="578.59" width="21.26" height="21.05"/>
  <polygon class="cls-15" points="503.85 531.17 620.16 531.17 655.25 495.66 538.94 495.66 503.85 531.17"/>
  <path class="cls-11" d="m2214.3,695.31v-119.7H966.87c-8.75,0-15.84,7.09-15.84,15.84v103.86h1263.27Z"/>
  <path class="cls-11" d="m785.17,695.31v-104.73c0-6.81-5.52-12.33-12.33-12.33h-180.95c-6.81,0-12.33-5.52-12.33-12.33s-5.52-12.33-12.33-12.33H243.16c-19.97,0-38.23,8.02-52.22,21.27-2.29,2.17-5.32,3.4-8.48,3.4H6.28c-1.08,0-2.15.06-3.2.18v116.89h782.09Z"/>
  <polygon class="cls-10" points="530 659.39 604.43 659.39 604.43 583.48 568.07 548.18 530 583.48 530 659.39"/>
  <polygon class="cls-5" points="530 583.48 454.73 583.48 491.94 548.18 568.07 548.18 530 583.48"/>
  <rect class="cls-4" x="454.73" y="583.48" width="75.27" height="75.91"/>
  <rect class="cls-2" x="555.1" y="599.85" width="29.56" height="30.62"/>
  <rect class="cls-2" x="494.92" y="603.04" width="20.84" height="27.86"/>
  <rect class="cls-2" x="463.24" y="603.04" width="20.84" height="27.86"/>
  <polygon class="cls-8" points="656.52 670.23 727.33 670.23 727.33 603.46 692.67 572.21 656.52 603.46 656.52 670.23"/>
  <polygon class="cls-5" points="656.52 603.46 585.08 603.46 620.38 572.21 692.67 572.21 656.52 603.46"/>
  <rect class="cls-7" x="585.08" y="603.46" width="71.45" height="66.77"/>
  <rect class="cls-7" x="679.28" y="619.41" width="28.07" height="27"/>
  <rect class="cls-5" x="623.35" y="620.69" width="19.78" height="24.45"/>
  <rect class="cls-5" x="593.16" y="620.69" width="19.78" height="24.45"/>
  <polygon class="cls-8" points="2080.55 589 2159.02 589 2159.02 499.06 2120.53 456.96 2080.55 499.06 2080.55 589"/>
  <polygon class="cls-5" points="2080.55 499.06 2001.45 499.06 2040.58 456.96 2120.53 456.96 2080.55 499.06"/>
  <rect class="cls-7" x="2001.45" y="499.06" width="79.1" height="89.95"/>
  <rect class="cls-7" x="2105.86" y="520.54" width="31.04" height="36.36"/>
  <rect class="cls-5" x="2043.77" y="522.24" width="21.9" height="33.17"/>
  <rect class="cls-5" x="2054.4" y="535.42" width="30.41" height="40.61"/>
  <polygon class="cls-10" points="1456.04 3.61 1491.97 262.61 1419.68 262.61 1456.04 3.61"/>
  <polygon class="cls-5" points="1455.83 0 1455.4 258.99 1419.25 258.99 1455.83 0"/>
  <rect class="cls-5" x="1386.51" y="388.7" width="69.32" height="233.9"/>
  <path class="cls-15" d="m1455.83,367.86h-48.48c-11.48,0-20.84,9.36-20.84,20.84h69.32v-20.84Z"/>
  <rect class="cls-5" x="1401.82" y="275.79" width="54.01" height="92.07"/>
  <path class="cls-15" d="m1455.83,254.95h-29.56c-13.4,0-24.45,9.36-24.45,20.84h54.01v-20.84Z"/>
  <rect class="cls-10" x="1455.83" y="388.7" width="69.32" height="233.9"/>
  <rect class="cls-10" x="1434.35" y="522.24" width="90.8" height="100.36"/>
  <rect class="cls-5" x="1278.06" y="522.24" width="156.29" height="100.36"/>
  <path class="cls-4" d="m1455.83,367.86h48.48c11.48,0,20.84,9.36,20.84,20.84h-69.32v-20.84Z"/>
  <rect class="cls-10" x="1455.83" y="275.79" width="56.77" height="92.07"/>
  <path class="cls-4" d="m1455.83,254.95h31.04c14.25,0,25.73,9.36,25.73,20.84h-56.77v-20.84h0Z"/>
  <path class="cls-4" d="m1490.27,409.96h0c7.23,0,13.18,5.95,13.18,13.18v39.55h-26.37v-39.55c0-7.23,5.95-13.18,13.18-13.18"/>
  <path class="cls-15" d="m1421.17,409.96h0c7.23,0,13.18,5.95,13.18,13.18v39.55h-26.37v-39.55c0-7.23,5.95-13.18,13.18-13.18"/>
  <path class="cls-15" d="m1428.82,304.92h0c7.23,0,13.18,3.83,13.18,8.51v25.3h-26.37v-25.3c0-4.68,5.95-8.51,13.18-8.51"/>
  <path class="cls-4" d="m1479.64,304.92h0c7.23,0,13.18,3.83,13.18,8.51v25.3h-26.37v-25.3c0-4.68,5.95-8.51,13.18-8.51"/>
  <path class="cls-15" d="m1356.1,533.29h0c7.23,0,13.18,3.83,13.18,8.51v25.3h-26.37v-25.3c0-4.68,5.95-8.51,13.18-8.51"/>
  <path class="cls-15" d="m1310.38,533.29h0c7.23,0,13.18,3.83,13.18,8.51v25.3h-26.37v-25.3c0-4.68,5.95-8.51,13.18-8.51"/>
  <polygon class="cls-10" points="1937.24 594.11 2017.83 594.11 2017.83 433.78 1978.27 390.83 1937.24 426.12 1937.24 594.11"/>
  <rect class="cls-2" x="1965.09" y="447.6" width="24.88" height="24.88"/>
  <rect class="cls-4" x="1965.09" y="489.49" width="24.88" height="24.88"/>
  <rect class="cls-4" x="1965.09" y="531.38" width="24.88" height="24.88"/>
  <polygon class="cls-4" points="1801.36 594.11 1937.24 594.11 1937.24 426.12 1842.4 390.61 1801.36 433.14 1801.36 594.11"/>
  <rect class="cls-2" x="1831.56" y="447.6" width="24.88" height="24.88"/>
  <rect class="cls-12" x="1831.56" y="489.49" width="24.88" height="24.88"/>
  <rect class="cls-12" x="1831.56" y="531.38" width="24.88" height="24.88"/>
  <rect class="cls-15" x="1882.16" y="447.6" width="24.88" height="24.88"/>
  <rect class="cls-2" x="1882.16" y="489.49" width="24.88" height="24.88"/>
  <rect class="cls-15" x="1882.16" y="531.38" width="24.88" height="24.88"/>
  <polygon class="cls-12" points="1801.36 433.14 1937.24 433.14 1978.27 390.83 1842.4 390.83 1801.36 433.14"/>
  <polygon class="cls-10" points="1219.37 640.68 1305.28 640.68 1305.28 484.39 1263.18 442.5 1219.37 477.16 1219.37 640.68"/>
  <rect class="cls-2" x="1248.93" y="497.78" width="26.58" height="24.24"/>
  <rect class="cls-4" x="1248.93" y="538.82" width="26.58" height="24.24"/>
  <rect class="cls-4" x="1248.93" y="579.65" width="26.58" height="24.24"/>
  <polygon class="cls-15" points="1074.78 640.68 1219.37 640.68 1219.37 477.16 1118.37 442.5 1074.78 483.75 1074.78 640.68"/>
  <rect class="cls-14" x="1106.89" y="497.78" width="26.58" height="24.24"/>
  <rect class="cls-14" x="1106.89" y="538.82" width="26.58" height="24.24"/>
  <rect class="cls-14" x="1106.89" y="579.65" width="26.58" height="24.24"/>
  <rect class="cls-14" x="1160.69" y="497.78" width="26.58" height="24.24"/>
  <rect class="cls-14" x="1160.69" y="538.82" width="26.58" height="24.24"/>
  <rect class="cls-14" x="1160.69" y="579.65" width="26.58" height="24.24"/>
  <polygon class="cls-14" points="1074.78 483.75 1219.37 483.75 1263.18 442.5 1118.37 442.5 1074.78 483.75"/>
  <rect class="cls-12" x="1619.13" y="441.86" width="106.74" height="69.74"/>
  <polygon class="cls-8" points="1671.44 619.2 1778.18 619.2 1778.18 498.63 1725.87 441.65 1671.44 498.63 1671.44 619.2"/>
  <polygon class="cls-7" points="1564.91 619.2 1671.44 619.2 1671.44 498.63 1619.13 441.65 1564.91 498.63 1564.91 619.2"/>
  <rect class="cls-2" x="1708.44" y="505.65" width="32.96" height="32.96"/>
  <rect class="cls-7" x="1708.44" y="561.15" width="32.96" height="32.96"/>
  <rect class="cls-12" x="1601.69" y="505.65" width="32.96" height="32.96"/>
  <rect class="cls-12" x="1601.69" y="561.15" width="32.96" height="32.96"/>
  <polygon class="cls-10" points="1074.99 664.7 1156.01 664.7 1156.01 567.32 1116.46 521.81 1074.99 567.32 1074.99 664.7"/>
  <polygon class="cls-5" points="1074.99 567.32 993.34 567.32 1033.74 521.81 1116.46 521.81 1074.99 567.32"/>
  <rect class="cls-4" x="993.34" y="567.32" width="81.65" height="97.39"/>
  <rect class="cls-4" x="1102.42" y="588.15" width="32.11" height="39.55"/>
  <rect class="cls-5" x="1037.14" y="592.41" width="22.75" height="35.94"/>
  <rect class="cls-5" x="1002.7" y="592.41" width="22.75" height="35.94"/>
  <rect class="cls-12" x="1493.68" y="463.34" width="96.96" height="63.37"/>
  <polygon class="cls-10" points="1541.31 624.3 1638.06 624.3 1638.06 514.79 1590.64 463.12 1541.31 514.79 1541.31 624.3"/>
  <polygon class="cls-15" points="1444.34 624.3 1541.31 624.3 1541.31 514.79 1493.68 463.12 1444.34 514.79 1444.34 624.3"/>
  <rect class="cls-2" x="1574.69" y="521.17" width="29.98" height="29.98"/>
  <rect class="cls-4" x="1574.69" y="571.57" width="29.98" height="29.98"/>
  <rect class="cls-9" x="1477.73" y="521.17" width="29.98" height="29.98"/>
  <rect class="cls-9" x="1477.73" y="571.57" width="29.98" height="29.98"/>
  <polygon class="cls-10" points="1386.29 661.3 1464.33 661.3 1464.33 542.44 1426.06 505.23 1386.29 546.26 1386.29 661.3"/>
  <rect class="cls-4" x="1413.3" y="560.09" width="24.24" height="23.82"/>
  <rect class="cls-2" x="1413.3" y="600.06" width="24.24" height="23.82"/>
  <polygon class="cls-4" points="1254.67 661.3 1386.29 661.3 1386.29 532.44 1294.43 505.23 1254.67 546.26 1254.67 661.3"/>
  <rect class="cls-2" x="1284.02" y="560.09" width="24.24" height="24.24"/>
  <rect class="cls-2" x="1284.02" y="600.7" width="24.24" height="24.24"/>
  <rect class="cls-15" x="1332.92" y="560.09" width="24.24" height="24.24"/>
  <rect class="cls-15" x="1332.92" y="600.7" width="24.24" height="24.24"/>
  <polygon class="cls-15" points="1254.67 546.26 1386.29 546.26 1426.06 505.23 1294.43 505.23 1254.67 546.26"/>
  <polygon class="cls-8" points="1808.8 636.42 1911.08 636.42 1911.08 532.44 1860.9 483.75 1808.8 532.44 1808.8 636.42"/>
  <polygon class="cls-5" points="1808.8 532.44 1705.67 532.44 1756.49 483.75 1860.9 483.75 1808.8 532.44"/>
  <rect class="cls-7" x="1705.67" y="532.44" width="103.34" height="103.98"/>
  <rect class="cls-7" x="1841.76" y="557.32" width="40.4" height="42.1"/>
  <rect class="cls-5" x="1760.75" y="559.24" width="28.71" height="38.27"/>
  <rect class="cls-5" x="1717.37" y="559.24" width="28.71" height="38.27"/>
  <polygon class="cls-10" points="1699.72 658.96 1774.14 658.96 1774.14 583.05 1737.78 547.54 1699.72 583.05 1699.72 658.96"/>
  <polygon class="cls-5" points="1699.72 583.05 1624.45 583.05 1661.66 547.54 1737.78 547.54 1699.72 583.05"/>
  <rect class="cls-4" x="1624.45" y="583.05" width="75.27" height="75.91"/>
  <rect class="cls-2" x="1724.81" y="599.21" width="29.56" height="30.62"/>
  <rect class="cls-2" x="1664.85" y="602.61" width="20.84" height="27.86"/>
  <rect class="cls-2" x="1633.17" y="602.61" width="20.84" height="27.86"/>
  <polygon class="cls-10" points="1986.36 650.03 2110.11 650.03 2110.11 524.15 2049.51 465.25 1986.36 524.15 1986.36 650.03"/>
  <polygon class="cls-5" points="1986.36 524.15 1861.32 524.15 1922.99 465.25 2049.51 465.25 1986.36 524.15"/>
  <rect class="cls-4" x="1861.32" y="524.15" width="125.03" height="126.09"/>
  <rect class="cls-2" x="2028.03" y="550.94" width="48.91" height="51.03"/>
  <rect class="cls-2" x="1928.09" y="556.47" width="34.66" height="46.35"/>
  <rect class="cls-2" x="1875.57" y="556.47" width="34.66" height="46.35"/>
  <rect class="cls-5" x="1592.98" y="610.69" width="2.55" height="52.95"/>
  <rect class="cls-14" x="1590.64" y="610.69" width="2.55" height="52.95"/>
  <path class="cls-13" d="m1622.53,588.15c0,16.59-12.76,29.98-28.28,29.98-10.42-20.63-10.84-40.61,0-60.18,15.74.21,28.28,13.61,28.28,30.19"/>
  <path class="cls-12" d="m1594.25,558.17c-10.63,18.71-11.06,38.7,0,60.18-15.74,0-28.28-13.4-28.28-29.98s12.76-30.19,28.28-30.19"/>
  <rect class="cls-5" x="1540.67" y="618.14" width="2.98" height="64.43"/>
  <rect class="cls-14" x="1537.69" y="618.14" width="2.98" height="64.43"/>
  <path class="cls-13" d="m1576.6,590.49c0,20.2-15.52,36.57-34.45,36.57-14.25-23.39-14.03-47.84,0-73.15,19.14,0,34.45,16.37,34.45,36.57"/>
  <path class="cls-12" d="m1542.16,553.92c-12.76,26.58-12.97,51.03,0,73.15-19.14,0-34.45-16.37-34.45-36.57s15.31-36.57,34.45-36.57"/>
  <rect class="cls-5" x="1488.15" y="622.6" width="1.91" height="41.25"/>
  <rect class="cls-14" x="1486.23" y="622.6" width="1.91" height="41.25"/>
  <path class="cls-13" d="m1511.11,604.95c0,12.97-9.78,23.39-22.11,23.39-12.55-15.52-12.55-31.26,0-46.78,12.12,0,22.11,10.63,22.11,23.39"/>
  <path class="cls-12" d="m1489,581.56c-6.59,15.52-6.59,31.26,0,46.78-12.12,0-22.11-10.42-22.11-23.39s9.99-23.39,22.11-23.39"/>
  <rect class="cls-5" x="371.38" y="502.67" width="2.55" height="56.14"/>
  <rect class="cls-14" x="368.83" y="502.67" width="2.55" height="56.14"/>
  <path class="cls-13" d="m402.64,478.65c0,17.65-13.4,31.9-29.98,31.9-12.33-20.41-12.12-41.68,0-63.79,16.59,0,29.98,14.25,29.98,31.9"/>
  <path class="cls-12" d="m372.65,446.75c-11.06,23.18-11.27,44.44,0,63.79-16.59,0-29.98-14.25-29.98-31.9s13.4-31.9,29.98-31.9"/>
  <rect class="cls-5" x="313.11" y="518.2" width="1.7" height="35.94"/>
  <rect class="cls-14" x="311.41" y="518.2" width="1.7" height="35.94"/>
  <path class="cls-13" d="m333.1,502.89c0,11.27-8.51,20.41-19.14,20.41-10.84-13.61-10.84-27.22,0-40.61,10.63-.21,19.14,8.93,19.14,20.2"/>
  <path class="cls-12" d="m313.97,482.47c-5.74,13.61-5.74,27.22,0,40.61-10.63,0-19.14-9.14-19.14-20.41s8.51-20.2,19.14-20.2"/>
  <rect class="cls-5" x="151.51" y="549.67" width="2.13" height="46.14"/>
  <rect class="cls-14" x="149.38" y="549.67" width="2.13" height="46.14"/>
  <path class="cls-13" d="m177.24,530.1c0,14.46-11.06,26.15-24.67,26.15-8.93-17.86-9.36-35.3,0-52.31,13.61,0,24.67,11.7,24.67,26.15"/>
  <path class="cls-12" d="m152.57,503.95c-9.14,16.37-9.57,33.81,0,52.31-13.61,0-24.67-11.7-24.67-26.15s11.06-26.15,24.67-26.15"/>
  <rect class="cls-5" x="106.01" y="556.05" width="2.55" height="56.14"/>
  <rect class="cls-14" x="103.24" y="556.05" width="2.55" height="56.14"/>
  <path class="cls-13" d="m137.26,532.23c0,17.65-13.4,31.9-29.98,31.9-12.33-20.41-12.12-41.68,0-63.79,16.59,0,29.98,14.25,29.98,31.9"/>
  <path class="cls-12" d="m107.28,500.33c-11.06,23.18-11.27,44.44,0,63.79-16.59,0-29.98-14.25-29.98-31.9-.21-17.65,13.4-31.9,29.98-31.9"/>
  <rect class="cls-5" x="60.08" y="560.09" width="1.7" height="35.94"/>
  <rect class="cls-14" x="58.38" y="560.09" width="1.7" height="35.94"/>
  <path class="cls-13" d="m80.06,544.78c0,11.27-8.51,20.41-19.14,20.41-10.84-13.61-10.84-27.22,0-40.61,10.63-.21,19.14,8.93,19.14,20.2"/>
  <path class="cls-12" d="m60.93,524.36c-5.74,13.61-5.74,27.22,0,40.61-10.63,0-19.14-9.14-19.14-20.41s8.51-20.2,19.14-20.2"/>
  <polygon class="cls-10" points="2110.54 666.83 2189.64 666.83 2189.64 586.45 2150.72 548.82 2110.54 586.45 2110.54 666.83"/>
  <polygon class="cls-5" points="2110.54 586.45 2030.58 586.45 2070.13 548.82 2150.72 548.82 2110.54 586.45"/>
  <rect class="cls-4" x="2030.58" y="586.45" width="79.74" height="80.38"/>
  <rect class="cls-4" x="2137.11" y="603.46" width="31.26" height="32.53"/>
  <rect class="cls-2" x="2073.32" y="607.08" width="22.11" height="29.56"/>
  <rect class="cls-15" x="2039.73" y="607.08" width="22.11" height="29.56"/>
</svg>