<?xml version="1.0" encoding="UTF-8"?>
<svg id="Laag_1" data-name="Laag 1" xmlns="http://www.w3.org/2000/svg" width="2216.55" height="657.12" viewBox="0 0 2216.55 657.12">
  <defs>
    <style>
      .cls-1 {
        fill: #fff;
      }

      .cls-2 {
        fill: #8cc4de;
      }

      .cls-3, .cls-4 {
        fill: #3dbaec;
      }

      .cls-5 {
        fill: #a1c745;
      }

      .cls-6 {
        fill: #4793ba;
      }

      .cls-4 {
        stroke: #fff;
        stroke-miterlimit: 10;
        stroke-width: 1.32px;
      }
    </style>
  </defs>
  <polygon class="cls-2" points="730.73 512.92 587.53 512.81 587.53 544.46 587.53 553.96 587.53 575.66 730.73 575.66 730.73 512.92"/>
  <path class="cls-2" d="m2216.55,543.2V64.78c-50.78-88.55-203.38-44.58-216.42,7.53.51-66.67-175.56-133.49-183.11,27.11-1.25-44.95-51.72-36.52-57.65-5.02-33.59-91.07-219.32-51.32-200.61,46.03-117.4-17.74-109.25,94.67-98.02,135.56-25.83-16.76-66.83-18.12-100.66,13.34-4.2.9-8.33,1.9-12.38,3.02,25.75-106.35-140.95-160.17-177.25-76.49-46.65-209.42-392.61-180.43-413.8-19.62-79.22-117.85-198.89-108.84-263.03-54.24v.06c-47.3-55.81-157.3-21.92-167.24,17.8.42-54.04-142.29-108.19-148.42,21.97-1.02-36.43-41.92-29.6-46.73-4.07C113.4,129.37,42.62,126.53.2,152.53v29.97c0,.22-.08.37-.2.49v119.02c.23.1.4.31.4.63v112.67c.12.12.2.28.2.49v125.7h493.02v1.7h1722.93Z"/>
  <path class="cls-1" d="m1441.35,407.73c-.18-5.63-3.43-11.26-8.96-15.12-4.25-2.95-10.11-4.82-16.01-4.14-5.51.65-10.24,3.17-14.11,5.99-4.46,3.23-8.08,7.04-11.36,10.94-.71.84-2.33.27-2.1-.64,1.4-5.47-4.8-11.45-11.17-13.78-3.94-1.44-8.23-1.7-12.44-.79-4.07.87-7.73,2.54-11.3,4.16-.72.33-1.77-.09-1.72-.73.46-7.22,3.2-14.21,4.07-21.38.73-5.83-.19-11.67-1.81-17.37-2.78-9.87-7.95-20.25-18.04-27.41-9.36-6.64-23.54-9.24-35.78-5.54-11.28,3.41-18.85,11.37-23.09,19.45-4.38,8.35-6.12,17.88-3.72,26.71.49.95.84,1.95,1.01,2.99,0,0,0,.02,0,.03h0c0,.07.04.14.04.23.13.96-1.9,1.1-2.25.22-.41-1.04-.75-2.09-1.04-3.15-.98-1.82-2.54-3.5-4.21-4.98-2.42-2.17-5.21-4.14-8.09-5.97-6.27-4-14.37-7.04-22.77-7.42-7.53-.34-14.56,1.64-19.68,5.69-4.44,3.52-7.2,8.09-8.45,12.76-1.39,5.21-.94,10.87,2.23,15.7.57.97-1.33,1.84-1.98.85-5.92-10.08-26.03-14.1-38.41-8.07-2.92,1.43-5.05,3.43-6.71,5.65-5.06-1.23-10.4-1.28-15.65-.16-6.27,1.33-11.91,3.91-17.41,6.4-1.11.5-2.73-.14-2.66-1.12.71-11.12,4.93-21.89,6.28-32.95,1.12-8.98-.3-17.98-2.79-26.77-4.29-15.22-12.26-31.2-27.8-42.23-14.43-10.23-36.27-14.24-55.14-8.53-17.38,5.25-29.04,17.52-35.58,29.98-6.75,12.87-9.44,27.55-5.74,41.16.76,1.47,1.29,3.01,1.55,4.61,0,.01,0,.03,0,.05h0c.01.11.06.22.07.35.19,1.48-2.93,1.69-3.47.34-.64-1.6-1.15-3.21-1.6-4.85-1.51-2.8-3.91-5.39-6.48-7.68-3.73-3.35-8.03-6.38-12.47-9.2-9.67-6.17-22.14-10.84-35.09-11.43-11.6-.53-22.43,2.53-30.32,8.77-6.85,5.42-11.09,12.46-13.03,19.66-1.72,6.42-1.61,13.3,1.01,19.6-3.16-1.6-6.68-2.83-10.37-3.5-13.42-8.2-34.89-10.12-49.43-3.03-5.52,2.69-9.21,6.7-11.97,11.04-2.56-1.88-5.43-3.43-8.33-4.49-6.07-2.22-12.69-2.61-19.17-1.22-6.27,1.33-11.91,3.91-17.41,6.4-1.11.5-2.73-.14-2.66-1.12.71-11.12,4.93-21.89,6.28-32.95,1.12-8.98-.3-17.98-2.79-26.77-4.29-15.22-12.26-31.2-27.8-42.23-14.43-10.23-36.27-14.23-55.14-8.53-8.92,2.69-16.33,7.24-22.32,12.71-2.96-5.02-6.9-9.7-12.23-13.48-9.36-6.64-23.54-9.24-35.78-5.54-11.28,3.41-18.85,11.37-23.09,19.45-4.38,8.35-6.12,17.88-3.72,26.71.27.51.48,1.04.66,1.58-.86-.09-1.72-.17-2.59-.23-.1-.34-.21-.68-.31-1.02-.98-1.82-2.54-3.5-4.21-4.98-2.42-2.17-5.21-4.14-8.09-5.97-6.27-4-14.37-7.04-22.77-7.42-5.75-.26-11.21.84-15.75,3.18-2.63-4.53-6.41-8.78-11.46-12.34-8.88-6.24-21.06-9.3-34.11-8.77-14.57.59-28.61,5.26-39.48,11.43-4.99,2.82-9.83,5.85-14.02,9.2-2.89,2.29-5.6,4.88-7.29,7.68-.51,1.63-1.09,3.25-1.8,4.85-.61,1.35-4.12,1.14-3.9-.34.02-.13.07-.24.08-.35h0s0-.04,0-.05c.29-1.6.89-3.14,1.74-4.61,4.16-13.61,1.14-28.29-6.45-41.16-7.35-12.46-20.48-24.73-40.02-29.98-21.23-5.7-45.81-1.7-62.04,8.53-7.51,4.74-13.45,10.39-18.16,16.5-3.33-9.71-8.96-19.45-18.82-26.44-10.42-7.39-26.2-10.28-39.82-6.16-12.55,3.79-20.97,12.65-25.69,21.65-2.59,4.95-4.35,10.26-5.02,15.63-3.39,1.9-6.31,4.23-8.8,6.81-2.05-1.61-4.24-3.12-6.49-4.55-6.98-4.45-15.99-7.83-25.34-8.25-8.37-.38-16.2,1.83-21.9,6.33-4.94,3.92-8.01,9-9.41,14.2-1.15,4.31-1.17,8.9.35,13.18-1.03.48-2.01,1.03-2.95,1.63-8.77-8.49-27.68-11.32-39.86-5.37-4.03,1.97-6.72,4.91-8.72,8.09-2.55,4.04-3.88,8.52-4.12,12.96-.16,3,.2,6,1.02,8.92-1.91,1.52-3.38,3.31-4.58,5.21-.97,1.54-1.73,3.15-2.32,4.79-.13,0-.26-.02-.39-.02-13.32-.61-25.77,2.91-34.83,10.08-7.86,6.23-12.74,14.32-14.96,22.58-2.15,8.01-1.82,16.63,1.99,24.36-1.42.39-2.8.82-4.13,1.32-3.26-3.83-7.75-7.05-12.98-9.55-.04-.12-.07-.25-.1-.38-1.66-5.46-5.28-10.81-11.12-14.92-5.82-4.09-13.52-6.35-21.89-6.64v72.03c.12.12.2.28.2.49v135.69h1458.38v-143.76h-17.62Z"/>
  <path class="cls-5" d="m2216.55,428.97H17.65c-4.83,0-11.14.67-17.05,1.49v226.66h2215.95v-228.15Z"/>
  <g>
    <g>
      <polygon class="cls-1" points="2092.75 471.3 1955.34 471.3 1958.81 401.47 2096.22 401.47 2092.75 471.3"/>
      <g>
        <g>
          <polygon class="cls-6" points="1985.71 435.54 1961.19 435.56 1962.89 405.26 1987.41 405.24 1985.71 435.54"/>
          <path class="cls-1" d="m1960.64,436.09l1.76-31.36,25.57-.02-1.76,31.36-25.57.02Zm2.75-30.3l-1.64,29.25,23.46-.02,1.64-29.25-23.46.02Z"/>
        </g>
        <g>
          <polygon class="cls-6" points="2011.9 435.52 1987.38 435.54 1989.08 405.24 2013.6 405.22 2011.9 435.52"/>
          <path class="cls-1" d="m1986.82,436.07l1.76-31.36,25.57-.02-1.76,31.36-25.57.02Zm2.75-30.3l-1.64,29.25,23.46-.02,1.64-29.25-23.46.02Z"/>
        </g>
        <g>
          <polygon class="cls-6" points="2038.08 435.5 2013.57 435.52 2015.27 405.22 2039.78 405.2 2038.08 435.5"/>
          <path class="cls-1" d="m2013.01,436.05l1.76-31.36,25.57-.02-1.76,31.36-25.57.02Zm2.75-30.3l-1.64,29.25,23.46-.02,1.64-29.25-23.46.02Z"/>
        </g>
        <g>
          <polygon class="cls-6" points="2064.27 435.48 2039.76 435.5 2041.46 405.2 2065.97 405.18 2064.27 435.48"/>
          <path class="cls-1" d="m2039.2,436.03l1.76-31.36,25.57-.02-1.76,31.36-25.57.02Zm2.75-30.3l-1.64,29.25,23.46-.02,1.64-29.25-23.46.02Z"/>
        </g>
        <g>
          <polygon class="cls-6" points="2090.47 435.41 2065.95 435.43 2067.65 405.12 2092.16 405.1 2090.47 435.41"/>
          <path class="cls-1" d="m2065.39,435.95l1.76-31.36,25.57-.02-1.76,31.36-25.57.02Zm2.75-30.3l-1.64,29.25,23.46-.02,1.64-29.25-23.46.02Z"/>
        </g>
        <g>
          <polygon class="cls-6" points="1983.91 467.65 1959.39 467.67 1961.09 437.36 1985.61 437.34 1983.91 467.65"/>
          <path class="cls-1" d="m1958.84,468.19l1.76-31.36,25.57-.02-1.76,31.36-25.57.02Zm2.75-30.3l-1.64,29.25,23.46-.02,1.64-29.25-23.46.02Z"/>
        </g>
        <g>
          <polygon class="cls-6" points="2010.1 467.63 1985.58 467.65 1987.28 437.34 2011.8 437.32 2010.1 467.63"/>
          <path class="cls-1" d="m1985.02,468.17l1.76-31.36,25.57-.02-1.76,31.36-25.57.02Zm2.75-30.3l-1.64,29.25,23.46-.02,1.64-29.25-23.46.02Z"/>
        </g>
        <g>
          <polygon class="cls-6" points="2036.28 467.61 2011.77 467.62 2013.47 437.32 2037.98 437.3 2036.28 467.61"/>
          <path class="cls-1" d="m2011.21,468.15l1.76-31.36,25.57-.02-1.76,31.36-25.57.02Zm2.75-30.3l-1.64,29.25,23.46-.02,1.64-29.25-23.46.02Z"/>
        </g>
        <g>
          <polygon class="cls-6" points="2062.76 467.36 2038.25 467.85 2039.37 437.52 2063.88 437.03 2062.76 467.36"/>
          <path class="cls-1" d="m2037.71,468.39l1.15-31.38,25.56-.51-1.15,31.38-25.57.51Zm2.17-30.35l-1.08,29.28,23.45-.47,1.08-29.28-23.45.47Z"/>
        </g>
        <g>
          <polygon class="cls-6" points="2088.66 467.51 2064.15 467.53 2065.85 437.23 2090.36 437.21 2088.66 467.51"/>
          <path class="cls-1" d="m2063.59,468.06l1.76-31.36,25.57-.02-1.76,31.36-25.57.02Zm2.75-30.3l-1.64,29.25,23.46-.02,1.64-29.25-23.46.02Z"/>
        </g>
      </g>
    </g>
    <g>
      <polygon class="cls-1" points="2216.55 401.47 2128.89 401.47 2125.42 471.3 2216.55 471.3 2216.55 401.47"/>
      <g>
        <g>
          <polygon class="cls-6" points="2155.79 435.54 2131.28 435.56 2132.98 405.26 2157.49 405.24 2155.79 435.54"/>
          <path class="cls-1" d="m2130.72,436.09l1.76-31.36,25.57-.02-1.76,31.36-25.57.02Zm2.75-30.3l-1.64,29.25,23.46-.02,1.64-29.25-23.46.02Z"/>
        </g>
        <g>
          <polygon class="cls-6" points="2181.98 435.52 2157.47 435.54 2159.17 405.24 2183.68 405.22 2181.98 435.52"/>
          <path class="cls-1" d="m2156.91,436.07l1.76-31.36,25.57-.02-1.76,31.36-25.57.02Zm2.75-30.3l-1.64,29.25,23.46-.02,1.64-29.25-23.46.02Z"/>
        </g>
        <g>
          <polygon class="cls-6" points="2208.17 435.5 2183.66 435.52 2185.36 405.22 2209.87 405.2 2208.17 435.5"/>
          <path class="cls-1" d="m2183.1,436.05l1.76-31.36,25.57-.02-1.76,31.36-25.57.02Zm2.75-30.3l-1.64,29.25,23.46-.02,1.64-29.25-23.46.02Z"/>
        </g>
        <g>
          <polygon class="cls-6" points="2216.55 405.19 2211.54 405.2 2209.84 435.5 2216.55 435.49 2216.55 405.19"/>
          <polygon class="cls-1" points="2216.55 434.97 2210.4 434.97 2212.04 405.72 2216.55 405.72 2216.55 404.67 2211.05 404.67 2209.29 436.03 2216.55 436.02 2216.55 434.97"/>
        </g>
        <g>
          <polygon class="cls-6" points="2153.99 467.65 2129.48 467.67 2131.18 437.36 2155.69 437.34 2153.99 467.65"/>
          <path class="cls-1" d="m2128.92,468.19l1.76-31.36,25.57-.02-1.76,31.36-25.57.02Zm2.75-30.3l-1.64,29.25,23.46-.02,1.64-29.25-23.46.02Z"/>
        </g>
        <g>
          <polygon class="cls-6" points="2180.18 467.63 2155.67 467.65 2157.37 437.34 2181.88 437.32 2180.18 467.63"/>
          <path class="cls-1" d="m2155.11,468.17l1.76-31.36,25.57-.02-1.76,31.36-25.57.02Zm2.75-30.3l-1.64,29.25,23.46-.02,1.64-29.25-23.46.02Z"/>
        </g>
        <g>
          <polygon class="cls-6" points="2206.37 467.61 2181.86 467.62 2183.56 437.32 2208.07 437.3 2206.37 467.61"/>
          <path class="cls-1" d="m2181.3,468.15l1.76-31.36,25.57-.02-1.76,31.36-25.57.02Zm2.75-30.3l-1.64,29.25,23.46-.02,1.64-29.25-23.46.02Z"/>
        </g>
        <g>
          <polygon class="cls-6" points="2216.55 437.38 2209.45 437.52 2208.34 467.85 2216.55 467.69 2216.55 437.38"/>
          <polygon class="cls-1" points="2216.55 467.16 2208.89 467.32 2209.96 438.04 2216.55 437.91 2216.55 436.85 2208.95 437.01 2207.79 468.39 2216.55 468.22 2216.55 467.16"/>
        </g>
      </g>
    </g>
    <g>
      <polygon class="cls-1" points="1925.17 471.3 1787.75 471.3 1791.22 401.47 1928.63 401.47 1925.17 471.3"/>
      <g>
        <g>
          <polygon class="cls-6" points="1818.12 435.54 1793.61 435.56 1795.31 405.26 1819.82 405.24 1818.12 435.54"/>
          <path class="cls-1" d="m1793.05,436.09l1.76-31.36,25.57-.02-1.76,31.36-25.57.02Zm2.75-30.3l-1.64,29.25,23.46-.02,1.64-29.25-23.46.02Z"/>
        </g>
        <g>
          <polygon class="cls-6" points="1844.31 435.52 1819.8 435.54 1821.5 405.24 1846.01 405.22 1844.31 435.52"/>
          <path class="cls-1" d="m1819.24,436.07l1.76-31.36,25.57-.02-1.76,31.36-25.57.02Zm2.75-30.3l-1.64,29.25,23.46-.02,1.64-29.25-23.46.02Z"/>
        </g>
        <g>
          <polygon class="cls-6" points="1870.5 435.5 1845.99 435.52 1847.68 405.22 1872.2 405.2 1870.5 435.5"/>
          <path class="cls-1" d="m1845.43,436.05l1.76-31.36,25.57-.02-1.76,31.36-25.57.02Zm2.75-30.3l-1.64,29.25,23.46-.02,1.64-29.25-23.46.02Z"/>
        </g>
        <g>
          <polygon class="cls-6" points="1896.69 435.48 1872.17 435.5 1873.87 405.2 1898.39 405.18 1896.69 435.48"/>
          <path class="cls-1" d="m1871.62,436.03l1.76-31.36,25.57-.02-1.76,31.36-25.57.02Zm2.75-30.3l-1.64,29.25,23.46-.02,1.64-29.25-23.46.02Z"/>
        </g>
        <g>
          <polygon class="cls-6" points="1922.88 435.41 1898.37 435.43 1900.07 405.12 1924.58 405.1 1922.88 435.41"/>
          <path class="cls-1" d="m1897.81,435.95l1.76-31.36,25.57-.02-1.76,31.36-25.57.02Zm2.75-30.3l-1.64,29.25,23.46-.02,1.64-29.25-23.46.02Z"/>
        </g>
        <g>
          <polygon class="cls-6" points="1816.32 467.65 1791.81 467.67 1793.51 437.36 1818.02 437.34 1816.32 467.65"/>
          <path class="cls-1" d="m1791.25,468.19l1.76-31.36,25.57-.02-1.76,31.36-25.57.02Zm2.75-30.3l-1.64,29.25,23.46-.02,1.64-29.25-23.46.02Z"/>
        </g>
        <g>
          <polygon class="cls-6" points="1842.51 467.63 1818 467.65 1819.7 437.34 1844.21 437.32 1842.51 467.63"/>
          <path class="cls-1" d="m1817.44,468.17l1.76-31.36,25.57-.02-1.76,31.36-25.57.02Zm2.75-30.3l-1.64,29.25,23.46-.02,1.64-29.25-23.46.02Z"/>
        </g>
        <g>
          <polygon class="cls-6" points="1868.7 467.61 1844.19 467.62 1845.88 437.32 1870.4 437.3 1868.7 467.61"/>
          <path class="cls-1" d="m1843.63,468.15l1.76-31.36,25.57-.02-1.76,31.36-25.57.02Zm2.75-30.3l-1.64,29.25,23.46-.02,1.64-29.25-23.46.02Z"/>
        </g>
        <g>
          <polygon class="cls-6" points="1895.18 467.36 1870.67 467.85 1871.78 437.52 1896.29 437.03 1895.18 467.36"/>
          <path class="cls-1" d="m1870.12,468.39l1.15-31.38,25.56-.51-1.15,31.38-25.56.51Zm2.17-30.35l-1.08,29.28,23.45-.47,1.08-29.28-23.45.47Z"/>
        </g>
        <g>
          <polygon class="cls-6" points="1921.08 467.51 1896.57 467.53 1898.26 437.23 1922.78 437.21 1921.08 467.51"/>
          <path class="cls-1" d="m1896.01,468.06l1.76-31.36,25.57-.02-1.76,31.36-25.57.02Zm2.75-30.3l-1.64,29.25,23.46-.02,1.64-29.25-23.46.02Z"/>
        </g>
      </g>
    </g>
    <g>
      <polygon class="cls-1" points="1757.58 471.3 1620.17 471.3 1623.63 401.47 1761.05 401.47 1757.58 471.3"/>
      <g>
        <g>
          <polygon class="cls-6" points="1650.54 435.54 1626.02 435.56 1627.72 405.26 1652.24 405.24 1650.54 435.54"/>
          <path class="cls-1" d="m1625.47,436.09l1.76-31.36,25.57-.02-1.76,31.36-25.57.02Zm2.75-30.3l-1.64,29.25,23.46-.02,1.64-29.25-23.46.02Z"/>
        </g>
        <g>
          <polygon class="cls-6" points="1676.73 435.52 1652.21 435.54 1653.91 405.24 1678.42 405.22 1676.73 435.52"/>
          <path class="cls-1" d="m1651.65,436.07l1.76-31.36,25.57-.02-1.76,31.36-25.57.02Zm2.75-30.3l-1.64,29.25,23.46-.02,1.64-29.25-23.46.02Z"/>
        </g>
        <g>
          <polygon class="cls-6" points="1702.91 435.5 1678.4 435.52 1680.1 405.22 1704.61 405.2 1702.91 435.5"/>
          <path class="cls-1" d="m1677.84,436.05l1.76-31.36,25.57-.02-1.76,31.36-25.57.02Zm2.75-30.3l-1.64,29.25,23.46-.02,1.64-29.25-23.46.02Z"/>
        </g>
        <g>
          <polygon class="cls-6" points="1729.1 435.48 1704.59 435.5 1706.29 405.2 1730.8 405.18 1729.1 435.48"/>
          <path class="cls-1" d="m1704.03,436.03l1.76-31.36,25.57-.02-1.76,31.36-25.57.02Zm2.75-30.3l-1.64,29.25,23.46-.02,1.64-29.25-23.46.02Z"/>
        </g>
        <g>
          <polygon class="cls-6" points="1755.29 435.41 1730.78 435.43 1732.48 405.12 1756.99 405.1 1755.29 435.41"/>
          <path class="cls-1" d="m1730.22,435.95l1.76-31.36,25.57-.02-1.76,31.36-25.57.02Zm2.75-30.3l-1.64,29.25,23.46-.02,1.64-29.25-23.46.02Z"/>
        </g>
        <g>
          <polygon class="cls-6" points="1648.74 467.65 1624.22 467.67 1625.92 437.36 1650.44 437.34 1648.74 467.65"/>
          <path class="cls-1" d="m1623.67,468.19l1.76-31.36,25.57-.02-1.76,31.36-25.57.02Zm2.75-30.3l-1.64,29.25,23.46-.02,1.64-29.25-23.46.02Z"/>
        </g>
        <g>
          <polygon class="cls-6" points="1674.93 467.63 1650.41 467.65 1652.11 437.34 1676.62 437.32 1674.93 467.63"/>
          <path class="cls-1" d="m1649.85,468.17l1.76-31.36,25.57-.02-1.76,31.36-25.57.02Zm2.75-30.3l-1.64,29.25,23.46-.02,1.64-29.25-23.46.02Z"/>
        </g>
        <g>
          <polygon class="cls-6" points="1701.11 467.61 1676.6 467.62 1678.3 437.32 1702.81 437.3 1701.11 467.61"/>
          <path class="cls-1" d="m1676.04,468.15l1.76-31.36,25.57-.02-1.76,31.36-25.57.02Zm2.75-30.3l-1.64,29.25,23.46-.02,1.64-29.25-23.46.02Z"/>
        </g>
        <g>
          <polygon class="cls-6" points="1727.59 467.36 1703.08 467.85 1704.2 437.52 1728.71 437.03 1727.59 467.36"/>
          <path class="cls-1" d="m1702.54,468.39l1.15-31.38,25.57-.51-1.15,31.38-25.56.51Zm2.17-30.35l-1.08,29.28,23.45-.47,1.08-29.28-23.45.47Z"/>
        </g>
        <g>
          <polygon class="cls-6" points="1753.49 467.51 1728.98 467.53 1730.68 437.23 1755.19 437.21 1753.49 467.51"/>
          <path class="cls-1" d="m1728.42,468.06l1.76-31.36,25.57-.02-1.76,31.36-25.57.02Zm2.75-30.3l-1.64,29.25,23.46-.02,1.64-29.25-23.46.02Z"/>
        </g>
      </g>
    </g>
    <g>
      <polygon class="cls-1" points="1590 471.3 1452.58 471.3 1456.05 401.47 1593.46 401.47 1590 471.3"/>
      <g>
        <g>
          <polygon class="cls-6" points="1482.95 435.54 1458.44 435.56 1460.14 405.26 1484.65 405.24 1482.95 435.54"/>
          <path class="cls-1" d="m1457.88,436.09l1.76-31.36,25.57-.02-1.76,31.36-25.57.02Zm2.75-30.3l-1.64,29.25,23.46-.02,1.64-29.25-23.46.02Z"/>
        </g>
        <g>
          <polygon class="cls-6" points="1509.14 435.52 1484.63 435.54 1486.33 405.24 1510.84 405.22 1509.14 435.52"/>
          <path class="cls-1" d="m1484.07,436.07l1.76-31.36,25.57-.02-1.76,31.36-25.57.02Zm2.75-30.3l-1.64,29.25,23.46-.02,1.64-29.25-23.46.02Z"/>
        </g>
        <g>
          <polygon class="cls-6" points="1535.33 435.5 1510.82 435.52 1512.51 405.22 1537.03 405.2 1535.33 435.5"/>
          <path class="cls-1" d="m1510.26,436.05l1.76-31.36,25.57-.02-1.76,31.36-25.57.02Zm2.75-30.3l-1.64,29.25,23.46-.02,1.64-29.25-23.46.02Z"/>
        </g>
        <g>
          <polygon class="cls-6" points="1561.52 435.48 1537 435.5 1538.7 405.2 1563.22 405.18 1561.52 435.48"/>
          <path class="cls-1" d="m1536.45,436.03l1.76-31.36,25.57-.02-1.76,31.36-25.57.02Zm2.75-30.3l-1.64,29.25,23.46-.02,1.64-29.25-23.46.02Z"/>
        </g>
        <g>
          <polygon class="cls-6" points="1587.71 435.41 1563.2 435.43 1564.89 405.12 1589.41 405.1 1587.71 435.41"/>
          <path class="cls-1" d="m1562.64,435.95l1.76-31.36,25.57-.02-1.76,31.36-25.57.02Zm2.75-30.3l-1.64,29.25,23.46-.02,1.64-29.25-23.46.02Z"/>
        </g>
        <g>
          <polygon class="cls-6" points="1481.15 467.65 1456.64 467.67 1458.34 437.36 1482.85 437.34 1481.15 467.65"/>
          <path class="cls-1" d="m1456.08,468.19l1.76-31.36,25.57-.02-1.76,31.36-25.57.02Zm2.75-30.3l-1.64,29.25,23.46-.02,1.64-29.25-23.46.02Z"/>
        </g>
        <g>
          <polygon class="cls-6" points="1507.34 467.63 1482.83 467.65 1484.53 437.34 1509.04 437.32 1507.34 467.63"/>
          <path class="cls-1" d="m1482.27,468.17l1.76-31.36,25.57-.02-1.76,31.36-25.57.02Zm2.75-30.3l-1.64,29.25,23.46-.02,1.64-29.25-23.46.02Z"/>
        </g>
        <g>
          <polygon class="cls-6" points="1533.53 467.61 1509.01 467.62 1510.71 437.32 1535.23 437.3 1533.53 467.61"/>
          <path class="cls-1" d="m1508.46,468.15l1.76-31.36,25.57-.02-1.76,31.36-25.57.02Zm2.75-30.3l-1.64,29.25,23.46-.02,1.64-29.25-23.46.02Z"/>
        </g>
        <g>
          <polygon class="cls-6" points="1560.01 467.36 1535.5 467.85 1536.61 437.52 1561.12 437.03 1560.01 467.36"/>
          <path class="cls-1" d="m1534.95,468.39l1.15-31.38,25.56-.51-1.15,31.38-25.57.51Zm2.17-30.35l-1.08,29.28,23.45-.47,1.08-29.28-23.45.47Z"/>
        </g>
        <g>
          <polygon class="cls-6" points="1585.91 467.51 1561.39 467.53 1563.09 437.23 1587.61 437.21 1585.91 467.51"/>
          <path class="cls-1" d="m1560.84,468.06l1.76-31.36,25.57-.02-1.76,31.36-25.57.02Zm2.75-30.3l-1.64,29.25,23.46-.02,1.64-29.25-23.46.02Z"/>
        </g>
      </g>
    </g>
    <g>
      <polygon class="cls-1" points="1422.41 471.3 1285 471.3 1288.46 401.47 1425.88 401.47 1422.41 471.3"/>
      <g>
        <g>
          <polygon class="cls-6" points="1315.37 435.54 1290.85 435.56 1292.55 405.26 1317.07 405.24 1315.37 435.54"/>
          <path class="cls-1" d="m1290.3,436.09l1.76-31.36,25.57-.02-1.76,31.36-25.57.02Zm2.75-30.3l-1.64,29.25,23.46-.02,1.64-29.25-23.46.02Z"/>
        </g>
        <g>
          <polygon class="cls-6" points="1341.56 435.52 1317.04 435.54 1318.74 405.24 1343.25 405.22 1341.56 435.52"/>
          <path class="cls-1" d="m1316.48,436.07l1.76-31.36,25.57-.02-1.76,31.36-25.57.02Zm2.75-30.3l-1.64,29.25,23.46-.02,1.64-29.25-23.46.02Z"/>
        </g>
        <g>
          <polygon class="cls-6" points="1367.74 435.5 1343.23 435.52 1344.93 405.22 1369.44 405.2 1367.74 435.5"/>
          <path class="cls-1" d="m1342.67,436.05l1.76-31.36,25.57-.02-1.76,31.36-25.57.02Zm2.75-30.3l-1.64,29.25,23.46-.02,1.64-29.25-23.46.02Z"/>
        </g>
        <g>
          <polygon class="cls-6" points="1393.93 435.48 1369.42 435.5 1371.12 405.2 1395.63 405.18 1393.93 435.48"/>
          <path class="cls-1" d="m1368.86,436.03l1.76-31.36,25.57-.02-1.76,31.36-25.57.02Zm2.75-30.3l-1.64,29.25,23.46-.02,1.64-29.25-23.46.02Z"/>
        </g>
        <g>
          <polygon class="cls-6" points="1420.12 435.41 1395.61 435.43 1397.31 405.12 1421.82 405.1 1420.12 435.41"/>
          <path class="cls-1" d="m1395.05,435.95l1.76-31.36,25.57-.02-1.76,31.36-25.57.02Zm2.75-30.3l-1.64,29.25,23.46-.02,1.64-29.25-23.46.02Z"/>
        </g>
        <g>
          <polygon class="cls-6" points="1313.57 467.65 1289.05 467.67 1290.75 437.36 1315.27 437.34 1313.57 467.65"/>
          <path class="cls-1" d="m1288.49,468.19l1.76-31.36,25.57-.02-1.76,31.36-25.57.02Zm2.75-30.3l-1.64,29.25,23.46-.02,1.64-29.25-23.46.02Z"/>
        </g>
        <g>
          <polygon class="cls-6" points="1339.75 467.63 1315.24 467.65 1316.94 437.34 1341.45 437.32 1339.75 467.63"/>
          <path class="cls-1" d="m1314.68,468.17l1.76-31.36,25.57-.02-1.76,31.36-25.57.02Zm2.75-30.3l-1.64,29.25,23.46-.02,1.64-29.25-23.46.02Z"/>
        </g>
        <g>
          <polygon class="cls-6" points="1365.94 467.61 1341.43 467.62 1343.13 437.32 1367.64 437.3 1365.94 467.61"/>
          <path class="cls-1" d="m1340.87,468.15l1.76-31.36,25.57-.02-1.76,31.36-25.57.02Zm2.75-30.3l-1.64,29.25,23.46-.02,1.64-29.25-23.46.02Z"/>
        </g>
        <g>
          <polygon class="cls-6" points="1392.42 467.36 1367.91 467.85 1369.03 437.52 1393.54 437.03 1392.42 467.36"/>
          <path class="cls-1" d="m1367.37,468.39l1.15-31.38,25.56-.51-1.15,31.38-25.56.51Zm2.17-30.35l-1.08,29.28,23.45-.47,1.08-29.28-23.45.47Z"/>
        </g>
        <g>
          <polygon class="cls-6" points="1418.32 467.51 1393.81 467.53 1395.51 437.23 1420.02 437.21 1418.32 467.51"/>
          <path class="cls-1" d="m1393.25,468.06l1.76-31.36,25.57-.02-1.76,31.36-25.57.02Zm2.75-30.3l-1.64,29.25,23.46-.02,1.64-29.25-23.46.02Z"/>
        </g>
      </g>
    </g>
    <g>
      <polygon class="cls-1" points="1254.83 471.3 1117.41 471.3 1120.88 401.47 1258.29 401.47 1254.83 471.3"/>
      <g>
        <g>
          <polygon class="cls-6" points="1147.78 435.54 1123.27 435.56 1124.97 405.26 1149.48 405.24 1147.78 435.54"/>
          <path class="cls-1" d="m1122.71,436.09l1.76-31.36,25.57-.02-1.76,31.36-25.57.02Zm2.76-30.3l-1.64,29.25,23.46-.02,1.64-29.25-23.46.02Z"/>
        </g>
        <g>
          <polygon class="cls-6" points="1173.97 435.52 1149.46 435.54 1151.16 405.24 1175.67 405.22 1173.97 435.52"/>
          <path class="cls-1" d="m1148.9,436.07l1.76-31.36,25.57-.02-1.76,31.36-25.57.02Zm2.75-30.3l-1.64,29.25,23.46-.02,1.64-29.25-23.46.02Z"/>
        </g>
        <g>
          <polygon class="cls-6" points="1200.16 435.5 1175.64 435.52 1177.34 405.22 1201.86 405.2 1200.16 435.5"/>
          <path class="cls-1" d="m1175.09,436.05l1.76-31.36,25.57-.02-1.76,31.36-25.57.02Zm2.75-30.3l-1.64,29.25,23.46-.02,1.64-29.25-23.46.02Z"/>
        </g>
        <g>
          <polygon class="cls-6" points="1226.35 435.48 1201.83 435.5 1203.53 405.2 1228.05 405.18 1226.35 435.48"/>
          <path class="cls-1" d="m1201.28,436.03l1.76-31.36,25.57-.02-1.76,31.36-25.57.02Zm2.75-30.3l-1.64,29.25,23.46-.02,1.64-29.25-23.46.02Z"/>
        </g>
        <g>
          <polygon class="cls-6" points="1252.54 435.41 1228.02 435.43 1229.72 405.12 1254.24 405.1 1252.54 435.41"/>
          <path class="cls-1" d="m1227.47,435.95l1.76-31.36,25.57-.02-1.76,31.36-25.57.02Zm2.75-30.3l-1.64,29.25,23.46-.02,1.64-29.25-23.46.02Z"/>
        </g>
        <g>
          <polygon class="cls-6" points="1145.98 467.65 1121.47 467.67 1123.17 437.36 1147.68 437.34 1145.98 467.65"/>
          <path class="cls-1" d="m1120.91,468.19l1.76-31.36,25.57-.02-1.76,31.36-25.57.02Zm2.76-30.3l-1.64,29.25,23.46-.02,1.64-29.25-23.46.02Z"/>
        </g>
        <g>
          <polygon class="cls-6" points="1172.17 467.63 1147.66 467.65 1149.35 437.34 1173.87 437.32 1172.17 467.63"/>
          <path class="cls-1" d="m1147.1,468.17l1.76-31.36,25.57-.02-1.76,31.36-25.57.02Zm2.75-30.3l-1.64,29.25,23.46-.02,1.64-29.25-23.46.02Z"/>
        </g>
        <g>
          <polygon class="cls-6" points="1198.36 467.61 1173.84 467.62 1175.54 437.32 1200.06 437.3 1198.36 467.61"/>
          <path class="cls-1" d="m1173.29,468.15l1.76-31.36,25.57-.02-1.76,31.36-25.57.02Zm2.75-30.3l-1.64,29.25,23.46-.02,1.64-29.25-23.46.02Z"/>
        </g>
        <g>
          <polygon class="cls-6" points="1224.84 467.36 1200.33 467.85 1201.44 437.52 1225.95 437.03 1224.84 467.36"/>
          <path class="cls-1" d="m1199.78,468.39l1.15-31.38,25.57-.51-1.15,31.38-25.56.51Zm2.17-30.35l-1.08,29.28,23.45-.47,1.08-29.28-23.45.47Z"/>
        </g>
        <g>
          <polygon class="cls-6" points="1250.74 467.51 1226.22 467.53 1227.92 437.23 1252.44 437.21 1250.74 467.51"/>
          <path class="cls-1" d="m1225.67,468.06l1.76-31.36,25.57-.02-1.76,31.36-25.57.02Zm2.75-30.3l-1.64,29.25,23.46-.02,1.64-29.25-23.46.02Z"/>
        </g>
      </g>
    </g>
    <g>
      <polygon class="cls-1" points="1087.24 471.3 949.83 471.3 953.29 401.47 1090.71 401.47 1087.24 471.3"/>
      <g>
        <g>
          <polygon class="cls-6" points="980.2 435.54 955.68 435.56 957.38 405.26 981.9 405.24 980.2 435.54"/>
          <path class="cls-1" d="m955.12,436.09l1.76-31.36,25.57-.02-1.76,31.36-25.57.02Zm2.76-30.3l-1.64,29.25,23.46-.02,1.64-29.25-23.46.02Z"/>
        </g>
        <g>
          <polygon class="cls-6" points="1006.38 435.52 981.87 435.54 983.57 405.24 1008.08 405.22 1006.38 435.52"/>
          <path class="cls-1" d="m981.31,436.07l1.76-31.36,25.57-.02-1.76,31.36-25.57.02Zm2.76-30.3l-1.64,29.25,23.46-.02,1.64-29.25-23.46.02Z"/>
        </g>
        <g>
          <polygon class="cls-6" points="1032.57 435.5 1008.06 435.52 1009.76 405.22 1034.27 405.2 1032.57 435.5"/>
          <path class="cls-1" d="m1007.5,436.05l1.76-31.36,25.57-.02-1.76,31.36-25.57.02Zm2.76-30.3l-1.64,29.25,23.46-.02,1.64-29.25-23.46.02Z"/>
        </g>
        <g>
          <polygon class="cls-6" points="1058.76 435.48 1034.25 435.5 1035.95 405.2 1060.46 405.18 1058.76 435.48"/>
          <path class="cls-1" d="m1033.69,436.03l1.76-31.36,25.57-.02-1.76,31.36-25.57.02Zm2.76-30.3l-1.64,29.25,23.46-.02,1.64-29.25-23.46.02Z"/>
        </g>
        <g>
          <polygon class="cls-6" points="1084.95 435.41 1060.44 435.43 1062.14 405.12 1086.65 405.1 1084.95 435.41"/>
          <path class="cls-1" d="m1059.88,435.95l1.76-31.36,25.57-.02-1.76,31.36-25.57.02Zm2.76-30.3l-1.64,29.25,23.46-.02,1.64-29.25-23.46.02Z"/>
        </g>
        <g>
          <polygon class="cls-6" points="978.4 467.65 953.88 467.67 955.58 437.36 980.09 437.34 978.4 467.65"/>
          <path class="cls-1" d="m953.32,468.19l1.76-31.36,25.57-.02-1.76,31.36-25.57.02Zm2.76-30.3l-1.64,29.25,23.46-.02,1.64-29.25-23.46.02Z"/>
        </g>
        <g>
          <polygon class="cls-6" points="1004.58 467.63 980.07 467.65 981.77 437.34 1006.28 437.32 1004.58 467.63"/>
          <path class="cls-1" d="m979.51,468.17l1.76-31.36,25.57-.02-1.76,31.36-25.57.02Zm2.76-30.3l-1.64,29.25,23.46-.02,1.64-29.25-23.46.02Z"/>
        </g>
        <g>
          <polygon class="cls-6" points="1030.77 467.61 1006.26 467.62 1007.96 437.32 1032.47 437.3 1030.77 467.61"/>
          <path class="cls-1" d="m1005.7,468.15l1.76-31.36,25.57-.02-1.76,31.36-25.57.02Zm2.76-30.3l-1.64,29.25,23.46-.02,1.64-29.25-23.46.02Z"/>
        </g>
        <g>
          <polygon class="cls-6" points="1057.25 467.36 1032.74 467.85 1033.86 437.52 1058.37 437.03 1057.25 467.36"/>
          <path class="cls-1" d="m1032.19,468.39l1.15-31.38,25.56-.51-1.15,31.38-25.56.51Zm2.17-30.35l-1.08,29.28,23.45-.47,1.08-29.28-23.45.47Z"/>
        </g>
        <g>
          <polygon class="cls-6" points="1083.15 467.51 1058.64 467.53 1060.34 437.23 1084.85 437.21 1083.15 467.51"/>
          <path class="cls-1" d="m1058.08,468.06l1.76-31.36,25.57-.02-1.76,31.36-25.57.02Zm2.76-30.3l-1.64,29.25,23.46-.02,1.64-29.25-23.46.02Z"/>
        </g>
      </g>
    </g>
    <g>
      <polygon class="cls-1" points="919.66 471.3 782.24 471.3 785.71 401.47 923.12 401.47 919.66 471.3"/>
      <g>
        <g>
          <polygon class="cls-6" points="812.61 435.54 788.1 435.56 789.8 405.26 814.31 405.24 812.61 435.54"/>
          <path class="cls-1" d="m787.54,436.09l1.76-31.36,25.57-.02-1.76,31.36-25.57.02Zm2.76-30.3l-1.64,29.25,23.46-.02,1.64-29.25-23.46.02Z"/>
        </g>
        <g>
          <polygon class="cls-6" points="838.8 435.52 814.29 435.54 815.98 405.24 840.5 405.22 838.8 435.52"/>
          <path class="cls-1" d="m813.73,436.07l1.76-31.36,25.57-.02-1.76,31.36-25.57.02Zm2.76-30.3l-1.64,29.25,23.46-.02,1.64-29.25-23.46.02Z"/>
        </g>
        <g>
          <polygon class="cls-6" points="864.99 435.5 840.47 435.52 842.17 405.22 866.69 405.2 864.99 435.5"/>
          <path class="cls-1" d="m839.92,436.05l1.76-31.36,25.57-.02-1.76,31.36-25.57.02Zm2.76-30.3l-1.64,29.25,23.46-.02,1.64-29.25-23.46.02Z"/>
        </g>
        <g>
          <polygon class="cls-6" points="891.18 435.48 866.66 435.5 868.36 405.2 892.88 405.18 891.18 435.48"/>
          <path class="cls-1" d="m866.11,436.03l1.76-31.36,25.57-.02-1.76,31.36-25.57.02Zm2.76-30.3l-1.64,29.25,23.46-.02,1.64-29.25-23.46.02Z"/>
        </g>
        <g>
          <polygon class="cls-6" points="917.37 435.41 892.85 435.43 894.55 405.12 919.07 405.1 917.37 435.41"/>
          <path class="cls-1" d="m892.3,435.95l1.76-31.36,25.57-.02-1.76,31.36-25.57.02Zm2.76-30.3l-1.64,29.25,23.46-.02,1.64-29.25-23.46.02Z"/>
        </g>
        <g>
          <polygon class="cls-6" points="810.81 467.65 786.3 467.67 788 437.36 812.51 437.34 810.81 467.65"/>
          <path class="cls-1" d="m785.74,468.19l1.76-31.36,25.57-.02-1.76,31.36-25.57.02Zm2.76-30.3l-1.64,29.25,23.46-.02,1.64-29.25-23.46.02Z"/>
        </g>
        <g>
          <polygon class="cls-6" points="837 467.63 812.49 467.65 814.18 437.34 838.7 437.32 837 467.63"/>
          <path class="cls-1" d="m811.93,468.17l1.76-31.36,25.57-.02-1.76,31.36-25.57.02Zm2.76-30.3l-1.64,29.25,23.46-.02,1.64-29.25-23.46.02Z"/>
        </g>
        <g>
          <polygon class="cls-6" points="863.19 467.61 838.67 467.62 840.37 437.32 864.89 437.3 863.19 467.61"/>
          <path class="cls-1" d="m838.12,468.15l1.76-31.36,25.57-.02-1.76,31.36-25.57.02Zm2.76-30.3l-1.64,29.25,23.46-.02,1.64-29.25-23.46.02Z"/>
        </g>
        <g>
          <polygon class="cls-6" points="889.67 467.36 865.16 467.85 866.27 437.52 890.78 437.03 889.67 467.36"/>
          <path class="cls-1" d="m864.61,468.39l1.15-31.38,25.56-.51-1.16,31.38-25.56.51Zm2.17-30.35l-1.08,29.28,23.45-.47,1.08-29.28-23.45.47Z"/>
        </g>
        <g>
          <polygon class="cls-6" points="915.57 467.51 891.05 467.53 892.75 437.23 917.27 437.21 915.57 467.51"/>
          <path class="cls-1" d="m890.5,468.06l1.76-31.36,25.57-.02-1.76,31.36-25.57.02Zm2.76-30.3l-1.64,29.25,23.46-.02,1.64-29.25-23.46.02Z"/>
        </g>
      </g>
    </g>
    <g>
      <polygon class="cls-1" points="752.07 471.3 614.66 471.3 618.12 401.47 755.54 401.47 752.07 471.3"/>
      <g>
        <g>
          <polygon class="cls-6" points="645.03 435.54 620.51 435.56 622.21 405.26 646.72 405.24 645.03 435.54"/>
          <path class="cls-1" d="m619.95,436.09l1.76-31.36,25.57-.02-1.76,31.36-25.57.02Zm2.76-30.3l-1.64,29.25,23.46-.02,1.64-29.25-23.46.02Z"/>
        </g>
        <g>
          <polygon class="cls-6" points="671.21 435.52 646.7 435.54 648.4 405.24 672.91 405.22 671.21 435.52"/>
          <path class="cls-1" d="m646.14,436.07l1.76-31.36,25.57-.02-1.76,31.36-25.57.02Zm2.76-30.3l-1.64,29.25,23.46-.02,1.64-29.25-23.46.02Z"/>
        </g>
        <g>
          <polygon class="cls-6" points="697.4 435.5 672.89 435.52 674.59 405.22 699.1 405.2 697.4 435.5"/>
          <path class="cls-1" d="m672.33,436.05l1.76-31.36,25.57-.02-1.76,31.36-25.57.02Zm2.76-30.3l-1.64,29.25,23.46-.02,1.64-29.25-23.46.02Z"/>
        </g>
        <g>
          <polygon class="cls-6" points="723.59 435.48 699.08 435.5 700.78 405.2 725.29 405.18 723.59 435.48"/>
          <path class="cls-1" d="m698.52,436.03l1.76-31.36,25.57-.02-1.76,31.36-25.57.02Zm2.76-30.3l-1.64,29.25,23.46-.02,1.64-29.25-23.46.02Z"/>
        </g>
        <g>
          <polygon class="cls-6" points="749.78 435.41 725.27 435.43 726.97 405.12 751.48 405.1 749.78 435.41"/>
          <path class="cls-1" d="m724.71,435.95l1.76-31.36,25.57-.02-1.76,31.36-25.57.02Zm2.76-30.3l-1.64,29.25,23.46-.02,1.64-29.25-23.46.02Z"/>
        </g>
        <g>
          <polygon class="cls-6" points="643.23 467.65 618.71 467.67 620.41 437.36 644.92 437.34 643.23 467.65"/>
          <path class="cls-1" d="m618.15,468.19l1.76-31.36,25.57-.02-1.76,31.36-25.57.02Zm2.76-30.3l-1.64,29.25,23.46-.02,1.64-29.25-23.46.02Z"/>
        </g>
        <g>
          <polygon class="cls-6" points="669.41 467.63 644.9 467.65 646.6 437.34 671.11 437.32 669.41 467.63"/>
          <path class="cls-1" d="m644.34,468.17l1.76-31.36,25.57-.02-1.76,31.36-25.57.02Zm2.76-30.3l-1.64,29.25,23.46-.02,1.64-29.25-23.46.02Z"/>
        </g>
        <g>
          <polygon class="cls-6" points="695.6 467.61 671.09 467.62 672.79 437.32 697.3 437.3 695.6 467.61"/>
          <path class="cls-1" d="m670.53,468.15l1.76-31.36,25.57-.02-1.76,31.36-25.57.02Zm2.76-30.3l-1.64,29.25,23.46-.02,1.64-29.25-23.46.02Z"/>
        </g>
        <g>
          <polygon class="cls-6" points="722.08 467.36 697.57 467.85 698.69 437.52 723.2 437.03 722.08 467.36"/>
          <path class="cls-1" d="m697.02,468.39l1.16-31.38,25.56-.51-1.15,31.38-25.56.51Zm2.17-30.35l-1.08,29.28,23.45-.47,1.08-29.28-23.45.47Z"/>
        </g>
        <g>
          <polygon class="cls-6" points="747.98 467.51 723.47 467.53 725.17 437.23 749.68 437.21 747.98 467.51"/>
          <path class="cls-1" d="m722.91,468.06l1.76-31.36,25.57-.02-1.76,31.36-25.57.02Zm2.76-30.3l-1.64,29.25,23.46-.02,1.64-29.25-23.46.02Z"/>
        </g>
      </g>
    </g>
    <g>
      <polygon class="cls-1" points="584.48 471.3 447.07 471.3 450.54 401.47 587.95 401.47 584.48 471.3"/>
      <g>
        <g>
          <polygon class="cls-6" points="477.44 435.54 452.93 435.56 454.63 405.26 479.14 405.24 477.44 435.54"/>
          <path class="cls-1" d="m452.37,436.09l1.76-31.36,25.57-.02-1.76,31.36-25.57.02Zm2.76-30.3l-1.64,29.25,23.46-.02,1.64-29.25-23.46.02Z"/>
        </g>
        <g>
          <polygon class="cls-6" points="503.63 435.52 479.11 435.54 480.81 405.24 505.33 405.22 503.63 435.52"/>
          <path class="cls-1" d="m478.56,436.07l1.76-31.36,25.57-.02-1.76,31.36-25.57.02Zm2.76-30.3l-1.64,29.25,23.46-.02,1.64-29.25-23.46.02Z"/>
        </g>
        <g>
          <polygon class="cls-6" points="529.82 435.5 505.3 435.52 507 405.22 531.52 405.2 529.82 435.5"/>
          <path class="cls-1" d="m504.75,436.05l1.76-31.36,25.57-.02-1.76,31.36-25.57.02Zm2.76-30.3l-1.64,29.25,23.46-.02,1.64-29.25-23.46.02Z"/>
        </g>
        <g>
          <polygon class="cls-6" points="556.01 435.48 531.49 435.5 533.19 405.2 557.71 405.18 556.01 435.48"/>
          <path class="cls-1" d="m530.93,436.03l1.76-31.36,25.57-.02-1.76,31.36-25.57.02Zm2.76-30.3l-1.64,29.25,23.46-.02,1.64-29.25-23.46.02Z"/>
        </g>
        <g>
          <polygon class="cls-6" points="582.2 435.41 557.68 435.43 559.38 405.12 583.9 405.1 582.2 435.41"/>
          <path class="cls-1" d="m557.13,435.95l1.76-31.36,25.57-.02-1.76,31.36-25.57.02Zm2.76-30.3l-1.64,29.25,23.46-.02,1.64-29.25-23.46.02Z"/>
        </g>
        <g>
          <polygon class="cls-6" points="475.64 467.65 451.13 467.67 452.83 437.36 477.34 437.34 475.64 467.65"/>
          <path class="cls-1" d="m450.57,468.19l1.76-31.36,25.57-.02-1.76,31.36-25.57.02Zm2.76-30.3l-1.64,29.25,23.46-.02,1.64-29.25-23.46.02Z"/>
        </g>
        <g>
          <polygon class="cls-6" points="501.83 467.63 477.31 467.65 479.01 437.34 503.53 437.32 501.83 467.63"/>
          <path class="cls-1" d="m476.76,468.17l1.76-31.36,25.57-.02-1.76,31.36-25.57.02Zm2.76-30.3l-1.64,29.25,23.46-.02,1.64-29.25-23.46.02Z"/>
        </g>
        <g>
          <polygon class="cls-6" points="528.02 467.61 503.5 467.62 505.2 437.32 529.72 437.3 528.02 467.61"/>
          <path class="cls-1" d="m502.95,468.15l1.76-31.36,25.57-.02-1.76,31.36-25.57.02Zm2.76-30.3l-1.64,29.25,23.46-.02,1.64-29.25-23.46.02Z"/>
        </g>
        <g>
          <polygon class="cls-6" points="554.49 467.36 529.99 467.85 531.1 437.52 555.61 437.03 554.49 467.36"/>
          <path class="cls-1" d="m529.44,468.39l1.15-31.38,25.56-.51-1.15,31.38-25.56.51Zm2.17-30.35l-1.08,29.28,23.45-.47,1.08-29.28-23.45.47Z"/>
        </g>
        <g>
          <polygon class="cls-6" points="580.4 467.51 555.88 467.53 557.58 437.23 582.1 437.21 580.4 467.51"/>
          <path class="cls-1" d="m555.33,468.06l1.76-31.36,25.57-.02-1.76,31.36-25.57.02Zm2.76-30.3l-1.64,29.25,23.46-.02,1.64-29.25-23.46.02Z"/>
        </g>
      </g>
    </g>
    <g>
      <polygon class="cls-1" points="416.9 471.3 279.49 471.3 282.95 401.47 420.37 401.47 416.9 471.3"/>
      <g>
        <g>
          <polygon class="cls-6" points="309.85 435.54 285.34 435.56 287.04 405.26 311.55 405.24 309.85 435.54"/>
          <path class="cls-1" d="m284.78,436.09l1.76-31.36,25.57-.02-1.76,31.36-25.57.02Zm2.76-30.3l-1.64,29.25,23.46-.02,1.64-29.25-23.46.02Z"/>
        </g>
        <g>
          <polygon class="cls-6" points="336.04 435.52 311.53 435.54 313.23 405.24 337.74 405.22 336.04 435.52"/>
          <path class="cls-1" d="m310.97,436.07l1.76-31.36,25.57-.02-1.76,31.36-25.57.02Zm2.76-30.3l-1.64,29.25,23.46-.02,1.64-29.25-23.46.02Z"/>
        </g>
        <g>
          <polygon class="cls-6" points="362.23 435.5 337.72 435.52 339.42 405.22 363.93 405.2 362.23 435.5"/>
          <path class="cls-1" d="m337.16,436.05l1.76-31.36,25.57-.02-1.76,31.36-25.57.02Zm2.76-30.3l-1.64,29.25,23.46-.02,1.64-29.25-23.46.02Z"/>
        </g>
        <g>
          <polygon class="cls-6" points="388.42 435.48 363.91 435.5 365.61 405.2 390.12 405.18 388.42 435.48"/>
          <path class="cls-1" d="m363.35,436.03l1.76-31.36,25.57-.02-1.76,31.36-25.57.02Zm2.76-30.3l-1.64,29.25,23.46-.02,1.64-29.25-23.46.02Z"/>
        </g>
        <g>
          <polygon class="cls-6" points="414.61 435.41 390.1 435.43 391.8 405.12 416.31 405.1 414.61 435.41"/>
          <path class="cls-1" d="m389.54,435.95l1.76-31.36,25.57-.02-1.76,31.36-25.57.02Zm2.76-30.3l-1.64,29.25,23.46-.02,1.64-29.25-23.46.02Z"/>
        </g>
        <g>
          <polygon class="cls-6" points="308.05 467.65 283.54 467.67 285.24 437.36 309.75 437.34 308.05 467.65"/>
          <path class="cls-1" d="m282.98,468.19l1.76-31.36,25.57-.02-1.76,31.36-25.57.02Zm2.76-30.3l-1.64,29.25,23.46-.02,1.64-29.25-23.46.02Z"/>
        </g>
        <g>
          <polygon class="cls-6" points="334.24 467.63 309.73 467.65 311.43 437.34 335.94 437.32 334.24 467.63"/>
          <path class="cls-1" d="m309.17,468.17l1.76-31.36,25.57-.02-1.76,31.36-25.57.02Zm2.76-30.3l-1.64,29.25,23.46-.02,1.64-29.25-23.46.02Z"/>
        </g>
        <g>
          <polygon class="cls-6" points="360.43 467.61 335.92 467.62 337.62 437.32 362.13 437.3 360.43 467.61"/>
          <path class="cls-1" d="m335.36,468.15l1.76-31.36,25.57-.02-1.76,31.36-25.57.02Zm2.76-30.3l-1.64,29.25,23.46-.02,1.64-29.25-23.46.02Z"/>
        </g>
        <g>
          <polygon class="cls-6" points="386.91 467.36 362.4 467.85 363.52 437.52 388.03 437.03 386.91 467.36"/>
          <path class="cls-1" d="m361.85,468.39l1.15-31.38,25.56-.51-1.16,31.38-25.56.51Zm2.17-30.35l-1.08,29.28,23.45-.47,1.08-29.28-23.45.47Z"/>
        </g>
        <g>
          <polygon class="cls-6" points="412.81 467.51 388.3 467.53 390 437.23 414.51 437.21 412.81 467.51"/>
          <path class="cls-1" d="m387.74,468.06l1.76-31.36,25.57-.02-1.76,31.36-25.57.02Zm2.76-30.3l-1.64,29.25,23.46-.02,1.64-29.25-23.46.02Z"/>
        </g>
      </g>
    </g>
    <g>
      <polygon class="cls-1" points="249.31 471.3 111.9 471.3 115.37 401.47 252.78 401.47 249.31 471.3"/>
      <g>
        <g>
          <polygon class="cls-6" points="142.27 435.54 117.76 435.56 119.45 405.26 143.97 405.24 142.27 435.54"/>
          <path class="cls-1" d="m117.2,436.09l1.76-31.36,25.57-.02-1.76,31.36-25.57.02Zm2.76-30.3l-1.64,29.25,23.46-.02,1.64-29.25-23.46.02Z"/>
        </g>
        <g>
          <polygon class="cls-6" points="168.46 435.52 143.94 435.54 145.64 405.24 170.16 405.22 168.46 435.52"/>
          <path class="cls-1" d="m143.39,436.07l1.76-31.36,25.57-.02-1.76,31.36-25.57.02Zm2.76-30.3l-1.64,29.25,23.46-.02,1.64-29.25-23.46.02Z"/>
        </g>
        <g>
          <polygon class="cls-6" points="194.65 435.5 170.13 435.52 171.83 405.22 196.35 405.2 194.65 435.5"/>
          <path class="cls-1" d="m169.58,436.05l1.76-31.36,25.57-.02-1.76,31.36-25.57.02Zm2.76-30.3l-1.64,29.25,23.46-.02,1.64-29.25-23.46.02Z"/>
        </g>
        <g>
          <polygon class="cls-6" points="220.84 435.48 196.32 435.5 198.02 405.2 222.53 405.18 220.84 435.48"/>
          <path class="cls-1" d="m195.76,436.03l1.76-31.36,25.57-.02-1.76,31.36-25.57.02Zm2.76-30.3l-1.64,29.25,23.46-.02,1.64-29.25-23.46.02Z"/>
        </g>
        <g>
          <polygon class="cls-6" points="247.03 435.41 222.51 435.43 224.21 405.12 248.73 405.1 247.03 435.41"/>
          <path class="cls-1" d="m221.96,435.95l1.76-31.36,25.57-.02-1.76,31.36-25.57.02Zm2.76-30.3l-1.64,29.25,23.46-.02,1.64-29.25-23.46.02Z"/>
        </g>
        <g>
          <polygon class="cls-6" points="140.47 467.65 115.96 467.67 117.65 437.36 142.17 437.34 140.47 467.65"/>
          <path class="cls-1" d="m115.4,468.19l1.76-31.36,25.57-.02-1.76,31.36-25.57.02Zm2.76-30.3l-1.64,29.25,23.46-.02,1.64-29.25-23.46.02Z"/>
        </g>
        <g>
          <polygon class="cls-6" points="166.66 467.63 142.14 467.65 143.84 437.34 168.36 437.32 166.66 467.63"/>
          <path class="cls-1" d="m141.59,468.17l1.76-31.36,25.57-.02-1.76,31.36-25.57.02Zm2.76-30.3l-1.64,29.25,23.46-.02,1.64-29.25-23.46.02Z"/>
        </g>
        <g>
          <polygon class="cls-6" points="192.85 467.61 168.33 467.62 170.03 437.32 194.55 437.3 192.85 467.61"/>
          <path class="cls-1" d="m167.78,468.15l1.76-31.36,25.57-.02-1.76,31.36-25.57.02Zm2.76-30.3l-1.64,29.25,23.46-.02,1.64-29.25-23.46.02Z"/>
        </g>
        <g>
          <polygon class="cls-6" points="219.32 467.36 194.82 467.85 195.93 437.52 220.44 437.03 219.32 467.36"/>
          <path class="cls-1" d="m194.27,468.39l1.16-31.38,25.56-.51-1.15,31.38-25.56.51Zm2.17-30.35l-1.08,29.28,23.45-.47,1.08-29.28-23.45.47Z"/>
        </g>
        <g>
          <polygon class="cls-6" points="245.23 467.51 220.71 467.53 222.41 437.23 246.93 437.21 245.23 467.51"/>
          <path class="cls-1" d="m220.15,468.06l1.76-31.36,25.57-.02-1.76,31.36-25.57.02Zm2.76-30.3l-1.64,29.25,23.46-.02,1.64-29.25-23.46.02Z"/>
        </g>
      </g>
    </g>
    <g>
      <path class="cls-1" d="m.4,401.47v13.84c.12.12.2.28.2.49v55.5h81.13s3.47-69.83,3.47-69.83H.4Z"/>
      <g>
        <g>
          <path class="cls-6" d="m.73,405.22v17.02c0,.17-.06.29-.13.4v12.88h.84s1.7-30.3,1.7-30.3H.73Z"/>
          <path class="cls-1" d="m.07,436.05v-13.57l.09-.13s.04-.07.04-.1v-17.55h3.49s-1.76,31.35-1.76,31.35H.07Zm1.05-13.26v8.9l1.45-25.94h-1.33v16.5c0,.19-.04.37-.13.54Z"/>
        </g>
        <g>
          <polygon class="cls-6" points="27.06 435.5 2.55 435.52 4.25 405.22 28.76 405.2 27.06 435.5"/>
          <path class="cls-1" d="m1.99,436.05l1.76-31.36,25.57-.02-1.76,31.36-25.57.02Zm2.76-30.3l-1.64,29.25,23.46-.02,1.64-29.25-23.46.02Z"/>
        </g>
        <g>
          <polygon class="cls-6" points="53.25 435.48 28.74 435.5 30.44 405.2 54.95 405.18 53.25 435.48"/>
          <path class="cls-1" d="m28.18,436.03l1.76-31.36,25.57-.02-1.76,31.36-25.57.02Zm2.76-30.3l-1.64,29.25,23.46-.02,1.64-29.25-23.46.02Z"/>
        </g>
        <g>
          <polygon class="cls-6" points="79.44 435.41 54.93 435.43 56.63 405.12 81.14 405.1 79.44 435.41"/>
          <path class="cls-1" d="m54.37,435.95l1.76-31.36,25.57-.02-1.76,31.36-25.57.02Zm2.76-30.3l-1.64,29.25,23.46-.02,1.64-29.25-23.46.02Z"/>
        </g>
        <g>
          <polygon class="cls-6" points="25.26 467.61 .75 467.62 2.45 437.32 26.96 437.3 25.26 467.61"/>
          <path class="cls-1" d="m.19,468.15l1.76-31.36,25.57-.02-1.76,31.36-25.57.02Zm2.76-30.3l-1.64,29.25,23.46-.02,1.64-29.25-23.46.02Z"/>
        </g>
        <g>
          <polygon class="cls-6" points="51.74 467.36 27.23 467.85 28.35 437.52 52.85 437.03 51.74 467.36"/>
          <path class="cls-1" d="m26.68,468.39l1.15-31.38,25.56-.51-1.15,31.38-25.56.51Zm2.17-30.35l-1.08,29.28,23.45-.47,1.08-29.28-23.45.47Z"/>
        </g>
        <g>
          <polygon class="cls-6" points="77.64 467.51 53.13 467.53 54.83 437.23 79.34 437.21 77.64 467.51"/>
          <path class="cls-1" d="m52.57,468.06l1.76-31.36,25.57-.02-1.76,31.36-25.57.02Zm2.76-30.3l-1.64,29.25,23.46-.02,1.64-29.25-23.46.02Z"/>
        </g>
      </g>
    </g>
  </g>
  <g>
    <polygon class="cls-1" points="1937.08 532.65 1776.34 532.64 1780.4 450.96 1941.14 450.97 1937.08 532.65"/>
    <g>
      <polygon class="cls-4" points="1811.87 490.82 1783.19 490.84 1785.18 455.4 1813.85 455.37 1811.87 490.82"/>
      <polygon class="cls-4" points="1842.5 490.8 1813.82 490.82 1815.81 455.37 1844.49 455.35 1842.5 490.8"/>
      <polygon class="cls-4" points="1873.13 490.77 1844.46 490.79 1846.45 455.35 1875.12 455.32 1873.13 490.77"/>
      <polygon class="cls-4" points="1903.77 490.75 1875.09 490.77 1877.08 455.32 1905.76 455.3 1903.77 490.75"/>
      <polygon class="cls-4" points="1934.41 490.66 1905.73 490.68 1907.72 455.24 1936.39 455.21 1934.41 490.66"/>
      <polygon class="cls-4" points="1809.76 528.37 1781.08 528.4 1783.07 492.95 1811.75 492.93 1809.76 528.37"/>
      <polygon class="cls-4" points="1840.39 528.35 1811.72 528.37 1813.71 492.93 1842.38 492.9 1840.39 528.35"/>
      <polygon class="cls-4" points="1871.03 528.33 1842.35 528.35 1844.34 492.9 1873.02 492.88 1871.03 528.33"/>
      <polygon class="cls-4" points="1901.66 528.3 1872.99 528.32 1874.97 492.88 1903.65 492.86 1901.66 528.3"/>
      <polygon class="cls-4" points="1932.3 528.22 1903.62 528.24 1905.61 492.79 1934.29 492.77 1932.3 528.22"/>
    </g>
  </g>
  <g>
    <polygon class="cls-1" points="2141.41 532.65 1980.66 532.64 1984.72 450.96 2145.46 450.97 2141.41 532.65"/>
    <g>
      <polygon class="cls-4" points="2016.19 490.82 1987.51 490.84 1989.5 455.4 2018.18 455.37 2016.19 490.82"/>
      <polygon class="cls-4" points="2046.82 490.8 2018.15 490.82 2020.14 455.37 2048.81 455.35 2046.82 490.8"/>
      <polygon class="cls-4" points="2077.46 490.77 2048.78 490.79 2050.77 455.35 2079.45 455.32 2077.46 490.77"/>
      <polygon class="cls-4" points="2108.09 490.75 2079.42 490.77 2081.4 455.32 2110.08 455.3 2108.09 490.75"/>
      <polygon class="cls-4" points="2138.73 490.66 2110.05 490.68 2112.04 455.24 2140.72 455.21 2138.73 490.66"/>
      <polygon class="cls-4" points="2014.08 528.37 1985.41 528.4 1987.4 492.95 2016.07 492.93 2014.08 528.37"/>
      <polygon class="cls-4" points="2044.72 528.35 2016.04 528.37 2018.03 492.93 2046.71 492.9 2044.72 528.35"/>
      <polygon class="cls-4" points="2075.35 528.33 2046.68 528.35 2048.66 492.9 2077.34 492.88 2075.35 528.33"/>
      <polygon class="cls-4" points="2105.99 528.3 2077.31 528.32 2079.3 492.88 2107.97 492.86 2105.99 528.3"/>
      <polygon class="cls-4" points="2136.62 528.22 2107.95 528.24 2109.94 492.79 2138.61 492.77 2136.62 528.22"/>
    </g>
  </g>
  <g>
    <polygon class="cls-1" points="2216.55 450.97 2189.04 450.96 2184.99 532.64 2216.55 532.64 2216.55 450.97"/>
    <g>
      <g>
        <polygon class="cls-3" points="2216.55 455.38 2193.83 455.4 2191.84 490.84 2216.55 490.82 2216.55 455.38"/>
        <polygon class="cls-1" points="2216.55 490.16 2192.54 490.18 2194.45 456.05 2216.55 456.04 2216.55 454.72 2193.2 454.74 2191.14 491.5 2216.55 491.48 2216.55 490.16"/>
      </g>
      <g>
        <polygon class="cls-3" points="2216.55 492.93 2191.72 492.95 2189.73 528.4 2216.55 528.38 2216.55 492.93"/>
        <polygon class="cls-1" points="2216.55 527.72 2190.43 527.74 2192.34 493.61 2216.55 493.59 2216.55 492.27 2191.1 492.29 2189.03 529.06 2216.55 529.03 2216.55 527.72"/>
      </g>
    </g>
  </g>
  <g>
    <polygon class="cls-1" points="1732.76 532.65 1572.02 532.64 1576.07 450.96 1736.81 450.97 1732.76 532.65"/>
    <g>
      <polygon class="cls-4" points="1607.54 490.82 1578.87 490.84 1580.85 455.4 1609.53 455.37 1607.54 490.82"/>
      <polygon class="cls-4" points="1638.18 490.8 1609.5 490.82 1611.49 455.37 1640.16 455.35 1638.18 490.8"/>
      <polygon class="cls-4" points="1668.81 490.77 1640.14 490.79 1642.12 455.35 1670.8 455.32 1668.81 490.77"/>
      <polygon class="cls-4" points="1699.44 490.75 1670.77 490.77 1672.76 455.32 1701.43 455.3 1699.44 490.75"/>
      <polygon class="cls-4" points="1730.08 490.66 1701.41 490.68 1703.39 455.24 1732.07 455.21 1730.08 490.66"/>
      <polygon class="cls-4" points="1605.44 528.37 1576.76 528.4 1578.75 492.95 1607.42 492.93 1605.44 528.37"/>
      <polygon class="cls-4" points="1636.07 528.35 1607.4 528.37 1609.38 492.93 1638.06 492.9 1636.07 528.35"/>
      <polygon class="cls-4" points="1666.7 528.33 1638.03 528.35 1640.02 492.9 1668.69 492.88 1666.7 528.33"/>
      <polygon class="cls-4" points="1697.34 528.3 1668.66 528.32 1670.65 492.88 1699.33 492.86 1697.34 528.3"/>
      <polygon class="cls-4" points="1727.98 528.22 1699.3 528.24 1701.29 492.79 1729.96 492.77 1727.98 528.22"/>
    </g>
  </g>
  <g>
    <polygon class="cls-1" points="1528.43 532.65 1367.69 532.64 1371.75 450.96 1532.49 450.97 1528.43 532.65"/>
    <g>
      <polygon class="cls-4" points="1403.22 490.82 1374.54 490.84 1376.53 455.4 1405.21 455.37 1403.22 490.82"/>
      <polygon class="cls-4" points="1433.85 490.8 1405.18 490.82 1407.16 455.37 1435.84 455.35 1433.85 490.8"/>
      <polygon class="cls-4" points="1464.49 490.77 1435.81 490.79 1437.8 455.35 1466.47 455.32 1464.49 490.77"/>
      <polygon class="cls-4" points="1495.12 490.75 1466.45 490.77 1468.43 455.32 1497.11 455.3 1495.12 490.75"/>
      <polygon class="cls-4" points="1525.76 490.66 1497.08 490.68 1499.07 455.24 1527.75 455.21 1525.76 490.66"/>
      <polygon class="cls-4" points="1401.11 528.37 1372.44 528.4 1374.42 492.95 1403.1 492.93 1401.11 528.37"/>
      <polygon class="cls-4" points="1431.75 528.35 1403.07 528.37 1405.06 492.93 1433.73 492.9 1431.75 528.35"/>
      <polygon class="cls-4" points="1462.38 528.33 1433.71 528.35 1435.69 492.9 1464.37 492.88 1462.38 528.33"/>
      <polygon class="cls-4" points="1493.01 528.3 1464.34 528.32 1466.33 492.88 1495 492.86 1493.01 528.3"/>
      <polygon class="cls-4" points="1523.65 528.22 1494.98 528.24 1496.97 492.79 1525.64 492.77 1523.65 528.22"/>
    </g>
  </g>
  <g>
    <polygon class="cls-1" points="1324.11 532.65 1163.37 532.64 1167.43 450.96 1328.17 450.97 1324.11 532.65"/>
    <g>
      <polygon class="cls-4" points="1198.89 490.82 1170.22 490.84 1172.21 455.4 1200.88 455.37 1198.89 490.82"/>
      <polygon class="cls-4" points="1229.53 490.8 1200.85 490.82 1202.84 455.37 1231.52 455.35 1229.53 490.8"/>
      <polygon class="cls-4" points="1260.16 490.77 1231.49 490.79 1233.48 455.35 1262.15 455.32 1260.16 490.77"/>
      <polygon class="cls-4" points="1290.8 490.75 1262.12 490.77 1264.11 455.32 1292.78 455.3 1290.8 490.75"/>
      <polygon class="cls-4" points="1321.43 490.66 1292.76 490.68 1294.75 455.24 1323.42 455.21 1321.43 490.66"/>
      <polygon class="cls-4" points="1196.79 528.37 1168.11 528.4 1170.1 492.95 1198.78 492.93 1196.79 528.37"/>
      <polygon class="cls-4" points="1227.42 528.35 1198.75 528.37 1200.74 492.93 1229.41 492.9 1227.42 528.35"/>
      <polygon class="cls-4" points="1258.06 528.33 1229.38 528.35 1231.37 492.9 1260.04 492.88 1258.06 528.33"/>
      <polygon class="cls-4" points="1288.69 528.3 1260.02 528.32 1262 492.88 1290.68 492.86 1288.69 528.3"/>
      <polygon class="cls-4" points="1319.33 528.22 1290.65 528.24 1292.64 492.79 1321.32 492.77 1319.33 528.22"/>
    </g>
  </g>
  <g>
    <polygon class="cls-1" points="1119.79 532.65 959.05 532.64 963.1 450.96 1123.84 450.97 1119.79 532.65"/>
    <g>
      <polygon class="cls-4" points="994.57 490.82 965.9 490.84 967.88 455.4 996.56 455.37 994.57 490.82"/>
      <polygon class="cls-4" points="1025.21 490.8 996.53 490.82 998.52 455.37 1027.19 455.35 1025.21 490.8"/>
      <polygon class="cls-4" points="1055.84 490.77 1027.16 490.79 1029.15 455.35 1057.83 455.32 1055.84 490.77"/>
      <polygon class="cls-4" points="1086.47 490.75 1057.8 490.77 1059.79 455.32 1088.46 455.3 1086.47 490.75"/>
      <polygon class="cls-4" points="1117.11 490.66 1088.44 490.68 1090.42 455.24 1119.1 455.21 1117.11 490.66"/>
      <polygon class="cls-4" points="992.46 528.37 963.79 528.4 965.78 492.95 994.45 492.93 992.46 528.37"/>
      <polygon class="cls-4" points="1023.1 528.35 994.42 528.37 996.41 492.93 1025.09 492.9 1023.1 528.35"/>
      <polygon class="cls-4" points="1053.73 528.33 1025.06 528.35 1027.05 492.9 1055.72 492.88 1053.73 528.33"/>
      <polygon class="cls-4" points="1084.37 528.3 1055.69 528.32 1057.68 492.88 1086.36 492.86 1084.37 528.3"/>
      <polygon class="cls-4" points="1115.01 528.22 1086.33 528.24 1088.32 492.79 1116.99 492.77 1115.01 528.22"/>
    </g>
  </g>
  <g>
    <polygon class="cls-1" points="915.46 532.65 754.72 532.64 758.78 450.96 919.52 450.97 915.46 532.65"/>
    <g>
      <polygon class="cls-4" points="790.25 490.82 761.57 490.84 763.56 455.4 792.23 455.37 790.25 490.82"/>
      <polygon class="cls-4" points="820.88 490.8 792.21 490.82 794.19 455.37 822.87 455.35 820.88 490.8"/>
      <polygon class="cls-4" points="851.52 490.77 822.84 490.79 824.83 455.35 853.5 455.32 851.52 490.77"/>
      <polygon class="cls-4" points="882.15 490.75 853.47 490.77 855.46 455.32 884.14 455.3 882.15 490.75"/>
      <polygon class="cls-4" points="912.79 490.66 884.11 490.68 886.1 455.24 914.78 455.21 912.79 490.66"/>
      <polygon class="cls-4" points="788.14 528.37 759.47 528.4 761.45 492.95 790.13 492.93 788.14 528.37"/>
      <polygon class="cls-4" points="818.78 528.35 790.1 528.37 792.09 492.93 820.76 492.9 818.78 528.35"/>
      <polygon class="cls-4" points="849.41 528.33 820.73 528.35 822.72 492.9 851.4 492.88 849.41 528.33"/>
      <polygon class="cls-4" points="880.04 528.3 851.37 528.32 853.36 492.88 882.03 492.86 880.04 528.3"/>
      <polygon class="cls-4" points="910.68 528.22 882.01 528.24 883.99 492.79 912.67 492.77 910.68 528.22"/>
    </g>
  </g>
  <g>
    <polygon class="cls-1" points="711.14 532.65 550.4 532.64 554.45 450.96 715.2 450.97 711.14 532.65"/>
    <g>
      <polygon class="cls-4" points="585.92 490.82 557.25 490.84 559.24 455.4 587.91 455.37 585.92 490.82"/>
      <polygon class="cls-4" points="616.56 490.8 587.88 490.82 589.87 455.37 618.55 455.35 616.56 490.8"/>
      <polygon class="cls-4" points="647.19 490.77 618.52 490.79 620.5 455.35 649.18 455.32 647.19 490.77"/>
      <polygon class="cls-4" points="677.83 490.75 649.15 490.77 651.14 455.32 679.81 455.3 677.83 490.75"/>
      <polygon class="cls-4" points="708.46 490.66 679.79 490.68 681.78 455.24 710.45 455.21 708.46 490.66"/>
      <polygon class="cls-4" points="583.82 528.37 555.14 528.4 557.13 492.95 585.81 492.93 583.82 528.37"/>
      <polygon class="cls-4" points="614.45 528.35 585.78 528.37 587.76 492.93 616.44 492.9 614.45 528.35"/>
      <polygon class="cls-4" points="645.09 528.33 616.41 528.35 618.4 492.9 647.07 492.88 645.09 528.33"/>
      <polygon class="cls-4" points="675.72 528.3 647.04 528.32 649.03 492.88 677.71 492.86 675.72 528.3"/>
      <polygon class="cls-4" points="706.36 528.22 677.68 528.24 679.67 492.79 708.35 492.77 706.36 528.22"/>
    </g>
  </g>
  <g>
    <polygon class="cls-1" points="506.82 532.65 346.07 532.64 350.13 450.96 510.87 450.97 506.82 532.65"/>
    <g>
      <polygon class="cls-4" points="381.6 490.82 352.92 490.84 354.91 455.4 383.59 455.37 381.6 490.82"/>
      <polygon class="cls-4" points="412.23 490.8 383.56 490.82 385.55 455.37 414.22 455.35 412.23 490.8"/>
      <polygon class="cls-4" points="442.87 490.77 414.19 490.79 416.18 455.35 444.86 455.32 442.87 490.77"/>
      <polygon class="cls-4" points="473.5 490.75 444.83 490.77 446.81 455.32 475.49 455.3 473.5 490.75"/>
      <polygon class="cls-4" points="504.14 490.66 475.46 490.68 477.45 455.24 506.13 455.21 504.14 490.66"/>
      <polygon class="cls-4" points="379.49 528.37 350.82 528.4 352.81 492.95 381.48 492.93 379.49 528.37"/>
      <polygon class="cls-4" points="410.13 528.35 381.45 528.37 383.44 492.93 412.12 492.9 410.13 528.35"/>
      <polygon class="cls-4" points="440.76 528.33 412.09 528.35 414.07 492.9 442.75 492.88 440.76 528.33"/>
      <polygon class="cls-4" points="471.4 528.3 442.72 528.32 444.71 492.88 473.38 492.86 471.4 528.3"/>
      <polygon class="cls-4" points="502.03 528.22 473.36 528.24 475.35 492.79 504.02 492.77 502.03 528.22"/>
    </g>
  </g>
  <g>
    <polygon class="cls-1" points="302.49 532.65 141.75 532.64 145.81 450.96 306.55 450.97 302.49 532.65"/>
    <g>
      <polygon class="cls-4" points="177.28 490.82 148.6 490.84 150.59 455.4 179.26 455.37 177.28 490.82"/>
      <polygon class="cls-4" points="207.91 490.8 179.24 490.82 181.22 455.37 209.9 455.35 207.91 490.8"/>
      <polygon class="cls-4" points="238.54 490.77 209.87 490.79 211.86 455.35 240.53 455.32 238.54 490.77"/>
      <polygon class="cls-4" points="269.18 490.75 240.5 490.77 242.49 455.32 271.17 455.3 269.18 490.75"/>
      <polygon class="cls-4" points="299.82 490.66 271.14 490.68 273.13 455.24 301.8 455.21 299.82 490.66"/>
      <polygon class="cls-4" points="175.17 528.37 146.49 528.4 148.48 492.95 177.16 492.93 175.17 528.37"/>
      <polygon class="cls-4" points="205.8 528.35 177.13 528.37 179.12 492.93 207.79 492.9 205.8 528.35"/>
      <polygon class="cls-4" points="236.44 528.33 207.76 528.35 209.75 492.9 238.43 492.88 236.44 528.33"/>
      <polygon class="cls-4" points="267.07 528.3 238.4 528.32 240.39 492.88 269.06 492.86 267.07 528.3"/>
      <polygon class="cls-4" points="297.71 528.22 269.04 528.24 271.02 492.79 299.7 492.77 297.71 528.22"/>
    </g>
  </g>
  <g>
    <polygon class="cls-1" points=".6 450.97 .6 532.65 98.17 532.65 102.22 450.97 .6 450.97"/>
    <g>
      <g>
        <polygon class="cls-3" points=".6 455.35 .6 490.8 3.59 490.8 5.57 455.35 .6 455.35"/>
        <polygon class="cls-1" points=".6 454.69 .6 456.01 4.88 456.01 2.96 490.14 .6 490.14 .6 491.46 4.21 491.45 6.27 454.69 .6 454.69"/>
      </g>
      <g>
        <polygon class="cls-3" points="34.22 490.77 5.55 490.79 7.53 455.35 36.21 455.32 34.22 490.77"/>
        <path class="cls-1" d="m4.85,491.45l2.06-36.76,30-.02-2.06,36.76-30,.02Zm3.31-35.45l-1.91,34.13,27.36-.02,1.91-34.13-27.36.02Z"/>
      </g>
      <g>
        <polygon class="cls-3" points="64.85 490.75 36.18 490.77 38.17 455.32 66.84 455.3 64.85 490.75"/>
        <path class="cls-1" d="m35.48,491.43l2.06-36.76,29.99-.02-2.06,36.76-30,.02Zm3.31-35.45l-1.91,34.13,27.36-.02,1.91-34.13-27.35.02Z"/>
      </g>
      <g>
        <polygon class="cls-3" points="95.49 490.66 66.82 490.68 68.81 455.24 97.48 455.21 95.49 490.66"/>
        <path class="cls-1" d="m66.12,491.34l2.06-36.76,29.99-.02-2.06,36.76-30,.02Zm3.31-35.45l-1.91,34.13,27.36-.02,1.91-34.13-27.35.02Z"/>
      </g>
      <g>
        <polygon class="cls-3" points=".6 492.91 .6 528.35 1.48 528.35 3.47 492.9 .6 492.91"/>
        <polygon class="cls-1" points=".6 492.25 .6 493.56 2.77 493.56 .86 527.69 .6 527.69 .6 529.01 2.1 529.01 4.17 492.24 .6 492.25"/>
      </g>
      <g>
        <polygon class="cls-3" points="32.11 528.33 3.44 528.35 5.43 492.9 34.1 492.88 32.11 528.33"/>
        <path class="cls-1" d="m2.74,529.01l2.06-36.76,30-.02-2.06,36.76-30,.02Zm3.31-35.45l-1.91,34.13,27.36-.02,1.91-34.13-27.36.02Z"/>
      </g>
      <g>
        <polygon class="cls-3" points="62.75 528.3 34.07 528.32 36.06 492.88 64.74 492.86 62.75 528.3"/>
        <path class="cls-1" d="m33.38,528.98l2.06-36.76,30-.02-2.06,36.76-30,.02Zm3.31-35.45l-1.91,34.13,27.36-.02,1.91-34.13-27.36.02Z"/>
      </g>
      <g>
        <polygon class="cls-3" points="93.39 528.22 64.71 528.24 66.7 492.79 95.37 492.77 93.39 528.22"/>
        <path class="cls-1" d="m64.01,528.9l2.06-36.76,30-.02-2.06,36.76-30,.02Zm3.31-35.45l-1.91,34.13,27.36-.02,1.91-34.13-27.36.02Z"/>
      </g>
    </g>
  </g>
  <g>
    <g>
      <polygon class="cls-1" points="1943.83 618.56 1717.85 618.56 1723.55 503.73 1949.53 503.73 1943.83 618.56"/>
      <g>
        <g>
          <polygon class="cls-2" points="1767.79 559.76 1727.48 559.79 1730.27 509.96 1770.58 509.93 1767.79 559.76"/>
          <path class="cls-1" d="m1726.33,560.88l2.92-52,42.48-.03-2.92,52-42.48.03Zm4.96-49.83l-2.67,47.67,38.14-.03,2.67-47.67-38.14.03Z"/>
        </g>
        <g>
          <polygon class="cls-2" points="1810.86 559.73 1770.54 559.76 1773.34 509.93 1813.65 509.89 1810.86 559.73"/>
          <path class="cls-1" d="m1769.4,560.84l2.92-52,42.48-.03-2.92,52-42.48.03Zm4.96-49.84l-2.67,47.67,38.14-.03,2.67-47.67-38.14.03Z"/>
        </g>
        <g>
          <polygon class="cls-2" points="1853.93 559.69 1813.61 559.73 1816.41 509.89 1856.72 509.86 1853.93 559.69"/>
          <path class="cls-1" d="m1812.47,560.81l2.92-52,42.48-.03-2.92,52-42.48.03Zm4.96-49.83l-2.67,47.67,38.14-.03,2.67-47.67-38.14.03Z"/>
        </g>
        <g>
          <polygon class="cls-2" points="1896.99 559.66 1856.68 559.69 1859.47 509.86 1899.79 509.83 1896.99 559.66"/>
          <path class="cls-1" d="m1855.53,560.78l2.92-52,42.48-.03-2.92,52-42.48.03Zm4.96-49.84l-2.67,47.67,38.14-.03,2.67-47.67-38.14.03Z"/>
        </g>
        <g>
          <polygon class="cls-2" points="1940.07 559.54 1899.75 559.57 1902.55 509.74 1942.86 509.71 1940.07 559.54"/>
          <path class="cls-1" d="m1898.61,560.65l2.92-52,42.48-.03-2.92,52-42.48.03Zm4.96-49.84l-2.67,47.67,38.14-.03,2.67-47.67-38.14.03Z"/>
        </g>
        <g>
          <polygon class="cls-2" points="1764.83 612.56 1724.52 612.59 1727.31 562.76 1767.62 562.73 1764.83 612.56"/>
          <path class="cls-1" d="m1723.37,613.67l2.92-52,42.48-.03-2.92,52-42.48.03Zm4.96-49.84l-2.67,47.67,38.14-.03,2.67-47.67-38.14.03Z"/>
        </g>
        <g>
          <polygon class="cls-2" points="1807.9 612.52 1767.58 612.56 1770.38 562.72 1810.69 562.69 1807.9 612.52"/>
          <path class="cls-1" d="m1766.44,613.64l2.92-52,42.48-.03-2.92,52-42.48.03Zm4.96-49.83l-2.67,47.67,38.14-.03,2.67-47.67-38.14.03Z"/>
        </g>
        <g>
          <polygon class="cls-2" points="1850.96 612.49 1810.65 612.52 1813.45 562.69 1853.76 562.66 1850.96 612.49"/>
          <path class="cls-1" d="m1809.51,613.61l2.92-52,42.48-.03-2.92,52-42.48.03Zm4.96-49.84l-2.67,47.67,38.14-.03,2.67-47.67-38.14.03Z"/>
        </g>
        <g>
          <polygon class="cls-2" points="1894.03 612.46 1853.72 612.49 1856.51 562.66 1896.83 562.62 1894.03 612.46"/>
          <path class="cls-1" d="m1852.57,613.57l2.92-52,42.48-.03-2.92,52-42.48.03Zm4.96-49.83l-2.67,47.67,38.14-.03,2.67-47.67-38.14.03Z"/>
        </g>
        <g>
          <polygon class="cls-2" points="1937.1 612.34 1896.79 612.37 1899.59 562.53 1939.9 562.5 1937.1 612.34"/>
          <path class="cls-1" d="m1895.65,613.45l2.92-52,42.48-.03-2.92,52-42.48.03Zm4.96-49.83l-2.67,47.67,38.14-.03,2.67-47.67-38.14.03Z"/>
        </g>
      </g>
    </g>
    <g>
      <polygon class="cls-1" points="1647.32 618.56 1421.34 618.56 1427.05 503.73 1653.03 503.73 1647.32 618.56"/>
      <g>
        <g>
          <polygon class="cls-2" points="1471.29 559.76 1430.97 559.79 1433.77 509.96 1474.08 509.93 1471.29 559.76"/>
          <path class="cls-1" d="m1429.83,560.88l2.92-52,42.48-.03-2.92,52-42.48.03Zm4.96-49.83l-2.67,47.67,38.14-.03,2.67-47.67-38.14.03Z"/>
        </g>
        <g>
          <polygon class="cls-2" points="1514.35 559.73 1474.04 559.76 1476.84 509.93 1517.15 509.89 1514.35 559.73"/>
          <path class="cls-1" d="m1472.89,560.84l2.92-52,42.48-.03-2.92,52-42.48.03Zm4.96-49.84l-2.67,47.67,38.14-.03,2.67-47.67-38.14.03Z"/>
        </g>
        <g>
          <polygon class="cls-2" points="1557.42 559.69 1517.11 559.73 1519.9 509.89 1560.22 509.86 1557.42 559.69"/>
          <path class="cls-1" d="m1515.96,560.81l2.92-52,42.48-.03-2.92,52-42.48.03Zm4.96-49.83l-2.67,47.67,38.14-.03,2.67-47.67-38.14.03Z"/>
        </g>
        <g>
          <polygon class="cls-2" points="1600.49 559.66 1560.18 559.69 1562.97 509.86 1603.28 509.83 1600.49 559.66"/>
          <path class="cls-1" d="m1559.03,560.78l2.92-52,42.48-.03-2.92,52-42.48.03Zm4.96-49.84l-2.67,47.67,38.14-.03,2.67-47.67-38.14.03Z"/>
        </g>
        <g>
          <polygon class="cls-2" points="1643.56 559.54 1603.25 559.57 1606.04 509.74 1646.36 509.71 1643.56 559.54"/>
          <path class="cls-1" d="m1602.1,560.65l2.92-52,42.48-.03-2.92,52-42.48.03Zm4.96-49.84l-2.67,47.67,38.14-.03,2.67-47.67-38.14.03Z"/>
        </g>
        <g>
          <polygon class="cls-2" points="1468.33 612.56 1428.01 612.59 1430.81 562.76 1471.12 562.73 1468.33 612.56"/>
          <path class="cls-1" d="m1426.87,613.67l2.92-52,42.48-.03-2.92,52-42.48.03Zm4.96-49.84l-2.67,47.67,38.14-.03,2.67-47.67-38.14.03Z"/>
        </g>
        <g>
          <polygon class="cls-2" points="1511.39 612.52 1471.08 612.56 1473.87 562.72 1514.19 562.69 1511.39 612.52"/>
          <path class="cls-1" d="m1469.93,613.64l2.92-52,42.48-.03-2.92,52-42.48.03Zm4.96-49.83l-2.67,47.67,38.14-.03,2.67-47.67-38.14.03Z"/>
        </g>
        <g>
          <polygon class="cls-2" points="1554.46 612.49 1514.15 612.52 1516.94 562.69 1557.26 562.66 1554.46 612.49"/>
          <path class="cls-1" d="m1513,613.61l2.92-52,42.48-.03-2.92,52-42.48.03Zm4.96-49.84l-2.67,47.67,38.14-.03,2.67-47.67-38.14.03Z"/>
        </g>
        <g>
          <polygon class="cls-2" points="1597.53 612.46 1557.22 612.49 1560.01 562.66 1600.32 562.62 1597.53 612.46"/>
          <path class="cls-1" d="m1556.07,613.57l2.92-52,42.48-.03-2.92,52-42.48.03Zm4.96-49.83l-2.67,47.67,38.14-.03,2.67-47.67-38.14.03Z"/>
        </g>
        <g>
          <polygon class="cls-2" points="1640.6 612.34 1600.29 612.37 1603.08 562.53 1643.4 562.5 1640.6 612.34"/>
          <path class="cls-1" d="m1599.14,613.45l2.92-52,42.48-.03-2.92,52-42.48.03Zm4.96-49.83l-2.67,47.67,38.14-.03,2.67-47.67-38.14.03Z"/>
        </g>
      </g>
    </g>
    <g>
      <polygon class="cls-1" points="1350.82 618.56 1124.84 618.56 1130.54 503.73 1356.52 503.73 1350.82 618.56"/>
      <g>
        <g>
          <polygon class="cls-2" points="1174.78 559.76 1134.47 559.79 1137.26 509.96 1177.58 509.93 1174.78 559.76"/>
          <path class="cls-1" d="m1133.32,560.88l2.92-52,42.48-.03-2.92,52-42.48.03Zm4.96-49.83l-2.67,47.67,38.14-.03,2.67-47.67-38.14.03Z"/>
        </g>
        <g>
          <polygon class="cls-2" points="1217.85 559.73 1177.54 559.76 1180.33 509.93 1220.65 509.89 1217.85 559.73"/>
          <path class="cls-1" d="m1176.39,560.84l2.92-52,42.48-.03-2.92,52-42.48.03Zm4.96-49.84l-2.67,47.67,38.14-.03,2.67-47.67-38.14.03Z"/>
        </g>
        <g>
          <polygon class="cls-2" points="1260.92 559.69 1220.61 559.73 1223.4 509.89 1263.71 509.86 1260.92 559.69"/>
          <path class="cls-1" d="m1219.46,560.81l2.92-52,42.48-.03-2.92,52-42.48.03Zm4.96-49.83l-2.67,47.67,38.14-.03,2.67-47.67-38.14.03Z"/>
        </g>
        <g>
          <polygon class="cls-2" points="1303.99 559.66 1263.67 559.69 1266.47 509.86 1306.78 509.83 1303.99 559.66"/>
          <path class="cls-1" d="m1262.53,560.78l2.92-52,42.48-.03-2.92,52-42.48.03Zm4.96-49.84l-2.67,47.67,38.14-.03,2.67-47.67-38.14.03Z"/>
        </g>
        <g>
          <polygon class="cls-2" points="1347.06 559.54 1306.75 559.57 1309.54 509.74 1349.85 509.71 1347.06 559.54"/>
          <path class="cls-1" d="m1305.6,560.65l2.92-52,42.48-.03-2.92,52-42.48.03Zm4.96-49.84l-2.67,47.67,38.14-.03,2.67-47.67-38.14.03Z"/>
        </g>
        <g>
          <polygon class="cls-2" points="1171.82 612.56 1131.51 612.59 1134.3 562.76 1174.62 562.73 1171.82 612.56"/>
          <path class="cls-1" d="m1130.36,613.67l2.92-52,42.48-.03-2.92,52-42.48.03Zm4.96-49.84l-2.67,47.67,38.14-.03,2.67-47.67-38.14.03Z"/>
        </g>
        <g>
          <polygon class="cls-2" points="1214.89 612.52 1174.58 612.56 1177.37 562.72 1217.69 562.69 1214.89 612.52"/>
          <path class="cls-1" d="m1173.43,613.64l2.92-52,42.48-.03-2.92,52-42.48.03Zm4.96-49.83l-2.67,47.67,38.14-.03,2.67-47.67-38.14.03Z"/>
        </g>
        <g>
          <polygon class="cls-2" points="1257.96 612.49 1217.64 612.52 1220.44 562.69 1260.75 562.66 1257.96 612.49"/>
          <path class="cls-1" d="m1216.5,613.61l2.92-52,42.48-.03-2.92,52-42.48.03Zm4.96-49.84l-2.67,47.67,38.14-.03,2.67-47.67-38.14.03Z"/>
        </g>
        <g>
          <polygon class="cls-2" points="1301.03 612.46 1260.71 612.49 1263.51 562.66 1303.82 562.62 1301.03 612.46"/>
          <path class="cls-1" d="m1259.57,613.57l2.92-52,42.48-.03-2.92,52-42.48.03Zm4.96-49.83l-2.67,47.67,38.14-.03,2.67-47.67-38.14.03Z"/>
        </g>
        <g>
          <polygon class="cls-2" points="1344.1 612.34 1303.79 612.37 1306.58 562.53 1346.89 562.5 1344.1 612.34"/>
          <path class="cls-1" d="m1302.64,613.45l2.92-52,42.48-.03-2.92,52-42.48.03Zm4.96-49.83l-2.67,47.67,38.14-.03,2.67-47.67-38.14.03Z"/>
        </g>
      </g>
    </g>
    <g>
      <polygon class="cls-1" points="1054.32 618.56 828.34 618.56 834.04 503.73 1060.02 503.73 1054.32 618.56"/>
      <g>
        <g>
          <polygon class="cls-2" points="878.28 559.76 837.97 559.79 840.76 509.96 881.08 509.93 878.28 559.76"/>
          <path class="cls-1" d="m836.82,560.88l2.92-52,42.48-.03-2.92,52-42.48.03Zm4.96-49.83l-2.67,47.67,38.14-.03,2.67-47.67-38.14.03Z"/>
        </g>
        <g>
          <polygon class="cls-2" points="921.35 559.73 881.03 559.76 883.83 509.93 924.14 509.89 921.35 559.73"/>
          <path class="cls-1" d="m879.89,560.84l2.92-52,42.48-.03-2.92,52-42.48.03Zm4.96-49.84l-2.67,47.67,38.14-.03,2.67-47.67-38.14.03Z"/>
        </g>
        <g>
          <polygon class="cls-2" points="964.42 559.69 924.1 559.73 926.9 509.89 967.21 509.86 964.42 559.69"/>
          <path class="cls-1" d="m922.96,560.81l2.92-52,42.48-.03-2.92,52-42.48.03Zm4.96-49.83l-2.67,47.67,38.14-.03,2.67-47.67-38.14.03Z"/>
        </g>
        <g>
          <polygon class="cls-2" points="1007.48 559.66 967.17 559.69 969.97 509.86 1010.28 509.83 1007.48 559.66"/>
          <path class="cls-1" d="m966.03,560.78l2.92-52,42.48-.03-2.92,52-42.48.03Zm4.96-49.84l-2.67,47.67,38.14-.03,2.67-47.67-38.14.03Z"/>
        </g>
        <g>
          <polygon class="cls-2" points="1050.56 559.54 1010.24 559.57 1013.04 509.74 1053.35 509.71 1050.56 559.54"/>
          <path class="cls-1" d="m1009.1,560.65l2.92-52,42.48-.03-2.92,52-42.48.03Zm4.96-49.84l-2.67,47.67,38.14-.03,2.67-47.67-38.14.03Z"/>
        </g>
        <g>
          <polygon class="cls-2" points="875.32 612.56 835.01 612.59 837.8 562.76 878.11 562.73 875.32 612.56"/>
          <path class="cls-1" d="m833.86,613.67l2.92-52,42.48-.03-2.92,52-42.48.03Zm4.96-49.84l-2.67,47.67,38.14-.03,2.67-47.67-38.14.03Z"/>
        </g>
        <g>
          <polygon class="cls-2" points="918.39 612.52 878.07 612.56 880.87 562.72 921.18 562.69 918.39 612.52"/>
          <path class="cls-1" d="m876.93,613.64l2.92-52,42.48-.03-2.92,52-42.48.03Zm4.96-49.83l-2.67,47.67,38.14-.03,2.67-47.67-38.14.03Z"/>
        </g>
        <g>
          <polygon class="cls-2" points="961.46 612.49 921.14 612.52 923.94 562.69 964.25 562.66 961.46 612.49"/>
          <path class="cls-1" d="m920,613.61l2.92-52,42.48-.03-2.92,52-42.48.03Zm4.96-49.84l-2.67,47.67,38.14-.03,2.67-47.67-38.14.03Z"/>
        </g>
        <g>
          <polygon class="cls-2" points="1004.52 612.46 964.21 612.49 967 562.66 1007.32 562.62 1004.52 612.46"/>
          <path class="cls-1" d="m963.06,613.57l2.92-52,42.48-.03-2.92,52-42.48.03Zm4.96-49.83l-2.67,47.67,38.14-.03,2.67-47.67-38.14.03Z"/>
        </g>
        <g>
          <polygon class="cls-2" points="1047.6 612.34 1007.28 612.37 1010.08 562.53 1050.39 562.5 1047.6 612.34"/>
          <path class="cls-1" d="m1006.14,613.45l2.92-52,42.48-.03-2.92,52-42.48.03Zm4.96-49.83l-2.67,47.67,38.14-.03,2.67-47.67-38.14.03Z"/>
        </g>
      </g>
    </g>
    <g>
      <polygon class="cls-1" points="757.82 618.56 531.83 618.56 537.54 503.73 763.52 503.73 757.82 618.56"/>
      <g>
        <g>
          <polygon class="cls-2" points="581.78 559.76 541.46 559.79 544.26 509.96 584.57 509.93 581.78 559.76"/>
          <path class="cls-1" d="m540.32,560.88l2.92-52,42.48-.03-2.92,52-42.48.03Zm4.96-49.83l-2.67,47.67,38.14-.03,2.67-47.67-38.14.03Z"/>
        </g>
        <g>
          <polygon class="cls-2" points="624.85 559.73 584.53 559.76 587.33 509.93 627.64 509.89 624.85 559.73"/>
          <path class="cls-1" d="m583.39,560.84l2.92-52,42.48-.03-2.92,52-42.48.03Zm4.96-49.84l-2.67,47.67,38.14-.03,2.67-47.67-38.14.03Z"/>
        </g>
        <g>
          <polygon class="cls-2" points="667.91 559.69 627.6 559.73 630.39 509.89 670.71 509.86 667.91 559.69"/>
          <path class="cls-1" d="m626.45,560.81l2.92-52,42.48-.03-2.92,52-42.48.03Zm4.96-49.83l-2.67,47.67,38.14-.03,2.67-47.67-38.14.03Z"/>
        </g>
        <g>
          <polygon class="cls-2" points="710.98 559.66 670.67 559.69 673.46 509.86 713.78 509.83 710.98 559.66"/>
          <path class="cls-1" d="m669.52,560.78l2.92-52,42.48-.03-2.92,52-42.48.03Zm4.96-49.84l-2.67,47.67,38.14-.03,2.67-47.67-38.14.03Z"/>
        </g>
        <g>
          <polygon class="cls-2" points="754.05 559.54 713.74 559.57 716.53 509.74 756.85 509.71 754.05 559.54"/>
          <path class="cls-1" d="m712.59,560.65l2.92-52,42.48-.03-2.92,52-42.48.03Zm4.96-49.84l-2.67,47.67,38.14-.03,2.67-47.67-38.14.03Z"/>
        </g>
        <g>
          <polygon class="cls-2" points="578.82 612.56 538.5 612.59 541.3 562.76 581.61 562.73 578.82 612.56"/>
          <path class="cls-1" d="m537.36,613.67l2.92-52,42.48-.03-2.92,52-42.48.03Zm4.96-49.84l-2.67,47.67,38.14-.03,2.67-47.67-38.14.03Z"/>
        </g>
        <g>
          <polygon class="cls-2" points="621.89 612.52 581.57 612.56 584.37 562.72 624.68 562.69 621.89 612.52"/>
          <path class="cls-1" d="m580.43,613.64l2.92-52,42.48-.03-2.92,52-42.48.03Zm4.96-49.83l-2.67,47.67,38.14-.03,2.67-47.67-38.14.03Z"/>
        </g>
        <g>
          <polygon class="cls-2" points="664.95 612.49 624.64 612.52 627.43 562.69 667.75 562.66 664.95 612.49"/>
          <path class="cls-1" d="m623.49,613.61l2.92-52,42.48-.03-2.92,52-42.48.03Zm4.96-49.84l-2.67,47.67,38.14-.03,2.67-47.67-38.14.03Z"/>
        </g>
        <g>
          <polygon class="cls-2" points="708.02 612.46 667.71 612.49 670.5 562.66 710.82 562.62 708.02 612.46"/>
          <path class="cls-1" d="m666.56,613.57l2.92-52,42.48-.03-2.92,52-42.48.03Zm4.96-49.83l-2.67,47.67,38.14-.03,2.67-47.67-38.14.03Z"/>
        </g>
        <g>
          <polygon class="cls-2" points="751.09 612.34 710.78 612.37 713.57 562.53 753.89 562.5 751.09 612.34"/>
          <path class="cls-1" d="m709.63,613.45l2.92-52,42.48-.03-2.92,52-42.48.03Zm4.96-49.83l-2.67,47.67,38.14-.03,2.67-47.67-38.14.03Z"/>
        </g>
      </g>
    </g>
    <g>
      <polygon class="cls-1" points="461.31 618.56 235.33 618.56 241.03 503.73 467.02 503.73 461.31 618.56"/>
      <g>
        <g>
          <polygon class="cls-2" points="285.28 559.76 244.96 559.79 247.76 509.96 288.07 509.93 285.28 559.76"/>
          <path class="cls-1" d="m243.82,560.88l2.92-52,42.48-.03-2.92,52-42.48.03Zm4.96-49.83l-2.67,47.67,38.14-.03,2.67-47.67-38.14.03Z"/>
        </g>
        <g>
          <polygon class="cls-2" points="328.34 559.73 288.03 559.76 290.82 509.93 331.14 509.89 328.34 559.73"/>
          <path class="cls-1" d="m286.88,560.84l2.92-52,42.48-.03-2.92,52-42.48.03Zm4.96-49.84l-2.67,47.67,38.14-.03,2.67-47.67-38.14.03Z"/>
        </g>
        <g>
          <polygon class="cls-2" points="371.41 559.69 331.1 559.73 333.89 509.89 374.21 509.86 371.41 559.69"/>
          <path class="cls-1" d="m329.95,560.81l2.92-52,42.48-.03-2.92,52-42.48.03Zm4.96-49.83l-2.67,47.67,38.14-.03,2.67-47.67-38.14.03Z"/>
        </g>
        <g>
          <polygon class="cls-2" points="414.48 559.66 374.16 559.69 376.96 509.86 417.27 509.83 414.48 559.66"/>
          <path class="cls-1" d="m373.02,560.78l2.92-52,42.48-.03-2.92,52-42.48.03Zm4.96-49.84l-2.67,47.67,38.14-.03,2.67-47.67-38.14.03Z"/>
        </g>
        <g>
          <polygon class="cls-2" points="457.55 559.54 417.24 559.57 420.03 509.74 460.35 509.71 457.55 559.54"/>
          <path class="cls-1" d="m416.09,560.65l2.92-52,42.48-.03-2.92,52-42.48.03Zm4.96-49.84l-2.67,47.67,38.14-.03,2.67-47.67-38.14.03Z"/>
        </g>
        <g>
          <polygon class="cls-2" points="282.31 612.56 242 612.59 244.8 562.76 285.11 562.73 282.31 612.56"/>
          <path class="cls-1" d="m240.86,613.67l2.92-52,42.48-.03-2.92,52-42.48.03Zm4.96-49.84l-2.67,47.67,38.14-.03,2.67-47.67-38.14.03Z"/>
        </g>
        <g>
          <polygon class="cls-2" points="325.38 612.52 285.07 612.56 287.86 562.72 328.18 562.69 325.38 612.52"/>
          <path class="cls-1" d="m283.92,613.64l2.92-52,42.48-.03-2.92,52-42.48.03Zm4.96-49.83l-2.67,47.67,38.14-.03,2.67-47.67-38.14.03Z"/>
        </g>
        <g>
          <polygon class="cls-2" points="368.45 612.49 328.14 612.52 330.93 562.69 371.24 562.66 368.45 612.49"/>
          <path class="cls-1" d="m326.99,613.61l2.92-52,42.48-.03-2.92,52-42.48.03Zm4.96-49.84l-2.67,47.67,38.14-.03,2.67-47.67-38.14.03Z"/>
        </g>
        <g>
          <polygon class="cls-2" points="411.52 612.46 371.2 612.49 374 562.66 414.31 562.62 411.52 612.46"/>
          <path class="cls-1" d="m370.06,613.57l2.92-52,42.48-.03-2.92,52-42.48.03Zm4.96-49.83l-2.67,47.67,38.14-.03,2.67-47.67-38.14.03Z"/>
        </g>
        <g>
          <polygon class="cls-2" points="454.59 612.34 414.28 612.37 417.07 562.53 457.39 562.5 454.59 612.34"/>
          <path class="cls-1" d="m413.13,613.45l2.92-52,42.48-.03-2.92,52-42.48.03Zm4.96-49.83l-2.67,47.67,38.14-.03,2.67-47.67-38.14.03Z"/>
        </g>
      </g>
    </g>
    <g>
      <polygon class="cls-1" points=".6 505.09 .6 619.92 162.68 619.92 168.38 505.09 .6 505.09"/>
      <g>
        <g>
          <polygon class="cls-2" points=".6 511.27 .6 561.1 29.71 561.08 32.51 511.25 .6 511.27"/>
          <path class="cls-1" d="m.6,510.19v52l30.14-.02,2.92-52-33.05.03Zm28.09,49.81l-27.6.02v-47.67l30.27-.02-2.67,47.67Z"/>
        </g>
        <g>
          <polygon class="cls-2" points="72.78 561.05 32.47 561.08 35.26 511.25 75.57 511.22 72.78 561.05"/>
          <path class="cls-1" d="m31.32,562.16l2.92-52,42.48-.03-2.92,52-42.48.03Zm4.96-49.83l-2.67,47.67,38.14-.03,2.67-47.67-38.14.03Z"/>
        </g>
        <g>
          <polygon class="cls-2" points="115.85 561.01 75.53 561.05 78.33 511.21 118.64 511.18 115.85 561.01"/>
          <path class="cls-1" d="m74.39,562.13l2.92-52,42.48-.03-2.92,52-42.48.03Zm4.96-49.83l-2.67,47.67,38.14-.03,2.67-47.67-38.14.03Z"/>
        </g>
        <g>
          <polygon class="cls-2" points="158.92 560.89 118.61 560.93 121.4 511.09 161.71 511.06 158.92 560.89"/>
          <path class="cls-1" d="m117.46,562.01l2.92-52,42.48-.03-2.92,52-42.48.03Zm4.96-49.83l-2.67,47.67,38.14-.03,2.67-47.67-38.14.03Z"/>
        </g>
        <g>
          <polygon class="cls-2" points=".6 564.07 .6 613.9 26.75 613.88 29.55 564.05 .6 564.07"/>
          <polygon class="cls-1" points=".6 562.99 .6 565.15 28.4 565.13 25.73 612.8 .6 612.82 .6 614.98 27.78 614.96 30.69 562.96 .6 562.99"/>
        </g>
        <g>
          <polygon class="cls-2" points="69.82 613.85 29.51 613.88 32.3 564.04 72.61 564.01 69.82 613.85"/>
          <path class="cls-1" d="m28.36,614.96l2.92-52,42.48-.03-2.92,52-42.48.03Zm4.96-49.83l-2.67,47.67,38.14-.03,2.67-47.67-38.14.03Z"/>
        </g>
        <g>
          <polygon class="cls-2" points="112.89 613.81 72.57 613.84 75.37 564.01 115.68 563.98 112.89 613.81"/>
          <path class="cls-1" d="m71.43,614.93l2.92-52,42.48-.03-2.92,52-42.48.03Zm4.96-49.84l-2.67,47.67,38.14-.03,2.67-47.67-38.14.03Z"/>
        </g>
        <g>
          <polygon class="cls-2" points="155.96 613.69 115.65 613.72 118.44 563.89 158.75 563.86 155.96 613.69"/>
          <path class="cls-1" d="m114.5,614.81l2.92-52,42.48-.03-2.92,52-42.48.03Zm4.96-49.84l-2.67,47.67,38.14-.03,2.67-47.67-38.14.03Z"/>
        </g>
      </g>
    </g>
    <g>
      <polygon class="cls-1" points="2216.55 503.73 2020.05 503.73 2014.35 618.56 2216.55 618.56 2216.55 503.73"/>
      <g>
        <g>
          <polygon class="cls-2" points="2064.29 559.76 2023.98 559.79 2026.77 509.96 2067.09 509.93 2064.29 559.76"/>
          <path class="cls-1" d="m2022.83,560.88l2.92-52,42.48-.03-2.92,52-42.48.03Zm4.96-49.83l-2.67,47.67,38.14-.03,2.67-47.67-38.14.03Z"/>
        </g>
        <g>
          <polygon class="cls-2" points="2107.36 559.73 2067.05 559.76 2069.84 509.93 2110.15 509.89 2107.36 559.73"/>
          <path class="cls-1" d="m2065.9,560.84l2.92-52,42.48-.03-2.92,52-42.48.03Zm4.96-49.84l-2.67,47.67,38.14-.03,2.67-47.67-38.14.03Z"/>
        </g>
        <g>
          <polygon class="cls-2" points="2150.43 559.69 2110.11 559.73 2112.91 509.89 2153.22 509.86 2150.43 559.69"/>
          <path class="cls-1" d="m2108.97,560.81l2.92-52,42.48-.03-2.92,52-42.48.03Zm4.96-49.83l-2.67,47.67,38.14-.03,2.67-47.67-38.14.03Z"/>
        </g>
        <g>
          <polygon class="cls-2" points="2193.5 559.66 2153.18 559.69 2155.98 509.86 2196.29 509.83 2193.5 559.66"/>
          <path class="cls-1" d="m2152.04,560.78l2.92-52,42.48-.03-2.92,52-42.48.03Zm4.96-49.84l-2.67,47.67,38.14-.03,2.67-47.67-38.14.03Z"/>
        </g>
        <g>
          <polygon class="cls-2" points="2216.55 509.72 2199.05 509.74 2196.25 559.57 2216.55 559.55 2216.55 509.72"/>
          <polygon class="cls-1" points="2216.55 558.47 2197.4 558.49 2200.07 510.82 2216.55 510.81 2216.55 508.64 2198.02 508.65 2195.11 560.65 2216.55 560.64 2216.55 558.47"/>
        </g>
        <g>
          <polygon class="cls-2" points="2061.33 612.56 2021.02 612.59 2023.81 562.76 2064.13 562.73 2061.33 612.56"/>
          <path class="cls-1" d="m2019.87,613.67l2.92-52,42.48-.03-2.92,52-42.48.03Zm4.96-49.84l-2.67,47.67,38.14-.03,2.67-47.67-38.14.03Z"/>
        </g>
        <g>
          <polygon class="cls-2" points="2104.4 612.52 2064.09 612.56 2066.88 562.72 2107.19 562.69 2104.4 612.52"/>
          <path class="cls-1" d="m2062.94,613.64l2.92-52,42.48-.03-2.92,52-42.48.03Zm4.96-49.83l-2.67,47.67,38.14-.03,2.67-47.67-38.14.03Z"/>
        </g>
        <g>
          <polygon class="cls-2" points="2147.47 612.49 2107.15 612.52 2109.95 562.69 2150.26 562.66 2147.47 612.49"/>
          <path class="cls-1" d="m2106.01,613.61l2.92-52,42.48-.03-2.92,52-42.48.03Zm4.96-49.84l-2.67,47.67,38.14-.03,2.67-47.67-38.14.03Z"/>
        </g>
        <g>
          <polygon class="cls-2" points="2190.54 612.46 2150.22 612.49 2153.02 562.66 2193.33 562.62 2190.54 612.46"/>
          <path class="cls-1" d="m2149.08,613.57l2.92-52,42.48-.03-2.92,52-42.48.03Zm4.96-49.83l-2.67,47.67,38.14-.03,2.67-47.67-38.14.03Z"/>
        </g>
        <g>
          <polygon class="cls-2" points="2216.55 562.52 2196.09 562.53 2193.29 612.37 2216.55 612.35 2216.55 562.52"/>
          <polygon class="cls-1" points="2216.55 611.27 2194.44 611.28 2197.11 563.62 2216.55 563.6 2216.55 561.44 2195.06 561.45 2192.15 613.45 2216.55 613.43 2216.55 611.27"/>
        </g>
      </g>
    </g>
  </g>
  <path class="cls-1" d="m1917.97,362.42c3.31-9.89,1.96-23.51-8.29-28.77-8.3-4.24-18.49-1.1-22.66,7.25-.71,1.42-2.78.19-2.12-1.23,3.74-8,6.98-20.56-3.16-25.39-8.05-3.84-18.11,2.1-23.05,8.98-.46.73-.89,1.49-1.39,2.2-.89,1.28-2.89.17-2.13-1.24,8.48-12.2,12.81-27.71,13.07-42.49.23-13.04-3.09-27.03-13.33-35.9-10.74-9.3-26.56-10.84-39.34-5.17-13.5,5.99-23.66,18.11-30.55,30.88-6.72,12.46-11.25,27-10.42,41.27.08,1.38-2.17,1.68-2.41.32-1.29-7-3.07-14.06-6.34-20.43-2.81-5.47-6.79-10.41-12.32-13.29-5.5-2.87-11.91-3.32-17.92-2.07-10.69,2.21-22.64,9.64-25.62,20.72-.21,1.3-.43,2.58-.7,3.84-.3,1.35-2.54,1.06-2.42-.31,0-.12.04-.22.04-.33h0c.03-.08.02-.16.04-.23.11-.97.27-1.91.51-2.83,2.1-12.58.15-25.87-5.47-37.3-5.1-10.38-13.45-19.59-24.44-23.77-12.36-4.71-26.31-2.4-37.49,4.32-11.92,7.16-20.23,19.33-22.57,33.04-2.98,17.35,5.69,32.88,11.48,48.62.36.98-.95,2-1.8,1.39-7.56-5.39-16.7-8.86-25.33-3.55-7.07,4.35-10.56,13.03-6.85,20.73.68,1.41-1.45,2.66-2.13,1.24-2.8-5.84-7.16-11.06-13.42-13.27-9.66-3.4-20.46.84-27.34,7.92-7.55,7.83-9.89,18.98-5.01,28.81l369.43-.42c.54-1.17,1.03-2.33,1.43-3.55Z"/>
</svg>